<svg width="77" height="77" viewBox="0 0 77 77" fill="none" xmlns="http://www.w3.org/2000/svg">
<g id="EZT A CSILLAGOT">
<path id="Vector" d="M68.9554 36.5009L51.2716 42.6288L55.502 55.5038L42.6287 51.2734L36.4991 68.9572L30.3748 51.2895L17.4677 55.5342L21.7123 42.627L4.04462 36.5009L21.7284 30.3713L17.498 17.4981L30.3731 21.7285L36.4991 4.04468L42.6251 21.7124L55.5323 17.4659L51.2859 30.3731L68.9536 36.4992L68.9554 36.5009ZM46.0452 40.4618L57.4726 36.5009L46.0541 32.5419L48.7976 24.2007L40.4564 26.9442L36.4973 15.5257L32.5364 26.9531L24.2167 24.2185L26.9495 32.5383L15.522 36.4992L26.9405 40.4565L24.197 48.7977L32.5382 46.0542L36.4955 57.4727L40.4564 46.0452L48.7762 48.778L46.0416 40.4582L46.0452 40.4618Z" fill="white"/>
<path id="Vector_2" d="M57.4744 36.501L46.0452 40.4618L48.7815 48.7798L39.3693 39.3694L42.0772 36.6616L41.9165 36.501H57.4744Z" fill="#FF80D1"/>
<path id="Vector_3" d="M57.4744 36.501H41.9165L39.2087 33.7932L48.7994 24.2007L46.0559 32.5419L57.4744 36.501Z" fill="#3A6DE2"/>
<path id="Vector_4" d="M48.7994 24.2006L39.2087 33.793L36.4991 31.0852V15.5273L40.4582 26.9441L48.7994 24.2006Z" fill="#F1A261"/>
<path id="Vector_5" d="M48.7815 48.7798L40.4618 46.047L36.4991 57.4744V42.2378L39.3693 39.3694L48.7815 48.7798Z" fill="#FF40B1"/>
<path id="Vector_6" d="M42.0772 36.6616L39.3693 39.3694L36.5009 36.501H41.9165L42.0772 36.6616Z" fill="white"/>
<path id="Vector_7" d="M41.9165 36.501H36.5009L39.2087 33.7932L41.9165 36.501Z" fill="white"/>
<path id="Vector_8" d="M39.3693 39.3694L36.4991 42.2379V36.501H36.5009L39.3693 39.3694Z" fill="white"/>
<path id="Vector_9" d="M36.4991 31.0852L39.2087 33.793L36.5009 36.5008H36.4991V36.499V31.0852Z" fill="white"/>
<path id="Vector_10" d="M36.4991 42.2378V57.4744L32.5418 46.0559L24.2006 48.7994L33.6306 39.3694L36.4991 42.2378Z" fill="#FF6B03"/>
<path id="Vector_11" d="M36.4991 36.501V42.2379L33.6306 39.3694L36.4991 36.501Z" fill="white"/>
<path id="Vector_12" d="M36.4991 36.4992V36.501H31.0835L33.7931 33.7932L36.4991 36.4992Z" fill="white"/>
<path id="Vector_13" d="M36.4991 31.0852V36.499L33.7931 33.793L36.4991 31.0852Z" fill="white"/>
<path id="Vector_14" d="M36.4991 15.5273V31.0852L33.7931 33.793L24.2202 24.2202L32.54 26.9548L36.4991 15.5273Z" fill="#3AE09E"/>
<path id="Vector_15" d="M36.4991 36.501L33.6306 39.3694L30.9228 36.6616L31.0835 36.501H36.4991Z" fill="white"/>
<path id="Vector_16" d="M33.7931 33.7931L31.0835 36.5009H15.5256L26.953 32.5382L24.2202 24.2202L33.7931 33.7931Z" fill="#7B00A1"/>
<path id="Vector_17" d="M33.6306 39.3694L24.2006 48.7995L26.9441 40.4583L15.5256 36.501H31.0835L30.9228 36.6616L33.6306 39.3694Z" fill="#002F9B"/>
<g id="Group" opacity="0.5" filter="url(#filter0_d_47_261)">
<g id="Group_2">
<path id="Vector_18" d="M68.9554 36.5009L51.2716 42.6288L55.502 55.5038L42.6287 51.2734L36.4991 68.9572L30.3748 51.2895L17.4677 55.5342L21.7123 42.627L4.04462 36.5009L21.7284 30.3713L17.498 17.4981L30.3713 21.7285L36.5009 4.04468L42.6251 21.7124L55.5323 17.4659L51.2877 30.3731L68.9554 36.4992V36.5009ZM46.0452 40.4618L57.4726 36.5009L46.0541 32.5419L48.7976 24.2007L40.4546 26.9442L36.4973 15.5257L32.5364 26.9531L24.2167 24.2185L26.9513 32.5383L15.5238 36.4992L26.9423 40.4565L24.1988 48.7977L32.5418 46.0542L36.4991 57.4727L40.46 46.0452L48.7798 48.778L46.0452 40.4582V40.4618Z" fill="url(#paint0_linear_47_261)"/>
<path id="Vector_19" d="M57.4744 36.501L46.047 40.4618L48.7815 48.7798L39.3693 39.3694L42.0772 36.6616L41.9165 36.501H57.4744Z" fill="url(#paint1_linear_47_261)"/>
<path id="Vector_20" d="M57.4744 36.501H41.9165L39.2087 33.7932L48.8012 24.2007L46.0559 32.5419L57.4744 36.501Z" fill="url(#paint2_linear_47_261)"/>
<path id="Vector_21" d="M48.8012 24.2006L39.2087 33.793L36.5009 31.0852V15.5273L40.4582 26.9441L48.8012 24.2006Z" fill="url(#paint3_linear_47_261)"/>
<path id="Vector_22" d="M48.7815 48.7798L40.46 46.047L36.5009 57.4744V42.2378L39.3693 39.3694L48.7815 48.7798Z" fill="url(#paint4_linear_47_261)"/>
<path id="Vector_23" d="M42.0772 36.6616L39.3693 39.3694L36.5009 36.501H41.9165L42.0772 36.6616Z" fill="url(#paint5_linear_47_261)"/>
<path id="Vector_24" d="M41.9165 36.501H36.5009L39.2087 33.7932L41.9165 36.501Z" fill="url(#paint6_linear_47_261)"/>
<path id="Vector_25" d="M36.5009 36.501L39.3693 39.3694L36.5009 42.2379V36.501Z" fill="url(#paint7_linear_47_261)"/>
<path id="Vector_26" d="M39.2087 33.793L36.5009 36.5008V31.0852L39.2087 33.793Z" fill="url(#paint8_linear_47_261)"/>
<path id="Vector_27" d="M36.5009 42.2378V57.4744L32.5418 46.0559L24.2006 48.7994L33.6324 39.3694L36.5009 42.2378Z" fill="url(#paint9_linear_47_261)"/>
<path id="Vector_28" d="M36.5009 36.501V42.2379L33.6324 39.3694L36.4991 36.501H36.5009Z" fill="url(#paint10_linear_47_261)"/>
<path id="Vector_29" d="M36.5009 31.0852V36.5008L33.7931 33.793L36.5009 31.0852Z" fill="url(#paint11_linear_47_261)"/>
<path id="Vector_30" d="M36.5009 15.5273V31.0852L33.7931 33.793L24.2202 24.2202L32.54 26.9548L36.5009 15.5273Z" fill="url(#paint12_linear_47_261)"/>
<path id="Vector_31" d="M33.7931 33.7932L36.5009 36.501H36.4991H31.0853L33.7931 33.7932Z" fill="url(#paint13_linear_47_261)"/>
<path id="Vector_32" d="M36.4991 36.501L33.6324 39.3694L30.9228 36.6616L31.0853 36.501H36.4991Z" fill="url(#paint14_linear_47_261)"/>
<path id="Vector_33" d="M24.2202 24.2202L33.7931 33.7931L31.0853 36.5009H15.5256L26.9548 32.5382L24.2202 24.2202Z" fill="url(#paint15_linear_47_261)"/>
<path id="Vector_34" d="M33.6324 39.3694L24.2006 48.7995L26.9441 40.4583L15.5256 36.501H31.0853L30.9228 36.6616L33.6324 39.3694Z" fill="url(#paint16_linear_47_261)"/>
</g>
</g>
</g>
<defs>
<filter id="filter0_d_47_261" x="0.0446167" y="0.0446777" width="76.9108" height="76.9126" filterUnits="userSpaceOnUse" color-interpolation-filters="sRGB">
<feFlood flood-opacity="0" result="BackgroundImageFix"/>
<feColorMatrix in="SourceAlpha" type="matrix" values="0 0 0 0 0 0 0 0 0 0 0 0 0 0 0 0 0 0 127 0" result="hardAlpha"/>
<feOffset dx="2" dy="2"/>
<feGaussianBlur stdDeviation="3"/>
<feComposite in2="hardAlpha" operator="out"/>
<feColorMatrix type="matrix" values="0 0 0 0 0.109804 0 0 0 0 0.0901961 0 0 0 0 0.227451 0 0 0 1 0"/>
<feBlend mode="normal" in2="BackgroundImageFix" result="effect1_dropShadow_47_261"/>
<feBlend mode="normal" in="SourceGraphic" in2="effect1_dropShadow_47_261" result="shape"/>
</filter>
<linearGradient id="paint0_linear_47_261" x1="4.04462" y1="36.5009" x2="68.9554" y2="36.5009" gradientUnits="userSpaceOnUse">
<stop stop-color="white"/>
<stop offset="1" stop-color="#BEBEDD"/>
</linearGradient>
<linearGradient id="paint1_linear_47_261" x1="39.3693" y1="42.6413" x2="57.4744" y2="42.6413" gradientUnits="userSpaceOnUse">
<stop stop-color="white"/>
<stop offset="1" stop-color="#BEBEDD"/>
</linearGradient>
<linearGradient id="paint2_linear_47_261" x1="39.2087" y1="30.3517" x2="57.4744" y2="30.3517" gradientUnits="userSpaceOnUse">
<stop stop-color="white"/>
<stop offset="1" stop-color="#BEBEDD"/>
</linearGradient>
<linearGradient id="paint3_linear_47_261" x1="36.5009" y1="24.6593" x2="48.8012" y2="24.6593" gradientUnits="userSpaceOnUse">
<stop stop-color="white"/>
<stop offset="1" stop-color="#BEBEDD"/>
</linearGradient>
<linearGradient id="paint4_linear_47_261" x1="36.5009" y1="48.4228" x2="48.7815" y2="48.4228" gradientUnits="userSpaceOnUse">
<stop stop-color="white"/>
<stop offset="1" stop-color="#BEBEDD"/>
</linearGradient>
<linearGradient id="paint5_linear_47_261" x1="36.5009" y1="37.9361" x2="42.0772" y2="37.9361" gradientUnits="userSpaceOnUse">
<stop stop-color="white"/>
<stop offset="1" stop-color="#BEBEDD"/>
</linearGradient>
<linearGradient id="paint6_linear_47_261" x1="36.5009" y1="35.1462" x2="41.9165" y2="35.1462" gradientUnits="userSpaceOnUse">
<stop stop-color="white"/>
<stop offset="1" stop-color="#BEBEDD"/>
</linearGradient>
<linearGradient id="paint7_linear_47_261" x1="36.5009" y1="39.3694" x2="39.3693" y2="39.3694" gradientUnits="userSpaceOnUse">
<stop stop-color="white"/>
<stop offset="1" stop-color="#BEBEDD"/>
</linearGradient>
<linearGradient id="paint8_linear_47_261" x1="36.5009" y1="33.793" x2="39.2087" y2="33.793" gradientUnits="userSpaceOnUse">
<stop stop-color="white"/>
<stop offset="1" stop-color="#BEBEDD"/>
</linearGradient>
<linearGradient id="paint9_linear_47_261" x1="24.2006" y1="48.4228" x2="36.5009" y2="48.4228" gradientUnits="userSpaceOnUse">
<stop stop-color="white"/>
<stop offset="1" stop-color="#BEBEDD"/>
</linearGradient>
<linearGradient id="paint10_linear_47_261" x1="33.6324" y1="39.3694" x2="36.5009" y2="39.3694" gradientUnits="userSpaceOnUse">
<stop stop-color="white"/>
<stop offset="1" stop-color="#BEBEDD"/>
</linearGradient>
<linearGradient id="paint11_linear_47_261" x1="33.7931" y1="33.793" x2="36.5009" y2="33.793" gradientUnits="userSpaceOnUse">
<stop stop-color="white"/>
<stop offset="1" stop-color="#BEBEDD"/>
</linearGradient>
<linearGradient id="paint12_linear_47_261" x1="24.2202" y1="24.6593" x2="36.5009" y2="24.6593" gradientUnits="userSpaceOnUse">
<stop stop-color="white"/>
<stop offset="1" stop-color="#BEBEDD"/>
</linearGradient>
<linearGradient id="paint13_linear_47_261" x1="31.0853" y1="35.1462" x2="36.5009" y2="35.1462" gradientUnits="userSpaceOnUse">
<stop stop-color="white"/>
<stop offset="1" stop-color="#BEBEDD"/>
</linearGradient>
<linearGradient id="paint14_linear_47_261" x1="30.9228" y1="37.9361" x2="36.4991" y2="37.9361" gradientUnits="userSpaceOnUse">
<stop stop-color="white"/>
<stop offset="1" stop-color="#BEBEDD"/>
</linearGradient>
<linearGradient id="paint15_linear_47_261" x1="15.5256" y1="30.3605" x2="33.7931" y2="30.3605" gradientUnits="userSpaceOnUse">
<stop stop-color="white"/>
<stop offset="1" stop-color="#BEBEDD"/>
</linearGradient>
<linearGradient id="paint16_linear_47_261" x1="15.5256" y1="42.6502" x2="33.6324" y2="42.6502" gradientUnits="userSpaceOnUse">
<stop stop-color="white"/>
<stop offset="1" stop-color="#BEBEDD"/>
</linearGradient>
</defs>
</svg>
