<?xml version="1.0" encoding="UTF-8"?>
<svg xmlns="http://www.w3.org/2000/svg" xmlns:xlink="http://www.w3.org/1999/xlink" viewBox="0 0 450 500">
  <defs>
    <style>
      .cls-1 {
        fill: #fff;
      }

      .cls-2 {
        fill: #af00e5;
      }

      .cls-3 {
        fill: #ddacf2;
      }

      .cls-4 {
        fill: #dd98f2;
      }

      .cls-5 {
        fill: #4e185f;
      }

      .cls-6 {
        fill: #6d4245;
      }

      .cls-7 {
        fill: #a98474;
      }

      .cls-8 {
        fill: #987764;
      }

      .cls-9 {
        fill: #290d32;
      }

      .cls-10 {
        fill: #a0776a;
      }

      .cls-11 {
        fill: #9000bd;
      }

      .cls-12 {
        fill: #885d51;
      }

      .cls-13 {
        fill: #7f5a4c;
      }

      .cls-14 {
        fill: url(#linear-gradient);
      }

      .cls-15 {
        fill: #430057;
      }

      .cls-16 {
        fill: #91685d;
      }

      .cls-17 {
        fill: #7b00a1;
      }
    </style>
    <linearGradient id="linear-gradient" x1="48.63" y1="391.92" x2="402.22" y2="391.92" gradientUnits="userSpaceOnUse">
      <stop offset="0" stop-color="#dd98f2"/>
      <stop offset=".1" stop-color="#db92f2"/>
      <stop offset=".22" stop-color="#d884f2"/>
      <stop offset=".35" stop-color="#d26bf2"/>
      <stop offset=".48" stop-color="#ca49f2"/>
      <stop offset=".53" stop-color="#c73df2"/>
      <stop offset=".53" stop-color="#c73df2"/>
      <stop offset=".61" stop-color="#cf5ef2"/>
      <stop offset=".7" stop-color="#d577f2"/>
      <stop offset=".79" stop-color="#d989f2"/>
      <stop offset=".89" stop-color="#dc94f2"/>
      <stop offset="1" stop-color="#dd98f2"/>
    </linearGradient>
  </defs>
  <g id="Layer_3" data-name="Layer 3">
    <path class="cls-1" d="m225,54c29.84,0,58.78,5.84,86.02,17.37,26.32,11.13,49.95,27.07,70.25,47.36,20.3,20.3,36.23,43.93,47.36,70.25,11.52,27.24,17.37,56.19,17.37,86.02s-5.84,58.78-17.37,86.02c-11.13,26.32-27.07,49.95-47.36,70.25-20.3,20.3-43.93,36.23-70.25,47.36-27.24,11.52-56.19,17.37-86.02,17.37s-58.78-5.84-86.02-17.37c-26.32-11.13-49.95-27.07-70.25-47.36-20.3-20.3-36.23-43.93-47.36-70.25-11.52-27.24-17.37-56.19-17.37-86.02s5.84-58.78,17.37-86.02c11.13-26.32,27.07-49.95,47.36-70.25,20.3-20.3,43.93-36.23,70.25-47.36,27.24-11.52,56.19-17.37,86.02-17.37m0-4C100.74,50,0,150.74,0,275s100.74,225,225,225,225-100.74,225-225S349.26,50,225,50h0Z"/>
  </g>
  <g id="Layer_4" data-name="Layer 4">
    <g>
      <path class="cls-4" d="m431.67,276.11c0,30.47-6.59,59.4-18.44,85.44h-.01l-35.53,1.54-.02-.42-.67-42.23-22.21-68.46,3.77-.87-3.56-13.11-2.93.55-4.63-62.33-23.19-81.43c64.02,35.12,107.42,103.15,107.42,181.32Z"/>
      <path class="cls-10" d="m321.73,348.39l11.97,6.37,10.72,5.72,7.02,3.74,15.58-.67,10.67-.46,35.53-1.54h.01c-3.27,7.22-6.95,14.21-11.01,20.95l-.91-.54-78,26-40.56-13.34-25.78-1.66,2.34,26.33,31,22.33-21,10.34-31.78-16-3.09-123.24,6.14-.08,23.75-.31,30.39-40.97.11.08-4.27,60.34,11.78,6.27,8.39,4.48,11,5.86Zm25.94,29.72l-6.34-8-81.33,4.33,4.67,7,83-3.33Zm-98-25.67l21.33-35.66-13.33,12.33-8,23.33Z"/>
      <path class="cls-14" d="m401.31,381.96l.91.54c-5.66,9.42-12.06,18.35-19.1,26.71l-.12-.1-60,23.11-38.22-25.11-3.11,7,33.33,26-5.67,11.67-46.33,19.33-38-19.33-42.33,14-44-24,32.55-28.23-1.22-5.11-32,18.67-70.54-17.22c-6.92-8.15-13.23-16.84-18.83-26l86.01,23.4,36.78-14.44,26.39,2.11-5.34,24.5-26.16,21,21,8.33,29-12.06,1.8-123.8,16.33-.21,3.09,123.24,31.78,16,21-10.34-31-22.33-2.34-26.33,25.78,1.66,40.56,13.34,78-26Z"/>
      <path class="cls-8" d="m383,409.11l.12.1c-37.92,44.99-94.68,73.57-158.12,73.57s-119.63-28.29-157.54-72.89l70.54,17.22,32-18.67,1.22,5.11-32.55,28.23,44,24,42.33-14,38,19.33,46.33-19.33,5.67-11.67-33.33-26,3.11-7,38.22,25.11,60-23.11Z"/>
      <polygon class="cls-17" points="377.67 362.67 377.69 363.09 367.02 363.55 367 363.11 366.33 326.89 341.89 259.78 341.54 255.05 354.79 251.98 377 320.44 377.67 362.67"/>
      <polygon class="cls-15" points="367 363.11 367.02 363.55 351.44 364.22 344.42 360.48 344.56 360.22 348.56 343.78 341.44 285.55 325.93 226.37 333.67 224.94 337.97 206.21 340.49 240.71 338.33 241.11 337.44 256 341.54 255.05 341.89 259.78 366.33 326.89 367 363.11"/>
      <polygon class="cls-3" points="355 238 358.56 251.11 354.79 251.98 352.56 245.11 352.07 238.55 355 238"/>
      <polygon class="cls-3" points="352.56 245.11 354.79 251.98 341.54 255.05 340.49 240.71 352.07 238.55 352.56 245.11"/>
      <path class="cls-17" d="m347.44,176.22l4.63,62.33-11.58,2.16-2.52-34.5,1.86-8.1-5.5-33.17-3.91-1.46.14-.37-15.78-47.11h-.12l-.42-25.64.29-.57c3.29,1.58,6.53,3.25,9.72,5l23.19,81.43Z"/>
      <polygon class="cls-2" points="341.44 285.55 348.56 343.78 344.56 360.22 344.42 360.48 333.7 354.76 337.67 335.11 329 278.44 314.83 244.44 314.74 244.38 316.67 241.78 316.45 228.11 316.5 228.11 325.93 226.37 341.44 285.55"/>
      <polygon class="cls-7" points="341.33 370.11 347.67 378.11 264.67 381.44 260 374.44 341.33 370.11"/>
      <polygon class="cls-3" points="340.49 240.71 341.54 255.05 337.44 256 338.33 241.11 340.49 240.71"/>
      <polygon class="cls-13" points="337.97 206.21 333.67 224.94 325.93 226.37 316.5 228.11 316.45 228.11 315.46 166.27 315.46 166.26 315.37 160.94 315.33 158.12 316 158.11 330.42 163.48 334.33 164.94 339.83 198.11 337.97 206.21"/>
      <polygon class="cls-17" points="329 278.44 337.67 335.11 333.7 354.76 321.73 348.39 323.6 339.46 326.33 340.67 327.67 321.55 324.89 321.52 323.67 301.11 311.22 249.33 311.12 249.26 314.74 244.38 314.83 244.44 329 278.44"/>
      <polygon class="cls-15" points="314.78 116 330.56 163.11 330.42 163.48 316 158.11 315.33 158.12 314.66 116 314.78 116"/>
      <polygon class="cls-3" points="327.67 321.55 326.33 340.67 323.6 339.46 325.44 330.67 324.89 321.52 327.67 321.55"/>
      <polygon class="cls-3" points="324.89 321.52 325.44 330.67 323.6 339.46 311.93 334.27 313.76 321.38 324.89 321.52"/>
      <polygon class="cls-15" points="323.67 301.11 324.89 321.52 313.76 321.38 314.11 318.89 310.78 285.33 305.17 257.53 305.05 257.44 311.12 249.26 311.22 249.33 323.67 301.11"/>
      <path class="cls-17" d="m319.78,79.11l4.47,15.68c-3.19-1.75-6.43-3.42-9.72-5l5.25-10.68Z"/>
      <polygon class="cls-15" points="311.93 334.27 323.6 339.46 321.73 348.39 310.73 342.53 310.78 342.44 311.93 334.27"/>
      <path class="cls-17" d="m317.22,68.78l2.56,10.33-5.25,10.68c-.1-.05-.2-.1-.3-.14l-.23-14.54-8.54-9.03.72-3.04-.04-.11c.23-1,.38-1.57.42-1.57.33,0,10.66,7.42,10.66,7.42Z"/>
      <path class="cls-16" d="m301.08,262.79l-6.36,8.57-30.39,40.97-23.75.31v-.2l-.86-26.71,3.28.05s5.61-5.67,5.33-5.67c-.08,0-3.71.02-8.79.05l-.3-9.29,12.43-.93,7.86-6.51,13.47-11.15-24.22-8.17-10.39.54-.5-15.51,23.44-3.7-.33-13-8.5-8.5-11.33-35.83,29.16-17.78,45.13,15.93h0s.99,61.85.99,61.85l.22,13.67-1.93,2.6-3.62,4.88-6.07,8.18-3.97,5.35Zm6.42-45.18s.67-13.17.17-13.17-36.34.5-36.34.5v10.5l36.17,2.17Zm-20.28-32.94l12.89-11.34-16.89-8.78-1.41.13-14.48,1.38-.55.05-12.45,13,17.56,10.22,15.33-4.66Zm-1.28,63.77l-4.27-17-10.17-6.83,14.44,23.83Z"/>
      <polygon class="cls-15" points="315.37 160.94 315.46 166.26 270.33 150.33 241.17 168.11 246.5 150.28 271.67 138.89 315.37 160.94"/>
      <path class="cls-10" d="m205.31,168.92l-4.09-19.25-27.28-9.11-43.11,22.11h-.2s-.08-2.06-.08-2.06l-.65-17.64-.94-25.45-.56-15.09,1.35-3.07,11.03,1.86-1.11-8.11-3.03-3.88c1.91-.91,3.84-1.79,5.78-2.64l5.36,9.41,7.44-1.78-4.54-11.01c2.17-.84,4.36-1.64,6.56-2.41l3.32,9.09,6.44.55,5.67-7.11-2.53-6.53c1.67-.46,3.35-.9,5.04-1.32l1.49,6.52,5.66,3.55,6-4.88c-.02-.14-.62-3.19-1.51-7.7,1.89-.36,3.79-.69,5.7-.99l.81,7.24,9.11,3.56,7.23-5.67-.68-7.06c2.19-.17,4.39-.3,6.6-.4-.01,3.6-.03,5.9-.03,5.9l4.44,5.34,11-.22,4.44-5.89-.3-5.09c2.06.09,4.12.22,6.17.38l.02,4.48,10.56,7.89,6.44-5.11-.12-5.23c2.05.33,4.09.69,6.12,1.08-.33,6.21-.55,10.6-.55,10.82l10.11,3.89,2.67-5,1.03-6.69c1.18.3,2.36.62,3.53.95-1.4,6.31-2.46,11-2.56,11.18l4,5.22,9.66,1.78,2.81-13.72c2.25.81,4.49,1.66,6.7,2.54-1.59,7.87-2.95,14.74-2.95,14.74l.66,3.44,6.78,4.34,8.02-16.31.42,25.64.67,42.12.04,2.82-43.7-22.05-25.17,11.39-5.33,17.83,11.33,35.83,8.5,8.5.33,13-22.5-13.5-1.5.05-3.22-99.55-10.22-17.77-12.67,19.77.92,98.36-4.31.14-18.66,14.84,1-15.67,8.83-6.83,6.29-36.36h.02Z"/>
      <path class="cls-17" d="m314.23,89.65v.71s-8.01,16.31-8.01,16.31l-6.78-4.34-.66-3.44s1.36-6.87,2.95-14.74c4.24,1.7,8.41,3.53,12.5,5.5Z"/>
      <path class="cls-17" d="m314,75.11l.23,14.54c-4.09-1.97-8.26-3.8-12.5-5.5,1.29-6.42,2.74-13.5,3.71-18.04h.01s.01-.03.01-.03l8.54,9.03Z"/>
      <polygon class="cls-5" points="310.78 285.33 314.11 318.89 313.76 321.38 309.67 321.33 308.33 332.67 311.93 334.27 310.78 342.44 310.73 342.53 302.34 338.05 302.78 305.33 301.08 262.79 305.05 257.44 305.17 257.53 310.78 285.33"/>
      <polygon class="cls-3" points="313.76 321.38 311.93 334.27 308.33 332.67 309.67 321.33 313.76 321.38"/>
      <path class="cls-2" d="m307.67,204.44c.5,0-.17,13.17-.17,13.17l-36.17-2.17v-10.5s35.84-.5,36.34-.5Z"/>
      <path class="cls-17" d="m306.14,62.93l.04.11-.72,3.04h-.01c.27-1.28.5-2.35.69-3.15Z"/>
      <path class="cls-15" d="m301.44,50.33l4.7,12.6c-.19.8-.42,1.87-.69,3.14l-3.17-3.34-2.77-2.97,1.93-9.43Z"/>
      <path class="cls-5" d="m305.46,66.08v.04s-.02-.01-.02-.01c0-.01,0-.02.01-.03h.01Z"/>
      <path class="cls-15" d="m305.45,66.07h0s-.01.03-.01.04l-3.16-3.38,3.17,3.34Z"/>
      <path class="cls-10" d="m302.28,62.73l3.16,3.38c-.97,4.54-2.42,11.62-3.71,18.04-2.21-.88-4.45-1.73-6.7-2.54l4.47-21.82,2.78,2.94Z"/>
      <polygon class="cls-17" points="301.08 262.79 302.78 305.33 302.34 338.05 290.56 331.78 294.83 271.44 294.72 271.36 301.08 262.79"/>
      <polygon class="cls-15" points="301.44 50.33 299.51 59.76 298.36 58.53 301.44 50.33"/>
      <path class="cls-15" d="m288.47,44.37c.24-.95.38-1.48.42-1.48.33,0,12.55,7.44,12.55,7.44l-3.08,8.2,1.15,1.23v.03s-11.75-12.4-11.75-12.4c.28-1.23.52-2.26.71-3.02Z"/>
      <polygon class="cls-1" points="300.11 173.33 287.22 184.67 271.89 189.33 254.33 179.11 266.78 166.11 267.33 166.06 267.33 166.11 264.78 175.78 271.17 183.61 282.33 180.67 286.83 174.28 281.83 164.94 281.81 164.68 283.22 164.55 300.11 173.33"/>
      <path class="cls-15" d="m299.5,59.79l-4.47,21.82c-4.56-1.65-9.2-3.14-13.91-4.46,2.13-9.58,5.05-22.89,6.64-29.76l11.74,12.4Z"/>
      <path class="cls-15" d="m295.03,81.61l-2.81,13.72-9.66-1.78-4-5.22c.1-.18,1.16-4.87,2.56-11.18,4.71,1.32,9.35,2.81,13.91,4.46Z"/>
      <path class="cls-5" d="m284.22,33.22l4.25,11.15c-.19.76-.43,1.79-.71,3.02l-4.92-5.21,1.38-8.96Z"/>
      <path class="cls-10" d="m282.84,42.18l4.92,5.21c-1.59,6.87-4.51,20.18-6.64,29.76-1.17-.33-2.35-.65-3.53-.95l5.25-34.02Z"/>
      <polygon class="cls-9" points="281.83 164.94 286.83 174.28 282.33 180.67 271.17 183.61 264.78 175.78 267.33 166.11 267.33 166.06 281.81 164.68 281.83 164.94"/>
      <polygon class="cls-12" points="281.67 231.44 285.94 248.44 271.5 224.61 281.67 231.44"/>
      <path class="cls-5" d="m284.22,33.22l-1.38,8.96-10.17-10.74-6.13.02c.08-1.56.13-2.46.13-2.46,0,0,9.22-4,9.55-3.89.34.11,8,8.11,8,8.11Z"/>
      <path class="cls-5" d="m282.84,42.18l-5.25,34.02c-4.36-1.15-8.78-2.16-13.26-3.02.69-13.17,1.83-34.52,2.21-41.72l6.13-.02,10.17,10.74Z"/>
      <path class="cls-5" d="m277.59,76.2l-1.03,6.69-2.67,5-10.11-3.89c0-.22.22-4.61.55-10.82,4.48.86,8.9,1.87,13.26,3.02Z"/>
      <polygon class="cls-1" points="273 252.28 259.53 263.43 259.44 263.33 240.06 260.61 238.9 260.62 238.73 255.18 244.67 255.11 273 252.28"/>
      <polygon class="cls-13" points="273 252.28 244.67 255.11 238.73 255.18 238.39 244.65 248.78 244.11 273 252.28"/>
      <polygon class="cls-7" points="271 316.78 249.67 352.44 257.67 329.11 271 316.78"/>
      <path class="cls-10" d="m257.3,31.5l9.24-.04c-.38,7.2-1.52,28.55-2.21,41.72-2.03-.39-4.07-.75-6.12-1.08l-.91-40.6Z"/>
      <polygon class="cls-6" points="261.33 225.44 237.89 229.14 237.33 211.99 238.83 211.94 261.33 225.44"/>
      <polygon class="cls-9" points="259.44 263.33 259.53 263.43 251.67 269.94 239.24 270.87 238.9 260.62 240.06 260.61 259.44 263.33"/>
      <path class="cls-5" d="m258.21,72.1l.12,5.23-6.44,5.11-10.56-7.89-.02-4.48c5.7.45,11.34,1.13,16.9,2.03Z"/>
      <path class="cls-5" d="m257.3,31.5l.91,40.6c-5.56-.9-11.2-1.58-16.9-2.03l-.18-38.5,16.17-.07Z"/>
      <polygon class="cls-5" points="257.22 27.78 257.3 31.5 241.13 31.57 241.11 27.55 251.89 23 257.22 27.78"/>
      <path class="cls-13" d="m248.33,280.11c.28,0-5.33,5.67-5.33,5.67l-3.28-.05-.18-5.57c5.08-.03,8.71-.05,8.79-.05Z"/>
      <path class="cls-10" d="m241.13,31.57l.18,38.5c-2.05-.16-4.11-.29-6.17-.38l-2.28-38.09,8.27-.03Z"/>
      <polygon class="cls-2" points="240.58 312.44 240.58 312.64 234.44 312.72 234.44 312.71 218.11 312.87 218.11 312.93 213.08 313 213.08 312.94 212.82 285.31 239.72 285.73 240.58 312.44"/>
      <path class="cls-5" d="m239.54,280.16l.18,5.57-26.9-.42-.05-4.98c7-.05,18.71-.12,26.77-.17Z"/>
      <path class="cls-11" d="m239.24,270.87l.3,9.29c-8.06.05-19.77.12-26.77.17l-.09-9.96,12.32,1.57,14.24-1.07Z"/>
      <polygon class="cls-9" points="238.9 260.62 239.24 270.87 225 271.94 212.68 270.37 212.59 261.13 214.22 260.89 238.9 260.62"/>
      <polygon class="cls-1" points="238.73 255.18 238.9 260.62 214.22 260.89 212.59 261.13 212.54 255.51 238.73 255.18"/>
      <polygon class="cls-13" points="238.39 244.65 238.73 255.18 212.54 255.51 212.45 246 238.39 244.65"/>
      <polygon class="cls-2" points="237.89 229.14 238.39 244.65 212.45 246 212.3 230.08 224.33 231.28 237.89 229.14"/>
      <polygon class="cls-11" points="237.33 211.99 237.89 229.14 224.33 231.28 212.3 230.08 212.14 212.8 237.33 211.99"/>
      <polygon class="cls-4" points="234.11 112.44 237.33 211.99 212.14 212.8 211.22 114.44 223.89 94.67 234.11 112.44"/>
      <path class="cls-17" d="m235.14,69.69l.3,5.09-4.44,5.89-11,.22-4.44-5.34s.02-2.3.03-5.9c3.12-.14,6.26-.21,9.41-.21,3.4,0,6.78.08,10.14.25Z"/>
      <path class="cls-17" d="m232.86,31.6l2.28,38.09c-3.36-.17-6.74-.25-10.14-.25-3.15,0-6.29.07-9.41.21.07-9.66.2-28.7.26-37.98l17.01-.07Z"/>
      <polygon class="cls-2" points="234.44 312.71 234.44 312.72 218.11 312.93 218.11 312.87 234.44 312.71"/>
      <path class="cls-17" d="m232.56,26.55l.3,5.05-17.01.07c.03-3.22.04-5.27.04-5.34l9.11-3.89,7.56,4.11Z"/>
      <path class="cls-10" d="m158.05,334.61l3.62-1.94-5.37-50.96-1-9.51,32.03,41.13,25.75-.33,5.03-.07-1.8,123.8-29,12.06-21-8.33,26.16-21,5.34-24.5-26.39-2.11-36.78,14.44-86.01-23.4c-2.48-4.04-4.82-8.18-7.02-12.4l25.88-2.77,11.31-1.21,10.22-1.1,12.2-1.3,3.89-2.09,13.57-7.28,12.72-6.83,18.09-9.7,8.56-4.6Zm36.27,20.15c-.22-.87-7.33-28.67-7.65-29.65-.34-1-11.67-10-11.67-10v1.33l19.32,38.32Zm-2.99,30.68l-1-9.66-71-5.34v8l72,7Z"/>
      <path class="cls-10" d="m205.31,31.71l10.54-.04c-.06,9.28-.19,28.32-.26,37.98-2.21.1-4.41.23-6.6.4l-3.68-38.34Z"/>
      <path class="cls-16" d="m135.18,246.38l-1.51-1.94-.69-18.52-2.15-57.8,44.34-16.29,30.12,17.09-6.29,36.36-8.83,6.83-1,15.67,23.13,2.3.15,15.92-6.23.33-25.66,8,14.43,9.57,7.84,5.21,9.85,1.26.09,9.96c-3.59.02-5.94.03-5.94.03l4.25,4.92,1.74.03.26,27.63v.06l-25.75.33-32.03-41.13-9.12-11.7-11-14.12Zm26.63-79.8l-2.03-.03-16.22,10.78,14.66,10.45,17.89,2.89,16.67-11.12-11.77-8.56-5.79-4.21-13.41-.2Zm6.08,84.97l13.39-25.11-10.61,11.45-2.78,13.66Zm10.11-35.94l.67-13.33-33.5,2.5.16,10.16,32.67.67Z"/>
      <path class="cls-13" d="m212.77,280.33l.05,4.98-1.74-.03-4.25-4.92s2.35-.01,5.94-.03Z"/>
      <polygon class="cls-9" points="212.59 261.13 212.68 270.37 202.83 269.11 194.99 263.9 195.11 263.72 212.59 261.13"/>
      <polygon class="cls-1" points="212.54 255.51 212.59 261.13 195.11 263.72 194.99 263.9 180.56 254.33 209.33 255.55 212.54 255.51"/>
      <polygon class="cls-13" points="212.45 246 212.54 255.51 209.33 255.55 180.56 254.33 206.22 246.33 212.45 246"/>
      <polygon class="cls-6" points="212.14 212.8 212.3 230.08 189.17 227.78 207.83 212.94 212.14 212.8"/>
      <path class="cls-17" d="m208.99,70.05l.68,7.06-7.23,5.67-9.11-3.56-.81-7.24c5.42-.86,10.91-1.5,16.47-1.93Z"/>
      <path class="cls-17" d="m205.31,31.71l3.68,38.34c-5.56.43-11.05,1.07-16.47,1.93l-4.47-40.2,17.26-.07Z"/>
      <polygon class="cls-15" points="201.22 149.67 205.31 168.92 205.29 168.92 175.17 151.83 130.83 168.12 130.63 162.68 130.83 162.67 173.94 140.56 201.22 149.67"/>
      <path class="cls-17" d="m205,28.44l.31,3.27-17.26.07-.83-7.45s8.89-2.78,9.56-2.78,8.22,6.89,8.22,6.89Z"/>
      <path class="cls-7" d="m194.32,354.76l-19.32-38.32v-1.33s11.33,9,11.67,10c.32.98,7.43,28.78,7.65,29.65Z"/>
      <polygon class="cls-1" points="192.78 179.55 176.11 190.67 158.22 187.78 143.56 177.33 159.78 166.55 161.81 166.58 159.5 175.5 163.17 182 172.44 185 180.17 180.67 181 171 181.01 170.99 192.78 179.55"/>
      <path class="cls-10" d="m188.05,31.78l4.47,40.2c-1.91.3-3.81.63-5.7.99-1.9-9.67-5.12-26.07-6.85-34.9l7.36-6.29h.72Z"/>
      <polygon class="cls-7" points="190.33 375.78 191.33 385.44 119.33 378.44 119.33 370.44 190.33 375.78"/>
      <path class="cls-2" d="m188.33,80.67l-6,4.88-5.66-3.55-1.49-6.52c3.84-.95,7.72-1.79,11.64-2.51.89,4.51,1.49,7.56,1.51,7.7Z"/>
      <path class="cls-2" d="m179.97,38.07c1.73,8.83,4.95,25.23,6.85,34.9-3.92.72-7.8,1.56-11.64,2.51l-6.37-27.87,11.16-9.54Z"/>
      <polygon class="cls-12" points="181.28 226.44 167.89 251.55 170.67 237.89 181.28 226.44"/>
      <polygon class="cls-9" points="181.01 170.99 181 171 180.17 180.67 172.44 185 163.17 182 159.5 175.5 161.81 166.58 175.22 166.78 181.01 170.99"/>
      <path class="cls-2" d="m179.97,38.07l-11.16,9.54-1.81-7.94,3-8.45,8.78.78s.47,2.37,1.19,6.07Z"/>
      <polygon class="cls-2" points="178.67 202.28 178 215.61 145.33 214.94 145.17 204.78 178.67 202.28"/>
      <path class="cls-10" d="m168.81,47.61l6.37,27.87c-1.69.42-3.37.86-5.04,1.32l-8.83-22.78,7.5-6.41Z"/>
      <path class="cls-2" d="m170.14,76.8l2.53,6.53-5.67,7.11-6.44-.55-3.32-9.09c4.24-1.47,8.54-2.8,12.9-4Z"/>
      <path class="cls-2" d="m161.31,54.02l8.83,22.78c-4.36,1.2-8.66,2.53-12.9,4l-6.48-17.76,10.55-9.02Z"/>
      <polygon class="cls-15" points="156.3 281.71 161.67 332.67 158.05 334.61 151.83 303.94 156.3 281.71"/>
      <polygon class="cls-2" points="157.56 44.33 161.31 54.02 150.76 63.04 148.67 57.33 148.89 48.78 157.56 44.33"/>
      <polygon class="cls-17" points="151.83 303.94 158.05 334.61 149.49 339.21 149.44 339.11 141 309.94 146.08 260.57 146.18 260.5 155.3 272.2 156.3 281.71 151.83 303.94"/>
      <path class="cls-10" d="m150.76,63.04l6.48,17.76c-2.2.77-4.39,1.57-6.56,2.41l-2.79-6.77c0-.19-1.61-3.86-3.46-7.98l6.33-5.42Z"/>
      <path class="cls-17" d="m150.68,83.21l4.54,11.01-7.44,1.78-5.36-9.41c2.72-1.18,5.48-2.31,8.26-3.38Z"/>
      <path class="cls-2" d="m150.76,63.04l-6.33,5.42c-1.3-2.9-2.71-6.03-3.75-8.34h.03s8.18-11.34,8.18-11.34l-.22,8.55,2.09,5.71Z"/>
      <path class="cls-17" d="m147.89,76.44l2.79,6.77c-2.78,1.07-5.54,2.2-8.26,3.38l-6.13-10.74.96-.82-.13-.33,7.31-6.24c1.85,4.12,3.46,7.79,3.46,7.98Z"/>
      <polygon class="cls-15" points="149.44 339.11 149.49 339.21 131.4 348.91 131.33 348.78 136.83 316.78 135.18 246.38 146.18 260.5 146.08 260.57 141 309.94 149.44 339.11"/>
      <path class="cls-17" d="m144.43,68.46l-7.31,6.24-5.01-12.92,7-5.11s.63,1.4,1.57,3.45c1.04,2.31,2.45,5.44,3.75,8.34Z"/>
      <path class="cls-10" d="m136.29,75.85l6.13,10.74c-1.94.85-3.87,1.73-5.78,2.64l-6.4-8.22,6.05-5.16Z"/>
      <path class="cls-17" d="m139.67,93.11l1.11,8.11-11.03-1.86-1.35,3.07-.33-8.9c2.82-1.5,5.68-2.93,8.57-4.3l3.03,3.88Z"/>
      <polygon class="cls-17" points="137.12 74.7 137.25 75.03 136.29 75.85 136.12 75.56 137.12 74.7"/>
      <polygon class="cls-17" points="132.11 61.78 137.12 74.7 136.12 75.56 134.22 72.22 132.11 61.78"/>
      <polygon class="cls-2" points="135.18 246.38 136.83 316.78 131.33 348.78 131.4 348.91 118.68 355.74 124.67 318.11 121.84 224.82 132.98 225.92 133.67 244.44 135.18 246.38"/>
      <path class="cls-17" d="m130.24,81.01l6.4,8.22c-2.89,1.37-5.75,2.8-8.57,4.3l-.4-10.75,1.73-1.48-.07.48.91-.77Z"/>
      <polygon class="cls-17" points="136.12 75.56 136.29 75.85 130.24 81.01 130.04 80.75 136.12 75.56"/>
      <polygon class="cls-17" points="134.22 72.22 136.12 75.56 130.04 80.75 129.67 80.28 129.52 80.4 132.11 61.78 134.22 72.22"/>
      <polygon class="cls-13" points="121.84 224.82 119.67 224.61 111.43 206.18 109.83 202.61 110.33 174.61 124.25 164.95 130.5 160.61 130.55 160.61 130.63 162.68 130.83 168.12 132.98 225.92 121.84 224.82"/>
      <polygon class="cls-2" points="129.9 142.97 130.55 160.61 130.5 160.61 124.25 164.95 123.89 164.44 129.9 142.97"/>
      <polygon class="cls-17" points="130.04 80.75 130.24 81.01 129.33 81.78 129.4 81.3 130.04 80.75"/>
      <polygon class="cls-17" points="130.04 80.75 129.4 81.3 129.52 80.4 129.67 80.28 130.04 80.75"/>
      <polygon class="cls-15" points="128.96 117.52 129.9 142.97 123.89 164.44 124.25 164.95 110.33 174.61 109.83 202.61 111.43 206.18 111 245.33 111.67 305.55 110.84 312.17 98.27 310.8 99 306.44 100.56 250.22 96.78 208.67 96.59 208.66 97.89 191.33 128.96 117.52"/>
      <path class="cls-17" d="m120.67,87.78l8.85-7.38-.12.9-1.73,1.48.4,10.75c-3.2,1.7-6.35,3.49-9.44,5.35l2.04-11.1Z"/>
      <polygon class="cls-17" points="128.4 102.43 128.96 117.52 97.89 191.33 96.59 208.66 92.51 262.99 80.96 258.55 86.78 195.11 110.97 140.66 110.56 142.89 128.4 102.43"/>
      <path class="cls-17" d="m110.97,140.66l7.66-41.78c3.09-1.86,6.24-3.65,9.44-5.35l.33,8.9-17.84,40.46.41-2.23Z"/>
      <polygon class="cls-17" points="121.84 224.82 124.67 318.11 118.68 355.74 105.11 363.02 104.56 362 108.79 328.43 114.33 329.33 115.44 312.67 110.84 312.17 111.67 305.55 111 245.33 111.43 206.18 119.67 224.61 121.84 224.82"/>
      <path class="cls-4" d="m118.63,98.88l-7.66,41.78-24.19,54.45-5.82,63.44-3.74-1.44-1.11,16.44,3.42.6-.31,3.4-11.78,90.67.05.5-25.88,2.77c-14.87-28.54-23.28-60.98-23.28-95.38,0-75.24,40.2-141.09,100.3-177.23Z"/>
      <polygon class="cls-3" points="115.44 312.67 114.33 329.33 108.79 328.43 110.84 312.17 115.44 312.67"/>
      <polygon class="cls-3" points="110.84 312.17 108.79 328.43 95.68 326.29 98.27 310.8 110.84 312.17"/>
      <polygon class="cls-15" points="108.79 328.43 104.56 362 105.11 363.02 101.22 365.11 89.02 366.41 89 366.22 95.68 326.29 108.79 328.43"/>
      <polygon class="cls-2" points="96.78 208.67 100.56 250.22 99 306.44 98.27 310.8 95 310.44 92.56 325.78 95.68 326.29 89 366.22 89.02 366.41 78.8 367.51 78.78 367.33 91 283.11 91.51 276.25 93.89 276.67 94.56 263.78 92.51 262.99 96.59 208.66 96.78 208.67"/>
      <polygon class="cls-3" points="98.27 310.8 95.68 326.29 92.56 325.78 95 310.44 98.27 310.8"/>
      <polygon class="cls-3" points="94.56 263.78 93.89 276.67 91.51 276.25 92.51 262.99 94.56 263.78"/>
      <polygon class="cls-3" points="92.51 262.99 91.51 276.25 79.53 274.15 80.96 258.55 92.51 262.99"/>
      <polygon class="cls-17" points="91.51 276.25 91 283.11 78.78 367.33 78.8 367.51 67.49 368.72 67.44 368.22 79.22 277.55 79.53 274.15 91.51 276.25"/>
      <polygon class="cls-3" points="80.96 258.55 79.53 274.15 76.11 273.55 77.22 257.11 80.96 258.55"/>
    </g>
  </g>
</svg>