<?xml version="1.0" encoding="UTF-8"?>
<svg xmlns="http://www.w3.org/2000/svg" viewBox="0 0 500 500">
  <defs>
    <style>
      .cls-1 {
        fill: #fff;
      }

      .cls-2 {
        fill: #ffba5b;
      }

      .cls-3 {
        fill: #fdba6e;
      }

      .cls-4 {
        fill: #d39aff;
      }

      .cls-5 {
        fill: #fdb95c;
      }

      .cls-6 {
        fill: #fbd8ab;
      }

      .cls-7 {
        fill: #e8b16b;
      }

      .cls-8 {
        fill: #f6e4cd;
      }

      .cls-9 {
        fill: #fdca85;
      }

      .cls-10 {
        fill: #ff9a05;
      }

      .cls-11 {
        fill: #cd8ded;
      }

      .cls-12 {
        fill: #e2c1ff;
      }

      .cls-13 {
        fill: #e8880e;
      }

      .cls-14 {
        fill: #e29d46;
      }

      .cls-15 {
        fill: #bf7304;
      }

      .cls-16 {
        fill: #d9b2ed;
      }

      .cls-17 {
        fill: #e8a248;
      }

      .cls-18 {
        fill: #fdf6ee;
      }

      .cls-19 {
        fill: #feedd6;
      }
    </style>
  </defs>
  <g id="Layer_3" data-name="Layer 3">
    <rect class="cls-16" width="500" height="500"/>
  </g>
  <g id="Layer_1" data-name="Layer 1">
    <g>
      <path class="cls-9" d="m500,449.98v50.02H0v-49.59l12.02,14.92,16.41-33.28,20.04,32.44,7.37-42.79,17.99,44.65,19.48-30.95,21.72,30.67,11.62-17.86,3.05,12.17,9.49.44,8.69.4,2.21.6-1.54,5.62,5.87.6-1.14,7.81,8.22.49-.15-7.16,5.08,1.46,1.12-5.72-4.27-.81,2.25-4.64-3.49-.86,13.78-24.62,4.37,7.96,2.64,19.82,5.19-.36,2.75-.19,3.68,6.7,30.57-36.54s11.93,34.3,12.68,31.69,18.55-19.77,18.55-19.77l28.34,17.9,4.57-30.95,21.62,25.35,30.95-20.88,2.24,30.2,19.02-35.05,20.5,28.34,13.8-22.37s19.39,26.1,20.5,25.35,23.12-29.09,23.12-29.09l19.48,17.34,18.46-32.44,2.79,40.83,18.36-7.89Zm-46.48,25.7l1.12-5.72-4.26-.81,2.25-4.63-9.97-2.44.22,5.18-5.27-1.94-1.95,7.16,5.86.6-1.13,7.81,8.22.49-.16-7.16,5.08,1.46Z"/>
      <path class="cls-5" d="m500,350.26v99.72l-18.36,7.89-2.79-40.83-18.46,32.44-19.48-17.34s-22.01,28.34-23.12,29.09-20.5-25.35-20.5-25.35l-13.8,22.37-20.5-28.34-19.02,35.05-2.24-30.2-30.95,20.88-21.62-25.35-4.57,30.95-28.34-17.9s-17.8,17.16-18.55,19.77-12.68-31.69-12.68-31.69l-30.57,36.54-3.68-6.7,4.09-.29,24.04-96.29,38.31-.18-.56-12.87,2.12-.46c1.81,5.76,3.35,10.67,3.63,11.64.75,2.62,12.68-31.69,12.68-31.69l30.57,36.54,14.35-59.28,22.75,31.69,21.25-32.43,22.37,40.64,20.41-13.15,19.48,30.95,17.99-44.65,7.36,42.79,20.04-32.44,20.6,31.23,7.73-12.72Zm-116.77,67.54l6.25-13.18-12.03-4.4,5.78-7.4-8.78-5.55-4.16,6.48-6.25-6.71-10.63,14.8,8.78,3.01-6.7,7.4,10.64,7.86,4.85-9.25,12.26,6.94Zm-93.09.06l1.92-10.21-7.55-1.48,3.94-8.27-17.68-4.45.44,9.27-9.35-3.51-3.4,12.78,10.39,1.12-1.95,13.95,14.56.96-.34-12.8,9.01,2.65Z"/>
      <path class="cls-9" d="m354.73,285.32l13.67,1.78,21.77-4.81,1.14,1.45,2.37-2.22,47.55-10.49,3.02,7.5,1.46-8.49,16.95-3.74.51,1.42.53-1.64.15-.03.03-.55,16.07-50.35,20.04,34.52v100.6l-7.73,12.72-20.6-31.23-20.04,32.44-7.36-42.79-17.99,44.65-19.48-30.95-20.41,13.15-22.37-40.64-21.25,32.43-22.75-31.69-14.35,59.28-30.57-36.54s-11.93,34.3-12.68,31.69c-.29-.97-1.82-5.89-3.63-11.64-3.02-9.6-6.81-21.54-6.81-21.54l-11.14,8.87-3.31-2.74,23.06-46.67.18-2.48,1.22.09,4.06.29,12.16.88-.48-12.53,15.53,2.01,29.97,3.89,31.54,4.09Zm70.34,25.03l1.33-7.06-5.22-1.02,2.73-5.72-12.21-3.07.3,6.41-6.46-2.42-2.34,8.83,7.17.76-1.34,9.64,10.06.66-.23-8.84,6.22,1.83Zm-130.63,15.93l8.51-7.46-7.21-6.83,6.4-3.49-4.55-6.65-4.96,3.32-2.37-6.69-12.13,7.26,5.33,4.84-7.05,3.2,5.14,8.87,6.31-5.08,6.58,8.72Z"/>
      <polygon class="cls-5" points="500 151.8 500 249.65 479.96 215.13 463.89 265.49 467.87 192.02 461.92 149.16 471.66 133.39 474.36 166.29 500 151.8"/>
      <polygon class="cls-7" points="500 49.85 500 151.8 474.36 166.29 471.66 133.39 461.92 149.16 456.87 112.79 466.66 107.76 445.93 69.15 451.62 36.07 471.66 68.51 491.14 20.5 500 49.85"/>
      <path class="cls-9" d="m500,0v49.85l-8.86-29.35-19.48,48.01-20.04-32.44-5.69,33.08-18.96-35.32-2.26-4.19-38.24,6.84-1.41-1.99-1.65,2.54-4.56.81-55.37-16.78-12.12-3.72-38.46,61.31c-4.78-7.75-9.58-15.06-9.95-13.78-.74,2.61-11.18,29.45-11.18,29.45l-34.49-51.27-8.02,29.65-19.94-27.78-20.33,21.43-12.86-30.76-19.02,35.05-20.5-28.34-13.79,22.37s-19.4-26.1-20.51-25.35-23.11,29.09-23.11,29.09l-18.83-32.63-18.64,33.56L13.51,28.34,0,50.61V0h500Zm-237.13,33.5l1.33-7.06-5.22-1.02,2.73-5.72-12.21-3.07.3,6.41-6.46-2.42-2.35,8.83,7.18.76-1.34,9.64,10.05.66-.23-8.84,6.22,1.83Z"/>
      <polygon class="cls-1" points="461.92 149.16 467.87 192.02 463.89 265.49 463.71 266.06 462.67 266.29 451.62 235.74 445.72 270.03 441.24 271.02 426.27 233.87 406.79 264.82 385.07 234.15 372.49 253.48 375.22 231.08 363.51 142.6 369.22 136.27 385.07 167.41 406.79 136.74 426.27 167.69 444.26 123.04 451.62 165.83 461.92 149.16"/>
      <polygon class="cls-17" points="445.93 69.15 466.66 107.76 456.87 112.79 361.22 129.5 343.14 127.41 338.02 87.06 331.08 67.9 340.88 49.97 360.08 72.89 383.41 37.03 386.48 36.48 406.79 65.16 426.27 34.21 444.26 78.86 445.93 69.15"/>
      <polygon class="cls-11" points="463.89 265.49 463.86 266.03 463.71 266.06 463.89 265.49"/>
      <polygon class="cls-12" points="463.71 266.06 463.18 267.71 462.67 266.29 463.71 266.06"/>
      <polygon class="cls-9" points="451.62 235.74 462.67 266.29 445.72 270.03 451.62 235.74"/>
      <polygon class="cls-1" points="456.87 112.79 461.92 149.16 451.62 165.83 444.26 123.04 426.27 167.69 406.79 136.74 385.07 167.41 369.22 136.27 363.51 142.6 361.79 129.57 361.22 129.5 456.87 112.79"/>
      <polygon class="cls-8" points="454.64 469.96 453.52 475.68 448.44 474.22 448.6 481.37 440.38 480.88 441.51 473.07 435.64 472.47 437.6 465.32 442.87 467.26 442.65 462.07 452.62 464.51 450.38 469.14 454.64 469.96"/>
      <polygon class="cls-17" points="426.97 33.83 445.93 69.15 444.26 78.86 426.27 34.21 426.97 33.83"/>
      <polygon class="cls-9" points="445.72 270.03 444.26 278.52 441.24 271.02 445.72 270.03"/>
      <polygon class="cls-9" points="441.24 271.02 393.69 281.52 397.33 278.11 392.03 273.3 396.58 270.61 393.2 265.87 389.67 268.4 387.85 263.59 379.22 269.15 383.14 272.56 378.11 275.06 381.96 281.39 386.43 277.54 390.17 282.29 368.4 287.1 372.49 253.48 385.07 234.15 406.79 264.82 426.27 233.87 441.24 271.02"/>
      <polygon class="cls-17" points="426.97 33.83 426.27 34.21 406.79 65.16 386.48 36.48 424.71 29.64 426.97 33.83"/>
      <polygon class="cls-8" points="426.39 303.29 425.07 310.34 418.84 308.51 419.08 317.36 409.02 316.69 410.36 307.05 403.19 306.29 405.53 297.46 411.99 299.88 411.69 293.47 423.9 296.54 421.17 302.26 426.39 303.29"/>
      <polygon class="cls-13" points="397.33 278.11 393.69 281.52 390.17 282.29 386.43 277.54 381.96 281.39 378.11 275.06 383.14 272.56 379.22 269.15 387.85 263.59 389.67 268.4 393.2 265.87 396.58 270.61 392.03 273.3 397.33 278.11"/>
      <polygon class="cls-13" points="393.69 281.52 391.32 283.74 390.17 282.29 393.69 281.52"/>
      <polygon class="cls-10" points="389.48 404.62 383.23 417.8 370.97 410.86 366.12 420.12 355.49 412.26 362.19 404.86 353.4 401.84 364.03 387.05 370.28 393.76 374.45 387.28 383.23 392.83 377.45 400.23 389.48 404.62"/>
      <polygon class="cls-7" points="386.48 36.48 383.41 37.03 385.07 34.49 386.48 36.48"/>
      <polygon class="cls-17" points="383.41 37.03 360.08 72.89 340.88 49.97 331.08 67.9 316.95 28.9 311.36 17.34 323.48 21.06 378.85 37.84 383.41 37.03"/>
      <polygon class="cls-19" points="338.42 194.71 334.66 174.03 313.07 155.77 324.29 135.34 341.81 166.67 363.51 142.6 375.22 231.08 372.49 253.48 360.08 272.56 348.08 247.82 346.15 237.21 342.04 214.6 338.42 194.71"/>
      <polygon class="cls-9" points="350.55 261.43 348.08 247.82 360.08 272.56 372.49 253.48 368.4 287.1 354.73 285.32 354.81 284.77 354.8 284.77 350.55 261.43"/>
      <path class="cls-19" d="m361.79,129.57l1.72,13.03-21.7,24.07-17.52-31.33-11.22,20.43-5.53-4.67-11.22,7.03-21.24-25.39s-11.93,34.3-12.68,31.69c-.38-1.32-3.05-9.8-5.59-17.85l3.47-28.75,82.86,9.59.65,5.13,17.42-3.05.57.07Z"/>
      <polygon class="cls-17" points="361.22 129.5 343.8 132.55 343.14 127.41 361.22 129.5"/>
      <path class="cls-9" d="m354.81,284.77l-.08.55-31.54-4.09v-.08s0,0,0,0l-.74-6.1c1.8-1.22,26.81-12.99,28.09-13.6l4.24,23.34h0Z"/>
      <path class="cls-9" d="m348.08,247.82l2.47,13.62c-1.28.6-26.28,12.37-28.09,13.6l-2.48-20.64,4.31,11.82,13.51-24.15,5.82-3.43,4.45,9.19Z"/>
      <polygon class="cls-14" points="346.15 237.21 348.08 247.82 343.62 238.63 345.99 237.23 346 237.23 346.15 237.21"/>
      <polygon class="cls-7" points="342.04 214.6 346.15 237.21 346 237.23 345.99 237.23 343.62 238.63 341.81 234.9 337.8 242.06 319.78 252.71 317.2 231.26 342.04 214.6"/>
      <polygon class="cls-9" points="341.81 234.9 343.62 238.63 337.8 242.06 341.81 234.9"/>
      <path class="cls-19" d="m338.02,87.06l5.13,40.35-82.86-9.59,18.62-29.23c2.25,3.78,3.81,6.48,3.81,6.48l24.24-43.99,4.83,9.11-3.97,4.5-3.91,8.57,6.15,14.92,12.05-8.51,1.25,2.36,2.88-5.27,2.84-2.01-.96-1.45,2.96-5.4,6.94,19.16Z"/>
      <polygon class="cls-14" points="338.42 194.71 342.04 214.6 317.2 231.26 314.39 207.93 338.3 194.72 338.3 194.73 338.42 194.71"/>
      <polygon class="cls-7" points="334.66 174.03 338.42 194.71 338.3 194.73 338.3 194.72 314.39 207.93 311.7 185.65 334.66 174.03"/>
      <polygon class="cls-14" points="337.8 242.06 324.29 266.22 319.98 254.39 319.78 252.71 337.8 242.06"/>
      <polygon class="cls-14" points="334.66 174.03 311.7 185.65 308.99 163.18 313.07 155.77 334.66 174.03"/>
      <path class="cls-19" d="m316.95,28.9l14.13,39-2.96,5.4-11.91-18.12-4.42,5.01-4.83-9.11-24.24,43.99s-1.56-2.69-3.81-6.48l38.05-59.7Z"/>
      <polygon class="cls-15" points="328.12 73.3 329.08 74.76 326.23 76.76 328.12 73.3"/>
      <polygon class="cls-15" points="328.12 73.3 326.23 76.76 322.1 79.67 311.79 60.19 316.21 55.18 328.12 73.3"/>
      <polygon class="cls-19" points="326.23 76.76 323.35 82.03 322.1 79.67 326.23 76.76"/>
      <path class="cls-9" d="m323.2,281.13h0s0,.09,0,.09l-29.97-3.89.05-.39h0s-2.06-20.27-2.06-20.27h.11s30.76,19,31.04,18.45c0-.02.04-.05.1-.09l.74,6.1Z"/>
      <path class="cls-9" d="m319.98,254.39l2.48,20.64c-.06.04-.09.08-.1.09-.29.55-31.04-18.46-31.04-18.46h-.11s-1.29-12.73-1.29-12.73l4.16-6.99,25.2,15.55.7,1.9Z"/>
      <polygon class="cls-13" points="322.1 79.67 310.06 88.18 303.91 73.26 307.82 64.69 311.79 60.19 322.1 79.67"/>
      <polygon class="cls-11" points="319.78 252.71 319.98 254.39 319.29 252.49 319.71 252.75 319.78 252.71"/>
      <polygon class="cls-13" points="317.2 231.26 319.78 252.71 319.71 252.75 319.29 252.49 310.23 227.66 317.05 231.36 317.2 231.26"/>
      <polygon class="cls-9" points="310.23 227.66 319.29 252.49 294.08 236.94 302.22 223.3 310.23 227.66"/>
      <polygon class="cls-2" points="314.39 207.93 317.2 231.26 317.05 231.36 310.23 227.66 306.21 216.63 302.22 223.3 286.98 215.02 284.28 188.49 314.25 208.01 314.39 207.93"/>
      <path class="cls-13" d="m311.36,17.34l5.6,11.56-38.05,59.7c-1.73-2.92-3.87-6.48-6.01-9.95l38.46-61.31Z"/>
      <polygon class="cls-13" points="311.7 185.65 314.39 207.93 314.25 208.01 284.28 188.49 282.1 167.04 311.46 185.78 311.7 185.65"/>
      <polygon class="cls-14" points="313.07 155.77 308.99 163.18 307.54 151.1 313.07 155.77"/>
      <polygon class="cls-2" points="308.99 163.18 311.7 185.65 311.46 185.78 282.1 167.04 296.32 158.13 305.64 169.28 308.99 163.18"/>
      <polygon class="cls-9" points="310.23 227.66 302.22 223.3 306.21 216.63 310.23 227.66"/>
      <polygon class="cls-2" points="307.54 151.1 308.99 163.18 305.64 169.28 296.32 158.13 307.54 151.1"/>
      <polygon class="cls-14" points="302.94 318.82 294.44 326.27 287.86 317.56 281.55 322.64 276.41 313.77 283.46 310.57 278.13 305.73 290.26 298.47 292.63 305.17 297.59 301.84 302.14 308.5 295.74 311.99 302.94 318.82"/>
      <polygon class="cls-13" points="302.22 223.3 294.08 236.94 288.88 233.73 286.98 215.02 302.22 223.3"/>
      <path class="cls-19" d="m284.28,188.49l2.7,26.54,1.9,18.71,1.04,10.2-12.61,21.13-3.61-95.23-13.8.35-3.27.08-2.7.07,2.88-23.77c2.54,8.05,5.21,16.54,5.59,17.85.75,2.61,12.68-31.69,12.68-31.69l21.24,25.39-14.22,8.91,2.18,21.45Z"/>
      <polygon class="cls-2" points="294.08 236.94 289.92 243.93 288.88 233.73 294.08 236.94"/>
      <polygon class="cls-9" points="293.28 276.94 293.28 276.94 293.23 277.33 277.7 275.32 277.31 265.07 289.92 243.93 291.22 256.68 293.28 276.94"/>
      <polygon class="cls-1" points="292.06 407.65 290.14 417.86 281.13 415.21 281.47 428.01 266.91 427.05 268.86 413.1 258.47 411.99 261.87 399.21 271.22 402.72 270.78 393.45 288.46 397.89 284.51 406.16 292.06 407.65"/>
      <path class="cls-13" d="m278.91,88.6l-18.62,29.23-12.31.55,24.92-39.73c2.14,3.47,4.28,7.03,6.01,9.95Z"/>
      <polygon class="cls-9" points="277.7 275.32 278.18 287.84 266.02 286.96 266.06 286.54 265.38 273.72 277.7 275.32"/>
      <path class="cls-9" d="m277.31,265.07l.39,10.25-12.32-1.6-1.86-35.3c3.13,6.17,11.56,30.41,11.56,30.41l2.24-3.76Z"/>
      <path class="cls-19" d="m273.71,169.84l3.61,95.23-2.24,3.76s-8.43-24.24-11.56-30.41l-3.61-68.2v-.02l13.8-.35Z"/>
      <path class="cls-7" d="m272.9,78.65l-24.92,39.73,12.31-.55-3.47,28.75c-2.49-7.87-4.86-15.34-4.86-15.34l-34.67,27.59-15.85-32.06-12.11,30.2-26.66-37.28-14.17,26.1-22-41.02-9.88,54.81-22-36.17s-11.19,39.9-12.31,39.15-23.11-29.09-23.11-29.09l-31.33,26.1-4.66-21.63-18.27,28.25L0,151.28V50.61l13.52-22.27,8.2,41.02,18.64-33.56,18.83,32.63s22-28.34,23.11-29.09,20.51,25.35,20.51,25.35l13.79-22.37,20.5,28.34,19.02-35.05,12.86,30.76,20.33-21.43,19.94,27.78,8.02-29.65,34.49,51.27s10.44-26.85,11.18-29.45c.37-1.28,5.17,6.02,9.95,13.78Zm-63.46,30.22l5.58-9.83-9.04-4.09,4.9-5.39-6.48-4.79-3.59,4.77-4.45-5.55-9.08,10.83,6.63,2.83-5.61,5.34,7.77,6.69,4.29-6.87,9.09,6.07Zm-94.95-15.04l-1.97-6.46-4.82,1.6-.22-6.01-11.58,3.2,3.06,5.16-6.48,1.02,1.9,8.41,6.35-2.73,3.1,8.6,8.71-4.18-4.06-7.2,6.02-1.41Z"/>
      <path class="cls-9" d="m265.38,273.72l.68,12.83-.03.42-4.06-.29-1.22-.09-14.56-1.05.03-.39-.39-26.72,6.14,11.9s4.49-14.14,7.59-24.01l4.09,27.18,1.74.23Z"/>
      <path class="cls-9" d="m263.51,238.41l1.86,35.3-1.74-.23-4.09-27.18c1.46-4.64,2.61-8.33,2.85-9.17.12-.42.52.11,1.12,1.28Z"/>
      <polygon class="cls-13" points="264.2 26.44 262.87 33.5 256.65 31.67 256.88 40.51 246.83 39.85 248.17 30.21 240.99 29.44 243.34 20.61 249.8 23.04 249.5 16.63 261.71 19.7 258.98 25.42 264.2 26.44"/>
      <path class="cls-19" d="m259.91,170.21l3.61,68.2c-.6-1.17-1-1.69-1.12-1.28-.24.84-1.39,4.53-2.85,9.17l-8.21-54.47,2.6-21.49,2.7-.07,3.27-.08v.02Z"/>
      <path class="cls-9" d="m189.44,286.22l18.43-.58,17.37-.54,10.44-.33,10.51.76,14.56,1.05-.18,2.48-35.42,35.88-.26.32-2.63-2.18-13.7-13-27.96-3.21,8.39,10.21-24.19,4.19,10.63,13.98-9.78,4.1-7.26-4.89-6.35,8.83-8.63-.91-8.48,3.05-4.31-10.22-9.29,15.1-7.7,2.77-10.79-17.5s-6.29,8.46-11.91,15.61l-3.72-.55-6.07,8.97c-4.81-5.71-21.92-27.75-21.92-27.75l-19.95,26.47-19.77-26.47-11.93,35.04L0,349.65v-99.37l10.54-23.2,14.16,36.17,13.42-23.87,21.07,28.72s15.84-16.41,16.96-17.16c1.12-.75,16.4,31.32,16.4,31.32l8.29-9.25.04,15.97,15.29-.48,3.84-.12-.9,6.88-6.65-3.95-4.34,9.3,7.79,2.26-3.38,10.39,10.98,2.71,1.48-9.82,6.51,3.25,2.86-7.53-5.56-2.16,4.13-5.78-12.33-5.55,14.58-.45,22.1-.69,11.74-.37,20.41-.63Zm-88.83,32.86l1.12-5.71-4.26-.81,2.25-4.64-9.97-2.44.22,5.18-5.27-1.94-1.95,7.16,5.86.6-1.13,7.8,8.22.49-.16-7.16,5.08,1.46Z"/>
      <polygon class="cls-18" points="260.56 289.06 237.5 335.73 224.88 325.26 225.14 324.94 260.56 289.06"/>
      <path class="cls-3" d="m251.33,191.84l8.21,54.47c-3.1,9.87-7.59,24.01-7.59,24.01l-6.14-11.9-1.28-87.84,2.02-.05,7.37-.19-2.6,21.49Z"/>
      <path class="cls-5" d="m258.77,351.14l-2.12.46-15.83-13.13,11.14-8.87s3.79,11.94,6.81,21.54Z"/>
      <polygon class="cls-1" points="113.75 396.34 120.46 365.31 139.5 356.31 140.66 359.06 144.26 354.06 145.9 353.28 186.1 353.16 189.32 355.33 190.64 353.15 192.47 353.14 207.43 362.51 203.24 344.34 208.94 337.95 217.28 357.2 240.81 338.47 256.64 351.6 257.21 364.47 218.89 364.65 194.85 460.95 190.76 461.23 188.09 456.37 189.11 406.69 175.55 407.26 147.03 409.77 133.19 411.16 135.96 433.9 126.64 448.21 113.68 396.36 113.75 396.34"/>
      <path class="cls-5" d="m151.14,173l-14.29.37-17.89.46-18.36.48.24,98.68-8.29,9.25s-15.29-32.06-16.4-31.32c-1.12.75-16.96,17.16-16.96,17.16l-21.07-28.72-13.42,23.87-14.16-36.17L0,250.28v-98.99l4.94,14.92,18.27-28.25,4.66,21.63,31.33-26.1s22,28.34,23.11,29.09,12.31-39.15,12.31-39.15l22,36.17,9.88-54.81,22,41.02,14.17-26.1,26.66,37.28,12.11-30.2,15.85,32.06,34.67-27.59s2.37,7.47,4.86,15.34l-2.88,23.77-7.37.19-2.02.05-19.87.52-20.7.53-15.39.4-19.56.5-17.89.46Zm-68.75,35.75l-2.41-10.11-7.5,1.73.21-9.16-17.94,3.16,4.19,8.29-9.97.61,2.12,13.05,9.93-3.23,3.93,13.52,13.67-5.07-5.54-11.54,9.3-1.26Z"/>
      <polygon class="cls-9" points="245.81 258.42 246.21 285.14 246.18 285.53 235.67 284.77 225.23 285.1 225.05 248.67 233.5 234.53 245.81 258.42"/>
      <polygon class="cls-13" points="245.81 258.42 233.5 234.53 225.05 248.67 224.67 171.33 224.67 171.32 224.66 171.11 244.54 170.59 245.81 258.42"/>
      <path class="cls-1" d="m237.5,335.73l3.31,2.74-23.53,18.72-8.34-19.24,13.31-14.87,2.63,2.18,12.62,10.47Zm-13.57,5.39l6.29-5.45-6.57,1.82-6.15-2.94.13.56,6.29,6.01Z"/>
      <polygon class="cls-15" points="230.22 335.66 223.92 341.11 217.63 335.11 217.5 334.55 223.65 337.48 230.22 335.66"/>
      <path class="cls-9" d="m225.05,248.67l.18,36.43-17.37.54c-.12-3.52-.74-21.57-1.46-42.3l11.06,18.04,7.58-12.7Z"/>
      <path class="cls-14" d="m224.67,171.33l.38,77.34-7.58,12.7-11.06-18.04c-1.11-32.25-2.43-70.96-2.43-71.45v-.24s0,0,0,0l20.7-.53v.22s0,0,0,0Z"/>
      <polygon class="cls-1" points="222.25 323.08 208.94 337.95 205.17 329.23 193.35 348.71 191.21 347.41 195.4 327.27 222.25 323.08"/>
      <polygon class="cls-13" points="222.25 323.08 195.4 327.27 191.21 347.41 175.05 345.7 165.63 339.34 175.41 335.24 164.78 321.27 188.98 317.07 180.59 306.86 208.55 310.07 222.25 323.08"/>
      <polygon class="cls-14" points="215.02 99.03 209.44 108.87 200.35 102.8 196.06 109.67 188.3 102.99 193.91 97.64 187.28 94.81 196.36 83.98 200.8 89.53 204.39 84.76 210.87 89.55 205.97 94.95 215.02 99.03"/>
      <polygon class="cls-1" points="205.17 329.23 208.94 337.95 203.24 344.34 207.43 362.51 192.47 353.14 190.64 353.15 193.35 348.71 205.17 329.23"/>
      <path class="cls-9" d="m207.87,285.64l-18.43.58-.17-22.3,10.49-31.44,6.65,10.86c.72,20.73,1.34,38.78,1.46,42.3Z"/>
      <path class="cls-14" d="m206.41,243.34l-6.65-10.86-10.49,31.44-.67-91.19-.02-.69,15.39-.4h0s0,.25,0,.25c0,.49,1.33,39.2,2.43,71.45Z"/>
      <polygon class="cls-6" points="193.35 348.71 190.64 353.15 186.1 353.16 175.05 345.7 191.21 347.41 193.35 348.71"/>
      <polygon class="cls-9" points="188.09 456.37 190.76 461.23 188.01 461.42 188.01 461.42 187.99 461.22 188.09 456.37"/>
      <polygon class="cls-1" points="190.64 353.15 189.32 355.33 186.1 353.16 190.64 353.15"/>
      <polygon class="cls-9" points="189.27 263.92 189.44 286.22 169.03 286.84 169.03 286.82 169.03 235.39 170.49 232.29 187.45 269.39 189.27 263.92"/>
      <polygon class="cls-13" points="188.6 172.73 189.27 263.92 187.45 269.39 170.49 232.29 169.03 235.39 169.03 172.54 188.58 172.04 188.6 172.73"/>
      <polygon class="cls-5" points="189.11 406.69 188.09 456.37 180.17 441.96 175.55 407.26 189.11 406.69"/>
      <polygon class="cls-9" points="180.17 441.96 188.09 456.37 187.99 461.22 188.01 461.42 188.01 461.42 182.82 461.79 180.17 441.96"/>
      <polygon class="cls-6" points="186.1 353.16 145.9 353.28 144.26 354.06 152.02 343.28 155.42 343.64 175.05 345.7 186.1 353.16"/>
      <polygon class="cls-5" points="180.17 441.96 175.8 434 162.03 458.62 155.54 457.04 155.67 459.95 147.57 443.26 147.03 409.77 175.55 407.26 180.17 441.96"/>
      <polygon class="cls-13" points="175.05 345.7 155.42 343.64 155.42 343.63 165.63 339.34 175.05 345.7"/>
      <polygon class="cls-9" points="169.03 286.82 169.03 286.84 157.29 287.21 157.28 286.82 156 263.08 169.03 235.39 169.03 286.82"/>
      <polygon class="cls-3" points="169.03 172.54 169.03 235.39 156 263.08 151.14 173 169.03 172.54"/>
      <polygon class="cls-8" points="167.54 464.93 166.42 470.65 161.34 469.19 161.49 476.35 153.27 475.85 154.41 468.04 148.54 467.45 150.07 461.83 150.49 460.28 155.77 462.23 155.67 459.95 158.28 465.33 162.03 458.62 165.52 459.48 163.27 464.12 167.54 464.93"/>
      <polygon class="cls-5" points="165.63 339.34 155.42 343.63 155.42 343.64 152.02 343.28 158.37 334.45 165.63 339.34"/>
      <polygon class="cls-8" points="162.03 458.62 158.28 465.33 155.67 459.95 155.54 457.04 162.03 458.62"/>
      <polygon class="cls-9" points="157.28 286.82 157.29 287.21 135.19 287.9 135.43 271.36 146.63 282.99 156 263.08 157.28 286.82"/>
      <polygon class="cls-14" points="151.14 173 156 263.08 146.63 282.99 135.43 271.36 136.85 173.37 151.14 173"/>
      <polygon class="cls-9" points="155.67 459.95 155.77 462.23 150.49 460.28 150.07 461.83 147.87 461.22 147.57 443.26 155.67 459.95"/>
      <polygon class="cls-6" points="152.02 343.28 144.26 354.06 139.5 356.31 134.91 345.42 143.39 342.37 152.02 343.28"/>
      <polygon class="cls-9" points="147.57 443.26 147.87 461.22 139.18 460.82 139.19 460.53 139.19 460.52 135.96 433.9 140.01 427.67 147.57 443.26"/>
      <polygon class="cls-6" points="147.03 409.77 147.57 443.26 140.01 427.67 135.96 433.9 133.19 411.16 147.03 409.77"/>
      <polygon class="cls-1" points="144.26 354.06 140.66 359.06 139.5 356.31 144.26 354.06"/>
      <polygon class="cls-6" points="110.67 372.83 110.67 354.12 113.61 353.07 116.61 357.94 121.31 350.3 134.91 345.42 139.5 356.31 120.46 365.31 113.75 396.34 113.68 396.36 110.67 384.32 110.67 372.83"/>
      <polygon class="cls-9" points="139.19 460.52 139.19 460.53 139.18 460.82 129.69 460.38 126.64 448.21 135.96 433.9 139.19 460.52"/>
      <polygon class="cls-13" points="136.85 173.37 135.43 271.36 118.29 253.54 116.99 254.99 118.97 174.13 118.96 173.84 118.96 173.83 136.85 173.37"/>
      <polygon class="cls-9" points="118.29 253.54 135.43 271.36 135.19 287.9 120.61 288.35 120.06 288.1 120.02 288.37 116.18 288.49 116.17 288.22 116.99 254.99 118.29 253.54"/>
      <polygon class="cls-5" points="130.59 335.2 134.91 345.42 121.31 350.3 130.59 335.2"/>
      <polygon class="cls-14" points="134.38 301.84 131.52 309.38 125.01 306.13 123.52 315.95 112.54 313.24 115.92 302.85 108.14 300.59 112.47 291.3 119.13 295.25 120.02 288.37 120.61 288.35 132.94 293.9 128.82 299.68 134.38 301.84"/>
      <path class="cls-5" d="m113.68,396.36l12.96,51.85-11.62,17.86-21.72-30.67-19.48,30.95-17.99-44.65-7.37,42.79-20.04-32.44-16.41,33.28L0,450.41v-100.76l7.55,17.24,11.93-35.04,19.77,26.47,19.95-26.47s17.11,22.04,21.92,27.75l-20.22,29.9-18.31,1.54,12.72,21.68,29.36,1.81,26.01-41.69v11.49l3.01,12.04Zm-79.15,19.87l3.98-8.38-6.22-3.35,3.45-4.61-4.43-3.98-2.54,4.08-3.02-4.64-6.41,9.26,4.56,2.32-3.95,4.57,5.32,5.57,3.05-5.86,6.22,5.03Z"/>
      <polygon class="cls-6" points="121.31 350.3 116.61 357.94 113.61 353.07 121.31 350.3"/>
      <polygon class="cls-4" points="120.06 288.1 120.61 288.35 120.02 288.37 120.06 288.1"/>
      <polygon class="cls-14" points="118.96 173.84 118.97 174.13 116.99 254.99 100.85 272.99 100.6 174.31 118.96 173.83 118.96 173.84"/>
      <polygon class="cls-9" points="116.99 254.99 116.17 288.22 116.18 288.49 100.89 288.97 100.85 272.99 116.99 254.99"/>
      <polygon class="cls-8" points="112.52 87.36 114.49 93.82 108.47 95.23 112.53 102.43 103.82 106.61 100.73 98.01 94.38 100.75 92.48 92.34 98.96 91.32 95.9 86.16 107.47 82.96 107.69 88.97 112.52 87.36"/>
      <path class="cls-5" d="m102.82,335.57l10.79,17.5-2.94,1.05-19.77-2.94c5.62-7.15,11.91-15.61,11.91-15.61Z"/>
      <path class="cls-13" d="m110.67,354.12v18.71l-26.01,41.69-29.36-1.81-12.72-21.68,18.31-1.54,20.22-29.9c.64.76,1.06,1.23,1.19,1.33.48.32,4.35-4.33,8.6-9.74l19.77,2.94Z"/>
      <polygon class="cls-8" points="101.73 313.36 100.61 319.08 95.53 317.62 95.69 324.77 87.47 324.28 88.6 316.48 82.73 315.88 84.69 308.72 89.96 310.65 89.74 305.47 99.71 307.91 97.47 312.55 101.73 313.36"/>
      <path class="cls-13" d="m87.18,350.63l3.72.55c-4.25,5.41-8.12,10.06-8.6,9.74-.13-.09-.55-.56-1.19-1.33l6.07-8.97Z"/>
      <polygon class="cls-13" points="79.98 198.64 82.39 208.75 73.09 210.01 78.62 221.55 64.95 226.62 61.02 213.09 51.09 216.32 48.97 203.27 58.93 202.66 54.75 194.37 72.69 191.21 72.48 200.37 79.98 198.64"/>
      <polygon class="cls-13" points="38.51 407.84 34.53 416.22 28.3 411.2 25.26 417.05 19.94 411.48 23.89 406.91 19.34 404.6 25.75 395.33 28.77 399.97 31.31 395.9 35.74 399.88 32.29 404.5 38.51 407.84"/>
    </g>
  </g>
</svg>