<?xml version="1.0" encoding="UTF-8"?>
<svg xmlns="http://www.w3.org/2000/svg" xmlns:xlink="http://www.w3.org/1999/xlink" viewBox="0 0 500 500">
  <defs>
    <style>
      .cls-1 {
        fill: url(#linear-gradient-2);
      }

      .cls-2 {
        fill: url(#New_Pattern_Swatch_4);
      }

      .cls-3 {
        fill: #3ae09e;
      }

      .cls-4 {
        fill: #05be74;
      }

      .cls-5 {
        fill: #35cb8f;
      }

      .cls-6 {
        fill: #008c55;
      }

      .cls-7 {
        fill: #004328;
      }

      .cls-8 {
        fill: none;
      }

      .cls-9 {
        fill: #1b6c4c;
      }

      .cls-10 {
        fill: url(#linear-gradient-3);
      }

      .cls-11 {
        fill: url(#linear-gradient);
      }

      .cls-12 {
        fill: #aeefcc;
      }

      .cls-13 {
        fill: #0a6;
      }

      .cls-14 {
        fill: #005835;
      }
    </style>
    <linearGradient id="linear-gradient" x1="9562" y1="-7412" x2="9712" y2="-7412" gradientTransform="translate(-9562 -7380) scale(1 -1)" gradientUnits="userSpaceOnUse">
      <stop offset="0" stop-color="#aeefcc"/>
      <stop offset=".17" stop-color="#6adba8"/>
      <stop offset=".33" stop-color="#33cb8c"/>
      <stop offset=".45" stop-color="#11c17a"/>
      <stop offset=".51" stop-color="#05be74"/>
      <stop offset=".64" stop-color="#39cd8f"/>
      <stop offset=".81" stop-color="#78dfaf"/>
      <stop offset=".94" stop-color="#9feac4"/>
      <stop offset="1" stop-color="#aeefcc"/>
    </linearGradient>
    <pattern id="New_Pattern_Swatch_4" data-name="New Pattern Swatch 4" x="0" y="0" width="150" height="64" patternTransform="translate(-1781.35 -1881.08) scale(.76)" patternUnits="userSpaceOnUse" viewBox="0 0 150 64">
      <g>
        <rect class="cls-8" width="150" height="64"/>
        <rect class="cls-11" width="150" height="64"/>
      </g>
    </pattern>
    <linearGradient id="linear-gradient-2" x1="99.18" y1="372.88" x2="145.48" y2="372.88" gradientTransform="matrix(1, 0, 0, 1, 0, 0)" xlink:href="#linear-gradient"/>
    <linearGradient id="linear-gradient-3" x1="100.53" y1="335.5" x2="144.63" y2="335.5" gradientTransform="matrix(1, 0, 0, 1, 0, 0)" xlink:href="#linear-gradient"/>
  </defs>
  <g id="Layer_2" data-name="Layer 2">
    <rect class="cls-3" x=".01" width="500" height="500"/>
  </g>
  <g id="Layer_1" data-name="Layer 1">
    <path class="cls-8" d="m486.56,355.51s-72.23,29.83-73.23,29.83-86,5.67-89,5.67-94.67-15.33-95.63-14.78-68.38-26.22-68.38-26.22l-11.94-53.52,39.8-56.88,42.22,13.15"/>
    <path class="cls-8" d="m230.41,252.75l-12.19,41.25,16.11,36s56.33,21.56,58,21.78,91.67-.22,94,0,69.67-19.11,69.67-19.11l11.3-4.64,19.26,27.48"/>
  </g>
  <g id="Layer_4" data-name="Layer 4">
    <g>
      <polygon class="cls-3" points="500 0 500 50 160.25 76.96 0 50 0 0 500 0"/>
      <polygon class="cls-5" points="500 50 500 124.66 499.83 124.66 477.14 147.9 128.05 115.81 78.51 129.04 48.78 66.44 16.84 104.5 0 124.56 0 50 160.25 76.96 500 50"/>
      <polygon class="cls-3" points="134.3 246.49 78.51 129.04 128.05 115.81 477.14 147.9 408.39 218.3 399.67 203.42 155.59 210.32 134.3 246.49"/>
      <polygon class="cls-4" points="0 150 64.33 132.82 67.44 136.22 73.01 130.51 78.51 129.04 134.3 246.49 132.23 250 0 250 0 150"/>
      <polygon class="cls-4" points="408.39 218.3 477.14 147.9 500 150 500 250 426.95 250 408.39 218.3"/>
      <polygon class="cls-12" points="48.78 66.44 78.51 129.04 73.01 130.51 64.33 132.82 48.33 115.33 25.67 130 16.84 104.5 48.78 66.44"/>
      <polygon class="cls-13" points="48.33 115.33 64.33 132.82 0 150 0 124.56 16.84 104.5 25.67 130 48.33 115.33"/>
      <polygon class="cls-13" points="500 124.66 500 150 477.14 147.9 499.83 124.66 500 124.66"/>
      <polygon class="cls-12" points="73.01 130.51 67.44 136.22 64.33 132.82 73.01 130.51"/>
      <polygon class="cls-3" points="0 450 337.36 429.61 500 450 500 500 0 500 0 450"/>
      <polygon class="cls-5" points="500 374.44 500 450 337.36 429.61 0 450 0 374.44 41.27 344.47 190.24 324.52 484.78 348.75 499.83 374.44 500 374.44"/>
      <polygon class="cls-13" points="500 250 500 350 484.78 348.75 426.95 250 500 250"/>
      <polygon class="cls-13" points="132.23 250 106.33 294 82.33 314.66 41.27 344.47 0 350 0 250 132.23 250"/>
      <polygon class="cls-4" points="41.27 344.47 0 374.44 0 350 41.27 344.47"/>
      <polygon class="cls-4" points="499.83 374.44 484.78 348.75 500 350 500 374.44 499.83 374.44"/>
      <polygon class="cls-5" points="155.59 210.32 399.67 203.42 408.39 218.3 426.95 250 132.23 250 134.3 246.49 155.59 210.32"/>
    </g>
    <g>
      <polygon class="cls-14" points="225.48 206.58 225.44 213.24 209.86 209.06 209.86 207.64 225.48 206.58"/>
      <polygon class="cls-9" points="229.78 208.2 229.67 214.39 226.66 213.57 226.92 206.48 229.78 208.2"/>
      <polygon class="cls-6" points="225.63 185.7 225.55 196.49 209.86 192.2 209.86 189.92 225.63 185.7"/>
      <polygon class="cls-9" points="228.77 155.21 230.63 156.48 230.38 171.07 228.24 169.94 228.77 155.21"/>
      <polygon class="cls-7" points="245.35 180.57 245.39 191.97 233.44 189.98 230.13 187.2 230.26 178.82 245.35 180.57"/>
      <polygon class="cls-9" points="307.44 141.4 379.3 129.77 379.85 159.15 308.73 172.81 307.44 141.4"/>
      <polygon class="cls-9" points="227.93 178.54 227.68 185.15 225.63 185.7 225.67 178.27 227.93 178.54"/>
      <polygon class="cls-7" points="245.34 178.94 245.35 180.57 230.26 178.82 230.38 171.07 245.34 178.94"/>
      <polygon class="cls-9" points="227.26 196.96 226.92 206.48 225.48 206.58 225.55 196.49 227.26 196.96"/>
      <polygon class="cls-6" points="400.75 158.2 401.41 184.46 401.37 184.48 401.12 175.78 400.02 168.81 395.87 176.38 395.45 186.56 389.14 188.79 380.32 184.46 379.85 159.15 379.86 159.15 387.91 163.15 393.92 160.83 393.92 161.07 400.69 158.71 400.68 158.23 400.75 158.2"/>
      <polygon class="cls-7" points="291.97 144.9 292.45 179.41 278.79 179.41 278.79 144.9 278.79 140.13 286.96 129.77 291.88 138.54 291.97 144.9"/>
      <polygon class="cls-9" points="230.13 187.2 230.08 189.42 227.55 189.01 227.68 185.15 227.69 185.15 230.13 187.2"/>
      <polygon class="cls-9" points="230.08 189.42 230.08 189.43 229.95 197.69 227.26 196.96 227.55 189.01 230.08 189.42"/>
      <polygon class="cls-9" points="229.67 214.39 229.5 225.42 226.3 223.37 226.66 213.57 229.67 214.39"/>
      <polygon class="cls-14" points="233.44 189.98 230.08 189.43 230.08 189.42 230.13 187.2 233.44 189.98"/>
      <polygon class="cls-9" points="230.26 178.82 230.13 187.2 227.69 185.15 227.68 185.15 227.93 178.54 230.26 178.82"/>
      <polygon class="cls-7" points="246.61 97.04 246.67 97.04 246.75 98.22 258.93 107.88 212.39 98.77 246.61 97.04"/>
      <polygon class="cls-9" points="249.54 192.76 249.56 216.47 248.7 215.89 248.69 215.89 248.93 202.82 249.12 192.58 249.54 192.76"/>
      <polygon class="cls-9" points="249.32 181.04 245.35 180.57 245.34 178.94 249.32 181.04"/>
      <polygon class="cls-6" points="265.46 230.2 265.46 248.92 249.57 243.95 249.56 216.47 258.94 222.73 265.46 230.2"/>
      <polygon class="cls-13" points="191.49 185.28 191.77 203.93 182.62 205.54 177.77 203.88 177.67 183.77 181.63 185.28 191.49 185.28"/>
      <polygon class="cls-9" points="209.86 176.43 209.86 189.92 205.64 191.04 205.64 187.17 205.64 175.93 209.86 176.43"/>
      <polygon class="cls-13" points="173.57 223.84 172.93 202.22 173.03 202.27 173.03 202.28 176.54 203.45 177.77 203.88 182.62 205.54 191.77 203.93 192.09 225.96 181.16 228.79 173.57 223.84"/>
      <polygon class="cls-7" points="245.39 191.97 245.41 200.05 233.44 189.98 245.39 191.97"/>
      <polygon class="cls-9" points="229.95 197.69 229.78 208.2 226.92 206.48 227.26 196.96 229.95 197.69"/>
      <polygon class="cls-6" points="228.77 132.71 205.64 161.8 192.09 156.32 191.07 156.5 190.64 127.59 228.77 132.71"/>
      <polygon class="cls-9" points="311.09 230.2 311.1 230.2 380.71 205.54 381.07 224.55 312.05 253.48 311.09 230.2"/>
      <polygon class="cls-14" points="245.29 166.54 245.34 178.94 230.38 171.07 230.63 156.48 245.29 166.53 245.29 166.54"/>
      <polygon class="cls-7" points="360.72 101.75 312.15 106.81 311.82 106.63 316.69 98.77 360.72 101.75"/>
      <polygon class="cls-13" points="190.64 127.59 191.07 156.5 181.63 158.2 175.86 154.88 176.69 155.21 175.68 130.19 180.48 132.71 190.63 127.59 190.64 127.59"/>
      <polygon class="cls-9" points="249.32 181.04 249.12 192.58 245.39 191.97 245.35 180.57 249.32 181.04"/>
      <polygon class="cls-6" points="265.46 138.42 265.46 169.6 249.53 169.45 228.77 132.71 265.46 138.42"/>
      <polygon class="cls-13" points="265.46 230.2 281.55 236.61 292.36 236.42 311.09 230.2 312.05 253.48 312.28 259.03 301.5 264.17 278.79 264.88 265.46 255.81 265.46 248.92 265.46 230.2"/>
      <polygon class="cls-6" points="265.46 113.99 265.46 138.42 228.77 132.71 190.64 127.59 190.24 100.75 265.46 113.99"/>
      <polygon class="cls-14" points="354.93 93.01 360.72 101.75 316.69 98.77 320.55 92.56 320.56 92.04 320.57 92.04 354.93 93.01"/>
      <polygon class="cls-9" points="209.86 174.81 209.86 176.43 205.64 175.93 209.86 174.81"/>
      <polygon class="cls-9" points="249.12 192.58 248.93 202.82 248.7 202.82 245.41 200.05 245.39 191.97 249.12 192.58"/>
      <polygon class="cls-9" points="226.92 206.48 226.66 213.57 225.44 213.24 225.48 206.58 226.92 206.48"/>
      <polygon class="cls-7" points="171.46 153.13 170.35 115.21 170.72 127.59 171.46 152.33 171.48 153.14 171.46 153.13"/>
      <polygon class="cls-9" points="209.86 207.64 209.86 209.06 205.64 207.92 209.86 207.64"/>
      <polygon class="cls-9" points="308.73 172.81 379.85 159.15 380.32 184.46 309.82 199.36 308.73 172.81"/>
      <polygon class="cls-6" points="172.37 181.77 172.32 181.75 171.94 168.9 172.37 181.77"/>
      <polygon class="cls-13" points="265.46 199.46 281.12 203.88 281.19 203.88 281.55 236.61 265.46 230.2 265.46 199.46"/>
      <polygon class="cls-9" points="209.86 189.92 209.86 192.2 205.64 191.04 209.86 189.92"/>
      <polygon class="cls-6" points="265.46 199.46 265.46 230.2 258.94 222.73 249.56 216.47 249.54 192.76 265.13 199.36 265.46 199.46"/>
      <polygon class="cls-6" points="411.83 59.59 411.83 75.49 399.23 98.22 378.62 105.27 365.41 92.54 362.55 80.78 371.33 80.78 370.7 60.48 385.52 61.89 385.52 72.31 396.46 70.19 397.74 59.59 411.83 59.59"/>
      <polygon class="cls-6" points="205.64 207.92 205.64 226.82 205.64 230.2 192.09 225.96 191.77 203.93 192.09 203.88 205.64 205.54 205.64 207.92"/>
      <polygon class="cls-9" points="378.62 105.27 378.62 105.31 306.38 115.4 311.82 106.63 312.15 106.81 360.72 101.75 378.62 105.27"/>
      <polygon class="cls-9" points="209.86 192.2 209.86 207.64 205.64 207.92 205.64 205.54 205.64 191.04 209.86 192.2"/>
      <polygon class="cls-6" points="225.55 196.49 225.48 206.58 209.86 207.64 209.86 192.2 225.55 196.49"/>
      <polygon class="cls-9" points="307.44 141.4 306.38 115.4 378.62 105.31 378.85 105.27 379.3 129.77 307.44 141.4"/>
      <polygon class="cls-9" points="209.86 226.12 209.86 227.87 205.64 226.82 209.86 226.12"/>
      <polygon class="cls-13" points="202.72 80.78 200.67 89.29 190.24 100.75 169.85 98.22 156.89 85.38 156.89 62.77 166.9 62.77 168.74 75.85 177.64 73.02 177.58 61.66 189.86 66.19 193.08 80.78 202.72 80.78"/>
      <polygon class="cls-7" points="400.68 158.23 400.69 158.71 393.92 161.07 393.92 160.83 400.68 158.23"/>
      <polygon class="cls-13" points="401.91 204.49 401.37 184.48 401.41 184.46 401.91 204.49"/>
      <polygon class="cls-9" points="248.32 237.45 248.2 243.52 245.58 242.7 245.56 236.76 248.32 237.45"/>
      <polygon class="cls-14" points="225.67 178.27 225.63 185.7 209.86 189.92 209.86 176.43 225.67 178.27"/>
      <polygon class="cls-12" points="323.46 22.96 323.44 37.38 309.99 33.4 308.19 19.12 323.46 22.96"/>
      <polygon class="cls-9" points="209.86 209.06 209.86 226.12 205.64 226.82 205.64 207.92 209.86 209.06"/>
      <polygon class="cls-9" points="249.53 169.45 249.54 192.76 249.12 192.58 249.32 181.04 249.53 169.45"/>
      <polygon class="cls-7" points="401.91 204.49 401.95 205.54 394.6 207.83 395.45 186.56 401.37 184.48 401.91 204.49"/>
      <polygon class="cls-9" points="309.82 199.36 380.32 184.46 380.71 205.54 311.1 230.2 311.09 230.2 309.82 199.36"/>
      <polygon class="cls-7" points="400.01 129.77 393.92 131.68 393.92 121.78 398 111.42 399.78 120.12 400.01 129.77"/>
      <polygon class="cls-9" points="249.53 169.45 245.29 166.54 245.29 166.53 249.53 169.45"/>
      <polygon class="cls-7" points="175.68 130.19 176.69 155.21 175.86 154.88 171.46 152.33 170.72 127.59 175.68 130.19"/>
      <polygon class="cls-6" points="378.85 105.27 378.62 105.31 378.62 105.27 399.23 98.22 400.75 158.2 400.68 158.23 400.01 129.77 399.78 120.12 398 111.42 393.92 121.78 393.92 131.68 390.62 132.71 379.3 129.77 378.85 105.27"/>
      <polygon class="cls-14" points="245.56 235.68 245.56 236.76 229.37 232.73 229.5 225.42 245.56 235.68"/>
      <polygon class="cls-14" points="225.73 170.6 225.67 178.27 209.86 176.43 209.86 174.81 225.73 170.6"/>
      <polygon class="cls-9" points="229.37 232.73 229.3 237.61 225.83 236.51 225.99 231.88 229.37 232.73"/>
      <polygon class="cls-7" points="283.82 54.46 278.79 54.93 278.79 37.65 282.57 39.03 283.8 39.48 283.8 39.49 283.8 54.25 283.82 54.46"/>
      <polygon class="cls-9" points="248.32 237.45 245.56 236.76 245.56 235.68 248.32 237.45"/>
      <polygon class="cls-7" points="401.95 205.54 394.58 208.3 394.6 207.83 401.95 205.54"/>
      <polygon class="cls-9" points="230.38 171.07 230.26 178.82 227.93 178.54 228.24 169.94 230.38 171.07"/>
      <polygon class="cls-9" points="209.86 160.59 209.86 174.81 205.64 175.93 205.64 161.8 209.86 160.59"/>
      <polygon class="cls-13" points="173.03 202.27 172.93 202.22 172.32 181.75 172.37 181.77 173.03 202.27"/>
      <polygon class="cls-7" points="245.49 218.64 245.56 235.68 229.5 225.42 229.67 214.39 245.49 218.64"/>
      <polygon class="cls-7" points="175.28 120.37 175.68 130.19 170.72 127.59 170.35 115.21 172.42 110 175.28 120.37"/>
      <polygon class="cls-4" points="308.19 19.12 309.99 33.4 296.03 43.96 293.8 29.88 308.19 19.12"/>
      <polygon class="cls-6" points="225.32 231.71 225.28 236.35 209.86 231.52 209.86 227.87 225.32 231.71"/>
      <polygon class="cls-6" points="205.64 175.93 205.64 187.17 192.09 185.28 191.49 185.28 191.07 156.5 192.09 156.32 205.64 161.8 205.64 175.93"/>
      <polygon class="cls-9" points="248.64 219.49 248.32 237.45 245.56 235.68 245.49 218.64 248.64 219.49"/>
      <polygon class="cls-6" points="401.95 205.54 402.45 225.45 387.74 230.2 381.07 224.55 380.71 205.54 390.62 209.07 394.6 207.83 394.58 208.3 401.95 205.54"/>
      <polygon class="cls-6" points="393.92 131.68 393.92 160.83 387.91 163.15 379.86 159.15 379.85 159.15 379.3 129.77 390.62 132.71 393.92 131.68"/>
      <polygon class="cls-14" points="246.41 93.01 246.67 97.04 246.61 97.04 212.39 98.77 214.58 93.81 246.15 93.02 246.41 93.01"/>
      <polygon class="cls-7" points="245.48 217.6 245.49 218.64 229.67 214.39 229.78 208.2 245.48 217.6"/>
      <polygon class="cls-9" points="209.86 227.87 209.86 231.52 205.95 230.29 205.64 230.2 205.64 226.82 209.86 227.87"/>
      <polygon class="cls-13" points="309.82 199.36 311.09 230.2 292.36 236.42 292.38 203.88 309.82 199.36"/>
      <polygon class="cls-13" points="307.44 141.4 308.73 172.81 292.45 179.41 291.97 144.9 307.44 141.4"/>
      <polygon class="cls-9" points="265.46 113.87 265.46 113.99 190.24 100.75 212.39 98.77 258.93 107.88 258.94 107.88 265.46 113.05 265.46 113.87"/>
      <polygon class="cls-6" points="395.45 186.56 394.6 207.83 390.62 209.07 380.71 205.54 380.32 184.46 389.14 188.79 395.45 186.56"/>
      <polygon class="cls-7" points="287.23 188.97 292.38 197.26 292.38 203.88 292.36 236.42 281.55 236.61 281.19 203.88 281.12 197.35 287.23 188.97"/>
      <polygon class="cls-6" points="228.77 155.21 225.83 156.06 225.73 170.6 209.86 174.81 209.86 160.59 228.77 155.21"/>
      <polygon class="cls-14" points="225.44 213.24 225.37 223.53 209.86 226.12 209.86 209.06 225.44 213.24"/>
      <polygon class="cls-13" points="174.45 163.79 171.94 168.9 171.48 153.14 175.86 154.88 181.63 158.2 191.07 156.5 191.49 185.28 181.63 185.28 177.67 183.77 177.61 173.46 174.45 163.79"/>
      <polygon class="cls-13" points="276.11 114.96 265.46 113.99 265.46 113.87 265.6 113.87 279.78 113.87 273.77 76.96 271.76 55.58 278.79 54.93 283.82 54.46 293.8 53.54 291.97 74.63 299.34 74.97 301.78 53.54 321.16 56.06 320.56 92.04 320.55 92.56 316.69 98.77 311.82 106.63 306.38 115.4 297.77 117.64 276.11 114.96"/>
      <polygon class="cls-9" points="248.7 202.82 245.43 201.92 245.41 200.05 248.7 202.82"/>
      <polygon class="cls-14" points="245.41 200.05 245.43 201.92 229.95 197.69 230.08 189.43 233.44 189.98 245.41 200.05"/>
      <polygon class="cls-9" points="249.53 169.45 249.32 181.04 245.34 178.94 245.29 166.54 249.53 169.45"/>
      <polygon class="cls-14" points="245.56 236.76 245.58 242.7 229.3 237.61 229.37 232.73 245.56 236.76"/>
      <polygon class="cls-7" points="177.61 173.46 177.67 183.77 172.37 181.77 171.94 168.9 174.45 163.79 177.61 173.46"/>
      <polygon class="cls-9" points="226.66 213.57 226.3 223.37 225.37 223.53 225.44 213.24 226.66 213.57"/>
      <polygon class="cls-6" points="265.46 169.6 265.46 199.46 265.13 199.36 249.54 192.76 249.53 169.45 265.46 169.6"/>
      <polygon class="cls-12" points="293.8 29.88 296.03 43.96 283.8 39.49 283.8 39.48 282.57 39.03 278.79 37.65 278.79 25.64 293.8 29.88"/>
      <polygon class="cls-9" points="227.55 189.01 227.26 196.96 225.55 196.49 225.63 185.7 227.68 185.15 227.55 189.01"/>
      <polygon class="cls-7" points="171.46 152.33 175.86 154.88 171.48 153.14 171.46 152.33"/>
      <polygon class="cls-6" points="225.37 223.53 225.32 231.71 209.86 227.87 209.86 226.12 225.37 223.53"/>
      <polygon class="cls-14" points="245.43 201.92 245.48 217.6 229.78 208.2 229.95 197.69 245.43 201.92"/>
      <polygon class="cls-7" points="176.54 203.45 173.03 202.28 173.03 202.27 176.54 203.45"/>
      <polygon class="cls-9" points="209.86 231.52 209.86 231.56 205.95 230.29 209.86 231.52"/>
      <polygon class="cls-9" points="248.64 219.49 245.49 218.64 245.48 217.6 248.64 219.49"/>
      <polygon class="cls-13" points="265.46 113.99 276.11 114.96 297.77 117.64 306.38 115.4 307.44 141.4 291.97 144.9 291.88 138.54 286.96 129.77 278.79 140.13 278.79 144.9 265.46 138.42 265.46 113.99"/>
      <polygon class="cls-9" points="225.99 231.88 225.83 236.51 225.28 236.35 225.32 231.71 225.99 231.88"/>
      <polygon class="cls-9" points="225.83 236.51 229.3 237.61 225.28 236.44 225.28 236.35 225.83 236.51"/>
      <polygon class="cls-9" points="226.3 223.37 229.5 225.42 229.37 232.73 225.99 231.88 226.3 223.37"/>
      <polygon class="cls-7" points="400.01 129.77 400.68 158.23 393.92 160.83 393.92 131.68 400.01 129.77"/>
      <polygon class="cls-9" points="249.56 216.47 249.57 243.95 248.2 243.52 248.32 237.45 248.64 219.49 248.69 215.89 248.7 215.89 249.56 216.47"/>
      <polygon class="cls-13" points="258.94 107.88 258.93 107.88 246.75 98.22 246.67 97.04 246.41 93.01 243.97 55.31 262.68 55.31 262.63 75.74 273.77 76.96 279.78 113.87 265.6 113.87 265.46 113.87 265.46 113.05 258.94 107.88"/>
      <polygon class="cls-13" points="265.46 169.6 278.79 179.41 292.45 179.41 308.73 172.81 309.82 199.36 292.38 203.88 292.38 197.26 287.23 188.97 281.12 197.35 281.19 203.88 281.12 203.88 265.46 199.46 265.46 169.6"/>
      <polygon class="cls-6" points="219.51 64.54 219.51 82.67 214.58 93.81 212.39 98.77 190.24 100.75 200.67 89.29 202.72 80.78 202.09 62.77 219.51 64.54"/>
      <polygon class="cls-7" points="245.29 166.53 230.63 156.48 228.77 155.21 209.86 160.59 205.64 161.8 228.77 132.71 249.53 169.45 245.29 166.53"/>
      <polygon class="cls-9" points="226.3 223.37 225.99 231.88 225.32 231.71 225.37 223.53 226.3 223.37"/>
      <polygon class="cls-13" points="170.35 115.21 169.85 98.22 190.24 100.75 190.64 127.59 190.63 127.59 180.48 132.71 175.68 130.19 175.28 120.37 172.42 110 170.35 115.21"/>
      <polygon class="cls-9" points="228.24 169.94 227.93 178.54 225.67 178.27 225.73 170.6 228.24 169.94"/>
      <polygon class="cls-7" points="177.67 183.77 177.77 203.88 176.54 203.45 173.03 202.27 172.37 181.77 177.67 183.77"/>
      <polygon class="cls-7" points="401.12 175.78 401.37 184.48 395.45 186.56 395.87 176.38 400.02 168.81 401.12 175.78"/>
      <polygon class="cls-13" points="354.93 93.01 348.1 82.67 348.1 62.74 359.21 62.74 362.55 80.78 365.41 92.54 378.62 105.27 360.72 101.75 354.93 93.01"/>
      <polygon class="cls-9" points="248.93 202.82 248.69 215.89 248.64 219.49 245.48 217.6 245.43 201.92 248.7 202.82 248.93 202.82"/>
      <polygon class="cls-13" points="265.46 138.42 278.79 144.9 278.79 179.41 265.46 169.6 265.46 138.42"/>
      <polygon class="cls-6" points="205.64 191.04 205.64 205.54 192.09 203.88 191.77 203.93 191.49 185.28 192.09 185.28 205.64 187.17 205.64 191.04"/>
      <polygon class="cls-9" points="228.77 155.21 228.24 169.94 225.73 170.6 225.83 156.06 228.77 155.21"/>
    </g>
    <polyline class="cls-12" points="240.41 241.08 228.66 268.39 266.36 313.56 345.1 316 410.11 337.27 413.67 364.82 383.97 398.57 278.59 465.8 157.41 478.89 60.13 435.27 46.37 392.67 43.66 342.74 72.47 321.83 80.65 369.59 139.44 395.78 234.11 401.81 334.67 364.92 350.33 348.75 255.24 332.29 226.52 313.56 195.85 266.05 212.39 232.31"/>
    <g>
      <polygon class="cls-7" points="195.28 304.21 195.85 308.49 194.75 313.13 188.24 313.23 183.78 309.93 185.97 305.53 188.32 302.67 189.81 301.55 195.28 304.21"/>
      <polygon class="cls-9" points="176.38 297.65 176.32 297.73 168.06 292.02 162.04 287.42 169.75 280.58 170.78 281.96 168.11 284.21 168.11 286.7 177.32 292.71 178.94 291.44 188.42 302.53 188.32 302.67 185.97 305.53 176.38 297.65"/>
      <polygon class="cls-12" points="170.78 281.96 172.84 280.23 182.31 288.78 178.94 291.44 177.32 292.71 168.11 286.7 168.11 284.21 170.78 281.96"/>
      <polygon class="cls-14" points="176.32 297.73 170.19 313.79 170.18 313.79 169.8 313.57 159.36 308.32 168.06 292.02 176.32 297.73"/>
      <polygon class="cls-9" points="164.57 278.83 165.66 277.69 171.45 271.63 174.01 276.79 169.75 280.58 162.04 287.42 157.79 291.19 152.46 286.47 159.64 282.31 161.2 281.41 163.23 280.23 164.57 278.83"/>
      <polygon class="cls-7" points="170.19 313.79 168.25 318.86 163.73 320.96 159.36 308.32 169.8 313.57 170.18 313.79 170.19 313.79"/>
      <polygon class="cls-9" points="130.68 238.49 165.66 277.69 164.57 278.83 108.49 229.57 130.68 238.49"/>
      <polygon class="cls-2" points="108.49 229.57 164.57 278.83 163.23 280.23 161.2 281.41 107.4 230.78 107.39 230.78 106.55 228.79 108.48 229.56 108.49 229.57"/>
      <polygon class="cls-14" points="159.36 308.32 163.73 320.96 145.48 329.41 139.57 320.81 136.11 315.79 159.36 308.32"/>
      <polygon class="cls-9" points="161.2 281.41 159.64 282.31 115.16 249.23 107.39 230.78 107.4 230.78 161.2 281.41"/>
      <polygon class="cls-14" points="151.18 430.69 138.37 436.72 122.62 435.39 126.83 427.45 151.18 430.69"/>
      <polygon class="cls-9" points="151.18 430.69 126.83 427.45 127.15 426.84 129.14 423.1 140.21 424.54 151.18 430.69"/>
      <polygon class="cls-7" points="139.57 320.81 145.48 329.41 144.2 334.43 135.28 328.24 133.35 319.09 135.28 314.57 136.11 315.79 139.57 320.81"/>
      <polygon class="cls-1" points="144.96 362.1 145.48 381.2 143.59 381.59 130.26 384.31 117.12 387 107.32 385.61 99.18 384.47 117.87 373.64 121.17 362.13 126.83 362.13 134.56 360.49 135.16 361.25 136.11 361.02 135.47 379.4 139.62 379.4 137.55 360.67 138.47 360.45 138.59 359.64 142.73 358.76 144.96 362.1"/>
      <polygon class="cls-10" points="144.2 334.43 144.63 350.18 141.64 357.13 138.91 357.42 139.08 356.27 131.87 357.13 132.63 358.08 126.09 358.76 122.14 358.76 128.97 334.91 111.75 323.2 111.75 323.19 111.15 317.82 100.53 315.81 104.69 312.24 112.68 313.62 117.09 316.57 122.64 325.62 127.9 324.82 128.97 317.55 131.23 313.4 133.77 312.38 135.28 314.57 133.35 319.09 135.28 328.24 144.2 334.43"/>
      <polygon class="cls-7" points="143.59 381.59 133.35 400.58 130.26 384.31 143.59 381.59"/>
      <polygon class="cls-7" points="142.73 358.76 138.59 359.64 138.91 357.42 141.64 357.13 142.73 358.76"/>
      <polygon class="cls-7" points="137.55 360.67 139.62 379.4 135.47 379.4 136.11 361.02 137.55 360.67"/>
      <polygon class="cls-7" points="139.08 356.27 138.91 357.42 132.63 358.08 131.87 357.13 139.08 356.27"/>
      <polygon class="cls-7" points="138.91 357.42 138.59 359.64 134.56 360.49 132.63 358.08 138.91 357.42"/>
      <polygon class="cls-7" points="138.59 359.64 138.47 360.45 137.55 360.67 136.11 361.02 135.16 361.25 134.56 360.49 138.59 359.64"/>
      <polygon class="cls-9" points="133.77 295.87 138.37 310.54 133.77 312.38 131.23 313.4 128.32 314.57 126.62 298.07 133.77 295.87"/>
      <polygon class="cls-7" points="132.63 358.08 134.56 360.49 126.83 362.13 121.17 362.13 122.14 358.76 126.09 358.76 132.63 358.08"/>
      <polygon class="cls-7" points="132.11 290.53 133.77 295.87 126.62 298.07 128.32 314.57 125.27 315.79 121.49 315.14 120.29 298.75 108.48 296.69 108.48 293.35 132.1 290.53 132.11 290.53"/>
      <polygon class="cls-9" points="133.35 400.58 133.77 402.79 129.14 423.1 118.38 428.59 118.42 427.45 118.56 423.35 118.96 412.08 119.15 406.58 114.04 397.53 107.32 385.61 117.12 387 130.26 384.31 133.35 400.58"/>
      <polygon class="cls-9" points="129.6 282.51 132.1 290.53 108.48 293.35 108.48 296.69 120.29 298.75 121.49 315.14 112.68 313.62 104.69 312.24 94.82 310.54 98.21 298.54 101.93 285.39 116.02 283.93 129.6 282.51"/>
      <polygon class="cls-14" points="131.23 313.4 128.97 317.55 127.9 324.82 122.64 325.62 117.09 316.57 112.68 313.62 121.49 315.14 125.27 315.79 128.32 314.57 131.23 313.4"/>
      <polygon class="cls-7" points="129.14 423.1 127.15 426.84 126.83 427.45 122.62 435.39 118.16 435.01 118.26 432.13 118.38 428.59 129.14 423.1"/>
      <polygon class="cls-9" points="122.14 358.76 121.17 362.13 117.87 373.64 99.18 384.47 94.82 387 94.07 375.84 111.47 366.75 119.15 339.24 98.99 327.06 104.42 318.21 111.75 323.19 111.75 323.2 128.97 334.91 122.14 358.76"/>
      <polygon class="cls-12" points="119.15 339.24 111.47 366.75 94.07 375.84 98.99 327.06 119.15 339.24"/>
      <polygon class="cls-7" points="114.04 397.53 119.15 406.58 118.96 412.08 116.79 415.48 107.16 408.01 114.04 397.53"/>
      <polygon class="cls-9" points="118.56 423.35 118.42 427.45 118.38 427.45 115.31 424.92 113.41 416.76 116.79 415.48 118.56 423.35"/>
      <polygon class="cls-14" points="118.42 427.45 118.38 428.59 118.26 432.13 118.16 432.13 109.44 431.71 105.01 419.95 113.41 416.76 115.31 424.92 118.38 427.45 118.42 427.45"/>
      <polygon class="cls-7" points="118.16 273.47 116.02 283.93 101.93 285.39 98.21 298.54 94.1 302.83 82.01 310.81 67.92 310.81 82.57 301.51 73.78 300.48 85.28 295.87 85.47 290.89 84.71 280.41 90.19 267.24 106.13 264.82 118.16 273.47"/>
      <polygon class="cls-7" points="116.79 415.48 113.41 416.76 105.01 419.95 102.92 414.45 107.16 408.01 116.79 415.48"/>
      <polygon class="cls-7" points="111.15 317.82 111.75 323.19 104.42 318.21 93.45 321.89 100.53 315.81 111.15 317.82"/>
      <polygon class="cls-14" points="104.42 318.21 98.99 327.06 84.35 331.48 85.99 363.21 94.07 375.84 94.82 387 78.8 367.34 78.05 327.06 93.45 321.89 104.42 318.21"/>
      <polygon class="cls-7" points="98.99 327.06 94.07 375.84 85.99 363.21 84.35 331.48 98.99 327.06"/>
    </g>
  </g>
</svg>