<?xml version="1.0" encoding="UTF-8"?>
<svg xmlns="http://www.w3.org/2000/svg" viewBox="0 0 500 500">
  <defs>
    <style>
      .cls-1 {
        fill: #fce7d5;
      }

      .cls-2 {
        fill: #fcc591;
      }

      .cls-3 {
        fill: #e29d6b;
      }

      .cls-4 {
        fill: #fca35d;
      }

      .cls-5 {
        fill: #fcfbf9;
      }

      .cls-6 {
        fill: #fcb165;
      }

      .cls-7 {
        fill: #fcbd73;
      }

      .cls-8 {
        fill: #fcbd8c;
      }

      .cls-9 {
        fill: #fcb46e;
      }

      .cls-10 {
        fill: #fcc794;
      }

      .cls-11 {
        fill: #fcead1;
      }

      .cls-12 {
        fill: #fcddc2;
      }

      .cls-13 {
        fill: #bc8857;
      }

      .cls-14 {
        fill: #fcf3e5;
      }

      .cls-15 {
        fill: #efd0b0;
      }

      .cls-16 {
        fill: #bc6c1f;
      }

      .cls-17 {
        fill: #fcfcfc;
      }
    </style>
  </defs>
  <g id="Layer_2" data-name="Layer 2">
    <rect class="cls-3" y=".03" width="500" height="500"/>
  </g>
  <g id="Layer_1" data-name="Layer 1">
    <g>
      <rect class="cls-3" x="0" width="500" height="500"/>
      <g>
        <polygon class="cls-13" points="457.79 21.13 470.52 72.53 450.88 93.64 448.3 88.77 450.53 87.02 450.53 42.64 440.03 73.12 429.36 53 422.71 40.43 457.79 21.13"/>
        <polygon class="cls-13" points="457.79 21.13 422.71 40.43 403.71 54.41 382.76 45.74 376.09 30.87 457.79 21.13"/>
        <polygon class="cls-3" points="448.3 88.77 450.88 93.64 443.7 92.42 448.3 88.77"/>
        <polygon class="cls-3" points="450.53 42.64 450.53 87.02 448.3 88.77 440.03 73.12 450.53 42.64"/>
        <polygon class="cls-3" points="440.03 73.12 448.3 88.77 443.7 92.42 433.95 90.75 440.03 73.12"/>
        <polygon class="cls-3" points="443.7 92.42 425.86 106.5 401.2 86.48 401.64 85.25 417.45 87.94 433.28 90.64 433.55 91.89 433.95 90.75 443.7 92.42"/>
        <polygon class="cls-5" points="440.03 73.12 433.95 90.75 433.28 90.64 425.59 55.08 429.36 53 440.03 73.12"/>
        <polygon class="cls-3" points="433.95 90.75 433.55 91.89 433.28 90.64 433.95 90.75"/>
        <polygon class="cls-3" points="425.59 55.08 433.28 90.64 417.45 87.94 417.59 87.02 425.59 55.08"/>
        <polygon class="cls-6" points="432.55 238.28 432.55 254.51 415.5 254.51 415.5 234.43 432.55 238.28"/>
        <polygon class="cls-6" points="432.55 206.89 432.55 238.28 431.78 206.53 432.55 206.89"/>
        <polygon class="cls-10" points="431.78 206.53 432.55 238.28 415.5 234.43 415.5 213.14 408.71 232.89 391.32 228.97 390.58 225.6 389.82 228.63 378.06 225.97 377.85 224.51 377.38 225.82 363.74 222.74 361.46 187.94 397.73 190.67 431.78 206.53"/>
        <polygon class="cls-14" points="431.32 187.15 431.78 206.53 397.73 190.67 406.12 165.97 431.32 187.15"/>
        <polygon class="cls-5" points="422.71 40.43 429.36 53 425.59 55.08 417.59 87.02 412.86 54.01 401.64 85.25 377.98 81.2 376.09 30.87 382.76 45.74 403.71 54.41 422.71 40.43"/>
        <polygon class="cls-3" points="412.86 54.01 417.59 87.02 417.45 87.94 401.64 85.25 412.86 54.01"/>
        <polygon class="cls-3" points="415.5 254.51 415.5 257.53 390.84 277.02 366.17 256.98 368.99 249.15 381.71 251.54 382.56 257.53 383.97 251.96 396.81 254.38 398.54 262.4 401.26 254.51 415.5 254.51"/>
        <polygon class="cls-3" points="415.5 234.43 415.5 254.51 401.26 254.51 408.71 232.89 415.5 234.43"/>
        <polygon class="cls-3" points="415.5 213.14 415.5 234.43 408.71 232.89 415.5 213.14"/>
        <polygon class="cls-6" points="408.71 232.89 401.26 254.51 397.54 254.51 396.81 254.38 391.32 228.97 408.71 232.89"/>
        <polygon class="cls-5" points="406.12 165.97 397.73 190.67 370.98 178.2 403.9 164.12 406.12 165.97"/>
        <polygon class="cls-12" points="403.9 124.62 403.9 164.12 370.98 178.2 370.98 138.15 403.9 124.62"/>
        <polygon class="cls-1" points="403.9 124.62 370.98 138.15 303.13 114.34 327 99.18 403.9 124.62"/>
        <polygon class="cls-6" points="401.26 254.51 398.54 262.4 396.81 254.38 397.54 254.51 401.26 254.51"/>
        <polygon class="cls-6" points="272.7 200.69 271.3 200.4 257.68 226.57 257.39 228.19 251.25 227.04 251.55 225.34 262.8 187.94 251.55 144.64 200.28 135.71 199.64 126.16 262.8 133.27 269.17 95.93 262.8 64.54 247.43 39.65 262.28 39.65 303.13 114.34 285.62 119.21 262.8 147.08 273.94 186.85 346.09 195.53 358.28 178.2 370.98 178.2 397.73 190.67 361.46 187.94 350.32 205.8 356.61 246.33 356.53 246.82 350.23 245.63 350.32 245.08 336.54 214.46 272.7 200.69"/>
        <polygon class="cls-6" points="396.81 254.38 383.97 251.96 389.82 228.63 391.32 228.97 396.81 254.38"/>
        <polygon class="cls-3" points="391.32 228.97 389.82 228.63 390.58 225.6 391.32 228.97"/>
        <polygon class="cls-6" points="389.82 228.63 383.97 251.96 381.71 251.54 378.06 225.97 389.82 228.63"/>
        <polygon class="cls-6" points="383.97 251.96 382.56 257.53 381.71 251.54 383.97 251.96"/>
        <polygon class="cls-3" points="378.06 225.97 381.71 251.54 368.99 249.15 377.38 225.82 378.06 225.97"/>
        <polygon class="cls-3" points="377.85 224.51 378.06 225.97 377.38 225.82 377.85 224.51"/>
        <polygon class="cls-9" points="377.38 225.82 368.99 249.15 356.53 246.82 356.61 246.33 350.32 205.8 361.46 187.94 363.74 222.74 377.38 225.82"/>
        <polygon class="cls-4" points="370.98 138.15 370.98 178.2 358.28 178.2 302.36 167.11 285.62 119.21 303.13 114.34 370.98 138.15"/>
        <polygon class="cls-13" points="358.28 178.2 346.09 195.53 273.94 186.85 262.8 147.08 285.62 119.21 302.36 167.11 358.28 178.2"/>
        <polygon class="cls-13" points="336.54 214.46 350.32 245.08 350.23 245.63 307.85 237.68 308.04 236.64 272.7 200.69 336.54 214.46"/>
        <polygon class="cls-12" points="293.04 31.54 327 99.18 303.13 114.34 262.28 39.65 247.43 39.65 293.04 31.54"/>
        <polygon class="cls-16" points="308.04 236.64 307.85 237.68 257.39 228.19 257.68 226.57 271.3 200.4 272.7 200.69 308.04 236.64"/>
        <polygon class="cls-1" points="293.04 31.54 247.43 39.65 193.85 39.65 218.79 24.49 293.04 31.54"/>
        <polygon class="cls-2" points="262.8 64.54 269.17 95.93 262.8 133.27 214.81 110.82 193.85 39.65 247.43 39.65 262.8 64.54"/>
        <polygon class="cls-13" points="251.55 144.64 262.8 187.94 251.55 225.34 251.25 227.04 226.38 222.38 201.3 150.81 200.28 135.71 251.55 144.64"/>
        <polygon class="cls-6" points="262.8 133.27 199.64 126.16 193.85 39.65 214.81 110.82 262.8 133.27"/>
        <polygon class="cls-16" points="226.38 222.38 205.83 218.52 201.3 150.81 226.38 222.38"/>
      </g>
      <polygon class="cls-17" points="48.36 385.08 40.91 395.94 50.81 404.63 63.63 391.77 48.36 385.08"/>
      <polygon class="cls-17" points="304.13 451.26 296.68 462.12 306.58 470.8 319.4 457.94 304.13 451.26"/>
      <polygon class="cls-17" points="36.01 144.78 31.01 150.74 37.65 155.51 46.27 148.45 36.01 144.78"/>
      <polygon class="cls-17" points="338.37 30.86 333.36 36.82 340.01 41.59 348.62 34.53 338.37 30.86"/>
      <g>
        <g>
          <polygon class="cls-3" points="454.94 438.98 462.61 459.94 435.27 481.71 407.93 460.54 407.93 459.07 423.46 456.46 426.75 465.83 429.03 455.53 442.59 453.27 444.45 460.54 445.57 452.76 454.46 451.28 454.94 438.98"/>
          <polygon class="cls-13" points="454.41 269.14 461.71 353.72 431.87 359.56 428.54 328.39 454.41 269.14"/>
          <polygon class="cls-13" points="456.56 396.6 454.94 438.98 449.68 424.66 445.57 452.76 442.59 453.27 435.57 425.84 429.03 455.53 423.46 456.46 407.93 412.31 409.41 410.27 425.94 422.17 449.17 412.77 456.56 396.6"/>
          <polygon class="cls-5" points="456.56 396.6 449.17 412.77 425.94 422.17 409.41 410.27 404.88 407 366.01 386.01 456.56 396.6"/>
          <polygon class="cls-3" points="454.94 438.98 454.46 451.28 445.57 452.76 449.68 424.66 454.94 438.98"/>
          <polygon class="cls-3" points="454.46 269.02 454.41 269.14 454.41 269.03 454.46 269.02"/>
          <polygon class="cls-4" points="454.41 269.03 454.41 269.14 428.54 328.39 425.98 304.49 401.88 357.4 394.23 315.07 391.3 353.72 381.88 327.65 381.51 331.17 380.12 326.62 392.59 279.6 454.41 269.03"/>
          <polygon class="cls-2" points="453.55 259.14 454.41 269.03 392.59 279.6 380.12 326.62 381.51 331.17 378.97 355.71 370.71 340.15 369.74 340.36 363.47 325.97 367.77 325.46 380.12 282.24 354.84 251.96 335.44 246.67 380.72 165.53 395.57 168.07 380.12 192.57 373.06 226.68 380.12 267.25 453.55 259.14"/>
          <polygon class="cls-13" points="446.44 176.76 453.55 259.14 380.12 267.25 433.33 242.84 446.14 176.71 446.44 176.76"/>
          <polygon class="cls-7" points="428.92 149.07 446.44 175.19 446.14 176.71 395.57 168.07 397.17 165.53 346.6 156.71 428.92 149.07"/>
          <polygon class="cls-6" points="446.14 176.71 433.33 242.84 380.12 267.25 373.06 226.68 380.12 192.57 395.57 168.07 446.14 176.71"/>
          <polygon class="cls-3" points="445.57 452.76 444.45 460.54 442.59 453.27 445.57 452.76"/>
          <polygon class="cls-3" points="435.57 425.84 442.59 453.27 429.03 455.53 435.57 425.84"/>
          <polygon class="cls-3" points="413.33 363.19 431.87 359.56 434.21 381.52 361.84 385.04 359.96 373.65 385.81 368.59 392.59 367.26 413.33 363.19"/>
          <polygon class="cls-3" points="428.54 328.39 431.87 359.56 413.33 363.19 428.54 328.39"/>
          <polygon class="cls-3" points="423.46 456.46 429.03 455.53 426.75 465.83 423.46 456.46"/>
          <polygon class="cls-3" points="425.98 304.49 428.54 328.39 413.33 363.19 392.59 367.26 381.51 331.17 381.88 327.65 391.3 353.72 394.23 315.07 401.88 357.4 425.98 304.49"/>
          <polygon class="cls-3" points="407.93 412.31 423.46 456.46 407.93 459.07 407.93 412.31"/>
          <polygon class="cls-13" points="409.41 410.27 407.93 412.31 407.93 459.07 373.66 464.81 404.88 407 409.41 410.27"/>
          <polygon class="cls-13" points="404.88 407 373.66 464.81 351.89 441.88 366.01 386.01 404.88 407"/>
          <polygon class="cls-14" points="397.17 165.53 395.57 168.07 380.72 165.53 335.44 246.67 308.98 230.21 346.6 156.71 397.17 165.53"/>
          <polygon class="cls-3" points="381.51 331.17 392.59 367.26 385.81 368.59 378.97 355.71 381.51 331.17"/>
          <polygon class="cls-3" points="378.97 355.71 385.81 368.59 359.96 373.65 356.55 353.05 360.75 348.87 365.42 353.72 364.05 345.59 369.16 340.49 369.74 340.36 378.49 360.35 378.97 355.71"/>
          <polygon class="cls-13" points="354.84 251.96 380.12 282.24 367.77 325.46 363.47 325.97 358.95 315.65 360.77 326.29 287.81 334.86 274.28 316.04 336.28 303.99 354.84 251.96"/>
          <polygon class="cls-13" points="370.71 340.15 378.97 355.71 378.49 360.35 369.74 340.36 370.71 340.15"/>
          <polygon class="cls-3" points="369.16 340.49 363.38 341.71 360.77 326.29 363.47 325.97 369.74 340.36 369.16 340.49"/>
          <polygon class="cls-3" points="369.16 340.49 364.05 345.59 363.38 341.71 369.16 340.49"/>
          <polygon class="cls-13" points="364.05 345.59 365.42 353.72 360.75 348.87 364.05 345.59"/>
          <polygon class="cls-4" points="363.38 341.71 364.05 345.59 360.75 348.87 355.47 343.38 363.38 341.71"/>
          <polygon class="cls-3" points="358.95 315.65 363.47 325.97 360.77 326.29 358.95 315.65"/>
          <polygon class="cls-2" points="360.77 326.29 363.38 341.71 355.47 343.38 354.84 342.71 354.96 343.49 298.4 355.45 283.1 388.7 276.15 390.05 283.1 346.03 270.76 326.62 230.57 329.59 260.22 316.04 274.28 316.04 287.81 334.86 360.77 326.29"/>
          <polygon class="cls-3" points="355.47 343.38 360.75 348.87 356.55 353.05 354.96 343.49 355.47 343.38"/>
          <polygon class="cls-13" points="356.55 353.05 359.96 373.65 330 379.51 356.55 353.05"/>
          <polygon class="cls-4" points="354.96 343.49 356.55 353.05 330 379.51 329.99 379.52 283.1 388.7 298.4 355.45 354.96 343.49"/>
          <polygon class="cls-3" points="354.84 342.71 355.47 343.38 354.96 343.49 354.84 342.71"/>
          <polygon class="cls-6" points="354.84 251.96 336.28 303.99 274.28 316.04 260.22 316.04 260.22 272.54 335.44 246.67 354.84 251.96"/>
          <polygon class="cls-10" points="335.44 246.67 260.22 272.54 223.73 257.83 308.98 230.21 335.44 246.67"/>
          <polygon class="cls-11" points="327.36 54.7 294.83 133.95 299.74 77.63 255.04 57.05 224.47 96.33 245.83 126.63 250.51 146.9 242.62 149.19 228.39 153.36 227.42 153 216.43 127.99 170.97 118.59 170.97 91.94 101.77 101.73 115.69 67.63 134.69 46.52 187.24 23.41 327.36 54.7"/>
          <polygon class="cls-8" points="299.74 77.63 294.83 133.95 268.23 141.72 250.51 146.9 245.83 126.63 224.47 96.33 255.04 57.05 299.74 77.63"/>
          <polygon class="cls-13" points="270.76 326.62 283.1 346.03 276.15 390.05 262.29 392.77 253.12 367.78 268.23 364.42 270.76 326.62"/>
          <polygon class="cls-6" points="270.76 326.62 268.23 364.42 253.12 367.78 252.6 366.36 252.38 367.93 239.34 370.83 238.49 367.53 237.68 371.18 218.4 375.45 210.85 354.02 210.85 377.12 191.98 381.3 191.98 347.21 230.57 329.59 270.76 326.62"/>
          <polygon class="cls-14" points="268.23 141.72 244.91 176.99 229.57 188.16 235.74 215.68 229.57 225.71 206.83 249.89 201.15 276.76 182.91 305.76 179.1 315.65 166.69 319.8 166.69 340.15 159.59 336.5 152.54 323.4 142.56 325.64 166.69 294.98 172.14 260.28 174.09 235.78 163.12 215.68 178.12 188.05 178.12 156.89 171.41 132.46 188.33 138.66 188.33 154.54 199.25 142.67 213.8 148.01 193.8 164.52 193.8 183.93 188.33 205.09 184.89 221.09 188.33 236.9 196.44 244.6 212.12 218.94 218.4 207.56 213.75 178.63 230.15 169.23 242.62 149.19 250.51 146.9 268.23 141.72"/>
          <polygon class="cls-3" points="262.29 392.77 265.53 401.64 238.19 423.39 210.85 402.22 210.85 398.94 226.66 398.94 229.67 407.52 231.6 398.78 245.78 396.02 247.37 402.22 248.35 395.5 262.29 392.77"/>
          <polygon class="cls-3" points="262.29 392.77 248.35 395.5 252.38 367.93 253.12 367.78 262.29 392.77"/>
          <polygon class="cls-15" points="260.22 272.54 260.22 316.04 223.73 300.77 223.73 257.83 260.22 272.54"/>
          <polygon class="cls-14" points="260.22 316.04 230.57 329.59 220.91 301.7 223.73 300.77 260.22 316.04"/>
          <polygon class="cls-13" points="252.38 367.93 248.35 395.5 245.78 396.02 239.34 370.83 252.38 367.93"/>
          <polygon class="cls-6" points="248.35 395.5 247.37 402.22 245.78 396.02 248.35 395.5"/>
          <polygon class="cls-3" points="239.34 370.83 245.78 396.02 231.6 398.78 237.68 371.18 239.34 370.83"/>
          <polygon class="cls-6" points="238.49 367.53 239.34 370.83 237.68 371.18 238.49 367.53"/>
          <polygon class="cls-13" points="237.68 371.18 231.6 398.78 230.79 398.94 226.66 398.94 218.4 375.45 237.68 371.18"/>
          <polygon class="cls-6" points="231.6 398.78 229.67 407.52 226.66 398.94 230.79 398.94 231.6 398.78"/>
          <polygon class="cls-7" points="220.91 301.7 230.57 329.59 191.98 347.21 191.98 381.3 191.98 398.94 166.69 379.54 166.69 340.15 166.69 319.8 179.1 315.65 220.91 301.7"/>
          <polygon class="cls-16" points="216.43 127.99 227.42 153 213.8 148.01 199.25 142.67 188.33 138.66 171.41 132.46 164.3 129.84 134.71 152.12 122.78 161.1 111.97 169.23 60.82 141.59 53.76 116.32 73.76 43.41 133.74 46.94 134.69 46.52 115.69 67.63 101.77 101.73 170.97 91.94 170.97 118.59 216.43 127.99"/>
          <polygon class="cls-3" points="218.4 375.45 226.66 398.94 210.85 398.94 210.85 377.12 218.4 375.45"/>
          <polygon class="cls-12" points="213.75 178.63 218.4 207.56 212.12 218.94 196.44 244.6 188.33 236.9 208.4 210.51 208.4 181.7 213.75 178.63"/>
          <polygon class="cls-3" points="218.4 375.45 210.85 377.12 210.85 354.02 218.4 375.45"/>
          <polygon class="cls-13" points="210.85 377.12 210.85 398.94 191.98 398.94 191.98 381.3 210.85 377.12"/>
          <polygon class="cls-12" points="163.12 215.68 174.09 235.78 172.14 260.28 166.69 294.98 142.56 325.64 144.9 401.59 127.26 345.04 125.5 329.16 98.05 345.32 73.36 344.14 46.9 354.02 46.27 346.96 72.78 331.21 99.82 331.21 134.71 306.94 162.54 254.6 150.78 200.68 122.78 161.1 134.71 152.12 163.12 186.87 163.12 215.68"/>
          <polygon class="cls-13" points="119.03 188.76 131.37 222.85 97.28 246.08 87.88 196.98 119.03 188.76"/>
          <polygon class="cls-5" points="119.03 188.76 87.88 196.98 37.3 188.76 72 177.58 119.03 188.76"/>
          <polygon class="cls-4" points="87.88 196.98 97.28 246.08 76.2 238.92 70.24 217.42 70.24 233.44 59.65 207.56 57.29 225.71 44.94 207.56 44.94 228.3 37.3 225.71 37.3 188.76 87.88 196.98"/>
          <polygon class="cls-3" points="76.2 238.92 78.17 246.08 44.94 246.08 44.94 239.31 44.94 228.3 76.2 238.92"/>
          <polygon class="cls-3" points="76.2 238.92 44.94 228.3 44.94 207.56 57.29 225.71 59.65 207.56 70.24 233.44 70.24 217.42 76.2 238.92"/>
        </g>
        <g>
          <polygon class="cls-17" points="172.54 240.74 179.19 259.07 174.66 257.69 174.66 257.68 165.68 254.94 161.85 253.78 154.74 255.65 143.46 258.61 141.76 259.07 153.92 241.71 172.54 240.74"/>
          <polygon class="cls-16" points="174.66 257.68 174.66 257.69 172.24 264.36 163.86 264.36 165.68 254.94 174.66 257.68"/>
          <polygon class="cls-11" points="165.68 254.94 163.86 264.36 157.99 264.36 154.74 255.65 161.85 253.78 165.68 254.94"/>
          <polygon class="cls-16" points="154.74 255.65 157.99 264.36 156.23 264.36 143.46 258.61 154.74 255.65"/>
        </g>
        <g>
          <polygon class="cls-17" points="185.77 271.7 194.1 287.43 188.42 285.92 181.64 284.08 176.58 282.72 170.21 282.93 161.85 283.22 154.74 283.46 159.07 278.31 165.68 271.7 185.77 271.7"/>
          <polygon class="cls-16" points="181.64 284.08 188.42 285.92 182.63 290.96 178.19 289.92 181.64 284.1 181.64 284.08"/>
          <polygon class="cls-11" points="181.64 284.08 181.64 284.1 178.19 289.92 171.77 288.4 170.21 282.95 170.21 282.93 176.58 282.72 181.64 284.08"/>
          <polygon class="cls-16" points="170.21 282.95 171.77 288.4 167.69 287.43 161.85 283.22 170.21 282.93 170.21 282.95"/>
        </g>
        <g>
          <polygon class="cls-17" points="147.69 279.57 147.69 289.92 146.1 289.14 139.47 285.93 137.11 284.79 141.76 277.15 147.69 279.57"/>
          <polygon class="cls-16" points="146.1 289.14 146.08 289.18 143.46 292.42 140.35 290.96 139.47 285.93 146.1 289.14"/>
        </g>
        <g>
          <g>
            <polygon class="cls-13" points="165.26 441.54 159.17 450.49 147.19 464.01 149.72 464.6 173.36 446.08 173.06 459.75 184.23 470.55 185.48 468.35 179.14 458.73 185.97 448.74 207.35 453.87 210.18 460.44 212.78 457.5 208.19 445.54 165.26 441.54"/>
            <g>
              <polygon class="cls-14" points="225.81 354.85 257.58 405.74 240.5 416.34 220.82 373.87 181.43 366.11 179.86 401.21 207.78 419.75 233.36 420.77 238.68 445.13 168.41 451.25 134.58 416.11 153.51 387.61 140.47 357.34 158.09 348.59 181.43 348.22 225.81 354.85"/>
              <polygon class="cls-17" points="220.82 373.87 240.5 416.34 233.36 420.77 207.78 419.75 179.86 401.21 181.43 366.11 220.82 373.87"/>
              <polygon class="cls-10" points="134.58 416.11 168.41 451.25 134.58 454.2 108.28 429.59 87.26 402.37 108.28 387.61 116.36 349.26 158.09 348.59 140.47 357.34 153.51 387.61 134.58 416.11"/>
            </g>
          </g>
          <g>
            <polygon class="cls-11" points="115.03 410.52 113.18 416.25 120.97 417.87 122.44 411.26 115.03 410.52"/>
            <polygon class="cls-11" points="147.45 432.66 141.44 432.25 141.76 440.2 148.53 440.03 147.45 432.66"/>
            <polygon class="cls-11" points="134.51 374.43 132.65 380.17 140.44 381.78 141.91 375.17 134.51 374.43"/>
            <polygon class="cls-11" points="116.68 386.26 111.36 389.09 115.83 395.67 121.49 391.94 116.68 386.26"/>
            <polygon class="cls-11" points="169.91 396.51 164.59 399.33 169.06 405.92 174.72 402.19 169.91 396.51"/>
            <polygon class="cls-11" points="175.5 421.97 170.18 424.8 174.65 431.38 180.31 427.65 175.5 421.97"/>
            <polygon class="cls-11" points="149.72 408.09 152.92 413.2 159.17 408.27 155.05 402.89 149.72 408.09"/>
            <polygon class="cls-11" points="167.13 365.07 161.81 367.9 166.28 374.48 171.94 370.75 167.13 365.07"/>
            <polygon class="cls-11" points="219.67 404.63 214.35 407.45 218.82 414.04 224.48 410.31 219.67 404.63"/>
            <polygon class="cls-11" points="207.97 433.26 202.65 436.08 207.12 442.66 212.78 438.94 207.97 433.26"/>
            <polygon class="cls-11" points="196.88 383.81 192.34 379.84 187.79 386.37 193.29 390.32 196.88 383.81"/>
            <polygon class="cls-11" points="217.38 357.4 212.05 360.22 216.52 366.8 222.18 363.08 217.38 357.4"/>
          </g>
        </g>
      </g>
      <g>
        <path class="cls-16" d="m475.77,318.14l17.36,28.92-22.62-4.61h-22.1l-10.53,4.61,9.22-27.9,10.54-.37,1.15,4.48,8.03,2.05,2.49-6.94,6.44-.23Zm.54,22.16l4.2-4.09-5.78-2.31-2.76,3.85,4.34,2.55Zm-19.87-8.58l-4.99-5.38-5.27,7.31,5.27,3.46,4.99-5.38Z"/>
        <polygon class="cls-11" points="493.13 347.06 490.51 352.04 469.22 352.04 467.75 342.45 470.51 342.45 493.13 347.06"/>
        <polygon class="cls-17" points="480.5 336.22 476.3 340.31 471.96 337.75 474.73 333.91 480.5 336.22"/>
        <polygon class="cls-17" points="469.22 352.04 473.15 377.87 465.51 382.22 454.79 379.36 451.45 370.69 455.99 351.57 457.88 352.04 469.22 352.04"/>
        <polygon class="cls-17" points="469.33 318.37 466.83 325.31 458.8 323.27 457.65 318.79 469.33 318.37"/>
        <polygon class="cls-17" points="467.75 342.45 469.22 352.04 457.88 352.04 455.99 351.57 458.15 342.45 467.75 342.45"/>
        <polygon class="cls-11" points="458.15 342.45 455.99 351.57 437.89 347.06 448.41 342.45 458.15 342.45"/>
        <polygon class="cls-17" points="451.45 326.34 456.43 331.72 451.45 337.11 446.17 333.65 451.45 326.34"/>
      </g>
      <g>
        <polygon class="cls-16" points="90.55 268.95 90.84 269.39 90.09 269.36 90.55 268.95"/>
        <polygon class="cls-16" points="82.72 256.9 90.55 268.95 90.09 269.36 73.6 268.48 71.29 268.48 67.82 268.48 67.82 266.87 71.51 263.25 69.82 259.89 72.62 259.18 77.03 261.86 81.22 257.69 82.72 256.9"/>
        <polygon class="cls-11" points="90.09 269.36 78.83 279.07 73.03 279.07 71.29 268.48 73.6 268.48 90.09 269.36"/>
        <polygon class="cls-16" points="78.02 249.66 82.72 256.9 81.22 257.69 77.03 253.52 72.62 259.18 69.82 259.89 66.46 262.33 62.69 261.86 58.51 257.69 54.09 263.34 50.77 262.13 55.61 251.43 63.02 250.85 63.8 253.64 70.52 255.22 72.52 250.1 78.02 249.66"/>
        <polygon class="cls-17" points="77.03 253.52 81.22 257.69 77.03 261.86 72.62 259.18 77.03 253.52"/>
        <polygon class="cls-17" points="73.03 279.07 75.81 295.92 69.42 299.29 60.44 297.06 57.62 290.36 60.52 279.07 73.03 279.07"/>
        <polygon class="cls-17" points="71.29 268.48 73.03 279.07 60.52 279.07 63.25 268.48 67.82 268.48 71.29 268.48"/>
        <polygon class="cls-17" points="72.52 250.1 70.52 255.22 63.8 253.64 63.02 250.85 72.52 250.1"/>
        <polygon class="cls-17" points="69.82 259.89 71.51 263.25 67.82 266.87 66.46 262.33 69.82 259.89"/>
        <polygon class="cls-16" points="67.82 266.87 67.82 268.48 63.25 268.48 58.51 268.48 58.51 266.02 62.69 261.86 66.46 262.33 67.82 266.87"/>
        <polygon class="cls-11" points="63.25 268.48 60.52 279.07 56.86 279.07 46.27 272.05 55.08 268.48 58.51 268.48 63.25 268.48"/>
        <polygon class="cls-17" points="58.51 257.69 62.69 261.86 58.51 266.02 54.09 263.34 58.51 257.69"/>
        <polygon class="cls-16" points="58.51 266.02 58.51 268.48 55.08 268.48 46.27 272.05 50.77 262.13 54.09 263.34 58.51 266.02"/>
      </g>
      <g>
        <path class="cls-11" d="m461.9,80.36l11.04,16.99-14.38-2.71h-14.05l-6.69,2.71,5.85-16.39,6.71-.22.73,2.63,5.1,1.2,1.6-4.07,4.09-.14Zm.33,13.02l2.68-2.4-3.68-1.36-1.76,2.26,2.76,1.5Zm-12.62-5.04l-3.18-3.16-3.34,4.29,3.34,2.03,3.18-3.16Z"/>
        <polygon class="cls-16" points="472.94 97.35 471.27 100.29 457.74 100.29 456.81 94.64 458.56 94.64 472.94 97.35"/>
        <polygon class="cls-17" points="464.91 90.98 462.24 93.38 459.48 91.88 461.23 89.62 464.91 90.98"/>
        <polygon class="cls-17" points="457.74 100.29 460.23 115.45 455.38 118 448.57 116.32 446.43 111.23 449.32 100.01 450.53 100.29 457.74 100.29"/>
        <polygon class="cls-17" points="457.81 80.5 456.21 84.57 451.12 83.37 450.38 80.74 457.81 80.5"/>
        <polygon class="cls-17" points="457.74 100.29 450.53 100.29 449.32 100.01 450.7 94.64 456.81 94.64 457.74 100.29"/>
        <polygon class="cls-16" points="450.7 94.64 449.32 100.01 437.82 97.35 444.51 94.64 450.7 94.64"/>
        <polygon class="cls-17" points="446.43 85.18 449.61 88.34 446.43 91.5 443.09 89.47 446.43 85.18"/>
      </g>
    </g>
  </g>
</svg>