<?xml version="1.0" encoding="UTF-8"?>
<svg xmlns="http://www.w3.org/2000/svg" xmlns:xlink="http://www.w3.org/1999/xlink" viewBox="0 0 500 500">
  <defs>
    <style>
      .cls-1 {
        fill: url(#linear-gradient-2);
      }

      .cls-2 {
        fill: #ff94d8;
      }

      .cls-3 {
        fill: #c73191;
      }

      .cls-4 {
        fill: #ff80d1;
      }

      .cls-5 {
        fill: #ee5bb8;
      }

      .cls-6 {
        fill: url(#New_Pattern_Swatch_39);
      }

      .cls-7 {
        fill: none;
      }

      .cls-8 {
        fill: #ff40b1;
      }

      .cls-9 {
        fill: #ffbfe8;
      }

      .cls-10 {
        fill: url(#linear-gradient-3);
      }

      .cls-11 {
        fill: url(#linear-gradient);
      }

      .cls-12 {
        fill: #ad2e6c;
      }

      .cls-13 {
        fill: url(#linear-gradient-4);
      }
    </style>
    <linearGradient id="linear-gradient" x1="259" y1="451.66" x2="461" y2="451.66" gradientUnits="userSpaceOnUse">
      <stop offset="0" stop-color="#ff80d1"/>
      <stop offset=".49" stop-color="#ee5bb8"/>
      <stop offset="1" stop-color="#ff94d8"/>
    </linearGradient>
    <linearGradient id="linear-gradient-2" x1="133.67" y1="143.67" x2="445" y2="143.67" xlink:href="#linear-gradient"/>
    <linearGradient id="linear-gradient-3" x1="21" y1="444.66" x2="231.67" y2="444.66" xlink:href="#linear-gradient"/>
    <linearGradient id="linear-gradient-4" x1="11067" y1="-11569" x2="11201" y2="-11569" gradientTransform="translate(-11067 -11526) scale(1 -1)" gradientUnits="userSpaceOnUse">
      <stop offset="0" stop-color="#ff94d8"/>
      <stop offset=".16" stop-color="#ef7dc5"/>
      <stop offset=".37" stop-color="#de65b2"/>
      <stop offset=".49" stop-color="#d85dab"/>
      <stop offset=".62" stop-color="#da60ae"/>
      <stop offset=".74" stop-color="#e36cb7"/>
      <stop offset=".86" stop-color="#f180c8"/>
      <stop offset=".95" stop-color="#ff94d8"/>
    </linearGradient>
    <pattern id="New_Pattern_Swatch_39" data-name="New Pattern Swatch 39" x="0" y="0" width="134" height="86" patternTransform="translate(-4970.96 -4758.73) scale(.37)" patternUnits="userSpaceOnUse" viewBox="0 0 134 86">
      <g>
        <rect class="cls-7" width="134" height="86"/>
        <rect class="cls-13" width="134" height="86"/>
      </g>
    </pattern>
  </defs>
  <g id="Layer_1" data-name="Layer 1">
    <rect class="cls-8" width="500" height="500"/>
  </g>
  <g id="Layer_2" data-name="Layer 2">
    <g>
      <polygon class="cls-2" points="173.86 129.94 173.71 130.75 170.12 149.86 170.04 149.88 155.44 147.67 151.45 133.89 173.86 129.94"/>
      <polygon class="cls-2" points="170.12 149.86 170.11 149.89 170.04 149.88 170.12 149.86"/>
      <polygon class="cls-5" points="170.12 149.86 173.71 130.75 173.89 130.78 181.23 131 191 143.44 170.12 149.86"/>
    </g>
    <g>
      <path class="cls-4" d="m500,400.44v99.56H0v-99.56l161.67-12.11,211,12.11h127.33Zm-52.33,79.23l13.33-53.34-202-3.33,20,57.33,168.67-.66Zm-216-34.67l-16.67-38.67-72.67.67-121.33,14.67,1.33,61.33,209.34-38Z"/>
      <polygon class="cls-12" points="500 375.65 500 400.44 499.78 400.44 372.67 400.44 161.67 388.33 0 400.44 0 375.22 157.89 354.11 273 361.22 273.44 367.67 282.33 360.78 294.56 380.11 302.78 363.44 400.56 370.11 500 375.65"/>
      <path class="cls-11" d="m461,426.33l-13.33,53.34-168.67.66-20-57.33,202,3.33Zm-52.67,37.34l-1.33-18.67-98.67,4.67,5.34,11.33,94.66,2.67Z"/>
      <path class="cls-1" d="m445,17.67l-55.33,88.66-7.34,71.34,12.67,72.66.36.99-51.03,18.35-102.07-7.73.07-.94,65.34-52,14-51.33-23.34-118-160.66-4.67-4-16.67,311.33-.66Zm-85.33,48.66l39.33-26.66-78.67,5.33,2,3.33,19.34,108,28.66,2.67-10.66-92.67Zm14.66,156l-15.33-26-20-1.33-33.33,52.67,39.33,5.33,29.33-30.67Z"/>
      <polygon class="cls-12" points="407.67 123.67 441.67 234.67 419.75 242.55 419.67 242.33 406.33 178 407.67 123.67"/>
      <polygon class="cls-5" points="407 445 408.33 463.67 313.67 461 308.33 449.67 407 445"/>
      <polygon class="cls-5" points="399 39.67 359.67 66.33 370.33 159 341.67 156.33 322.33 48.33 320.33 45 399 39.67"/>
      <polygon class="cls-5" points="359 196.33 374.33 222.33 345 253 305.67 247.67 339 195 359 196.33"/>
      <polygon class="cls-4" points="215.2 228.63 287 175 291.67 140.33 275.67 58.33 117.67 51 0 0 500 0 407.67 123.67 406.33 178 419.67 242.33 419.75 242.55 395.36 251.32 395 250.33 382.33 177.67 389.67 106.33 445 17.67 133.67 18.33 137.67 35 298.33 39.67 321.67 157.67 307.67 209 242.33 261 242.26 261.94 221 260.33 215.2 228.63"/>
      <polygon class="cls-12" points="291.67 140.33 287 175 215.2 228.63 209.67 198.33 233.68 181.35 241 191.33 245.16 173.23 255.67 172.33 291.67 140.33"/>
      <path class="cls-10" d="m215,406.33l16.67,38.67-209.34,38-1.33-61.33,121.33-14.67,72.67-.67Zm-22,28.67l4.67-12.67-52.67-2,8.67,18.67,39.33-4Z"/>
      <polygon class="cls-5" points="197.67 422.33 193 435 153.67 439 145 420.33 197.67 422.33"/>
    </g>
    <g>
      <polygon class="cls-9" points="104.33 277.64 106.29 299.15 100.31 295.21 93.76 268.41 93.88 268.27 104.33 277.64"/>
      <polygon class="cls-3" points="138.93 303.88 194.98 334.8 211.51 375.74 212.7 404.92 198.11 414.89 193.5 402.38 193.5 379.91 171.91 346.71 123.98 339.57 97.48 323.79 100.31 295.21 106.29 299.15 106.78 304.56 111.11 309.55 113.35 303.54 121.89 309.94 131.34 299.61 139.16 311.13 138.93 303.88"/>
      <path class="cls-6" d="m131.34,299.61l-.67-.98v-19.65l-8.63-8.04-3.72-22.03,3.28-19.06h0s6.4-6.25,6.4-6.25l-1.93-24.26-11.46-6.1-15.18,4.91-.45,23.67,6.81,5.66,5.1,13.1,1.19,24.26,8.93,18.16-7.65,20.54-2.24,6.02-4.33-5-.49-5.41-1.96-21.51-10.45-9.37-2.5-2.24-1.25-7.27-3.38-19.65-2.51-14.61,5.36-29.47,15.63-9.82,14.29-.45,16.52,11.16,1.79,29.47-1.11,10.43-.48,4.48-.65,6.08,4.11,11.38,1.7,4.69s.75,11.46.75,13.25-3.43,21.58-3.43,21.58l.21,6.59.23,7.26-7.82-11.52Z"/>
      <polygon class="cls-9" points="105.78 227.48 115.64 235.66 121.59 229.85 121.6 229.86 118.32 248.91 122.04 270.94 130.68 278.98 130.68 298.63 131.34 299.61 121.89 309.94 113.35 303.54 121 283 112.07 264.84 110.88 240.57 105.78 227.48"/>
      <polygon class="cls-12" points="232.35 420.4 238.78 440.11 222.93 440.29 196.92 429.63 174.36 434.02 152.33 432.56 165.21 412.66 193.5 402.38 198.11 414.89 212.7 404.92 232.35 420.4"/>
      <polygon class="cls-12" points="171.91 346.71 193.5 379.91 171.91 355.05 123.53 350.88 85 344.33 84.78 326.33 100.31 295.21 97.48 323.79 123.98 339.57 171.91 346.71"/>
      <polygon class="cls-9" points="136.71 235.82 142.43 243.55 139.7 257.76 135.59 246.38 136.24 240.3 136.71 235.82"/>
      <path class="cls-9" d="m105.78,227.48l-6.81-5.66.45-23.67,15.18-4.91,11.46,6.1,1.93,24.26-6.4,6.25-5.95,5.81-9.86-8.19Zm18.39-16.43l1.29-3.08-2.58.89-2.98-.5-2.98,2.38,3.08-.5,4.17.79Zm-17.47-.89l3.68.69-3.87-2.58-3.18.99-2.78-.5,2.08,2.68,4.07-1.29Z"/>
      <polygon class="cls-3" points="125.46 207.97 124.17 211.05 120.01 210.26 116.93 210.75 119.91 208.37 122.89 208.87 125.46 207.97"/>
      <polygon class="cls-3" points="110.38 210.85 106.71 210.16 102.64 211.45 100.56 208.77 103.34 209.27 106.51 208.27 110.38 210.85"/>
      <polygon class="cls-9" points="86.75 239.11 90.13 258.76 85.42 283.89 75.45 324.23 47.17 324.38 55.8 316.35 67.11 313.07 77.39 244.89 86.75 239.11"/>
    </g>
    <path class="cls-3" d="m347.44,100.78s24.89,10.22,26.22,10.22,25.78-14.22,25.78-14.22l-12-21.33-31.11-.44,8.44,13.78-17.33,12Z"/>
    <g>
      <polygon class="cls-4" points="89.23 117.66 135 129 171.34 121.33 155.67 112.33 155 96 132.34 83 124 73 88.56 93.22 89.23 117.66"/>
      <polygon class="cls-5" points="155 96 155.67 112.33 171.34 121.33 194.34 126 203.34 110.33 181.67 76 124 73 132.34 83 155 96"/>
    </g>
  </g>
</svg>