<?xml version="1.0" encoding="UTF-8"?>
<svg xmlns="http://www.w3.org/2000/svg" xmlns:xlink="http://www.w3.org/1999/xlink" viewBox="0 0 500 500">
  <defs>
    <style>
      .cls-1 {
        fill: url(#linear-gradient-2);
      }

      .cls-2 {
        fill: #fff;
      }

      .cls-3 {
        fill: url(#New_Pattern_Swatch_32);
      }

      .cls-4 {
        fill: #184bc2;
      }

      .cls-5 {
        fill: #3a6de2;
      }

      .cls-6 {
        fill: #3664ce;
      }

      .cls-7 {
        fill: #1d3875;
      }

      .cls-8 {
        fill: #698cda;
      }

      .cls-9 {
        fill: url(#New_Pattern_Swatch_33);
      }

      .cls-10 {
        fill: #0d3eaf;
      }

      .cls-11 {
        fill: url(#New_Pattern_Swatch_32-3);
      }

      .cls-12 {
        fill: #002f9b;
      }

      .cls-13 {
        fill: url(#New_Pattern_Swatch_32-4);
      }

      .cls-14 {
        fill: none;
      }

      .cls-15 {
        fill: #234289;
      }

      .cls-16 {
        fill: #001e62;
      }

      .cls-17 {
        fill: #00184e;
      }

      .cls-18 {
        fill: url(#linear-gradient);
      }

      .cls-19 {
        fill: url(#New_Pattern_Swatch_32-2);
      }

      .cls-20 {
        fill: #7398ee;
      }
    </style>
    <linearGradient id="linear-gradient" x1="11062.82" y1="-11891.49" x2="11317.72" y2="-11891.49" gradientTransform="translate(-11062.82 -11807.76) scale(1 -1)" gradientUnits="userSpaceOnUse">
      <stop offset="0" stop-color="#7398ee"/>
      <stop offset=".01" stop-color="#789bee"/>
      <stop offset=".19" stop-color="#b1c6f5"/>
      <stop offset=".33" stop-color="#dbe5fa"/>
      <stop offset=".45" stop-color="#f5f7fd"/>
      <stop offset=".51" stop-color="#fff"/>
      <stop offset=".58" stop-color="#f5f8fd"/>
      <stop offset=".68" stop-color="#dde6fa"/>
      <stop offset=".82" stop-color="#b4c8f5"/>
      <stop offset=".97" stop-color="#7d9fef"/>
      <stop offset="1" stop-color="#7398ee"/>
    </linearGradient>
    <pattern id="New_Pattern_Swatch_32" data-name="New Pattern Swatch 32" x="0" y="0" width="254.9" height="167.45" patternTransform="translate(4172.2 5544.29) scale(1.76)" patternUnits="userSpaceOnUse" viewBox="0 0 254.9 167.45">
      <g>
        <rect class="cls-14" width="254.9" height="167.45"/>
        <rect class="cls-18" width="254.9" height="167.45"/>
      </g>
    </pattern>
    <linearGradient id="linear-gradient-2" x1="11351.77" y1="-11891.49" x2="11606.67" y2="-11891.49" gradientTransform="translate(-11351.77 -11807.76) scale(1 -1)" gradientUnits="userSpaceOnUse">
      <stop offset="0" stop-color="#7398ee"/>
      <stop offset=".1" stop-color="#5f83d5"/>
      <stop offset=".28" stop-color="#3e60ac"/>
      <stop offset=".43" stop-color="#2a4a92"/>
      <stop offset=".51" stop-color="#234289"/>
      <stop offset=".6" stop-color="#2a4992"/>
      <stop offset=".73" stop-color="#3d5eaa"/>
      <stop offset=".9" stop-color="#5d80d2"/>
      <stop offset="1" stop-color="#7398ee"/>
    </linearGradient>
    <pattern id="New_Pattern_Swatch_33" data-name="New Pattern Swatch 33" x="0" y="0" width="254.9" height="167.45" patternTransform="translate(4172.2 5544.29) scale(1.76)" patternUnits="userSpaceOnUse" viewBox="0 0 254.9 167.45">
      <g>
        <rect class="cls-14" width="254.9" height="167.45"/>
        <rect class="cls-1" width="254.9" height="167.45"/>
      </g>
    </pattern>
    <pattern id="New_Pattern_Swatch_32-2" data-name="New Pattern Swatch 32" patternTransform="translate(3996.77 5587.95) scale(1.76)" xlink:href="#New_Pattern_Swatch_32"/>
    <pattern id="New_Pattern_Swatch_32-3" data-name="New Pattern Swatch 32" patternTransform="translate(3996.77 5587.95) scale(1.76)" xlink:href="#New_Pattern_Swatch_32"/>
    <pattern id="New_Pattern_Swatch_32-4" data-name="New Pattern Swatch 32" patternTransform="translate(3996.77 5587.95) scale(1.76)" xlink:href="#New_Pattern_Swatch_32"/>
  </defs>
  <g id="Layer_2" data-name="Layer 2">
    <rect class="cls-4" x="0" y="0" width="500" height="500"/>
  </g>
  <g id="Layer_1" data-name="Layer 1">
    <g>
      <polygon class="cls-17" points="260.09 144.93 258.76 135.52 266.85 128.15 271.26 139.69 265.97 146.84 260.09 144.93"/>
      <polygon class="cls-17" points="297.72 155.22 310.36 155.22 314.51 145.66 305.07 135.67 295.66 139.05 297.72 155.22"/>
      <path class="cls-17" d="m356.07,157.33l-8.82-7.33s8.97-12.15,9.41-12.51,14.99,9.34,14.99,9.34l-3.38,9.7-12.2.79Z"/>
      <path class="cls-17" d="m404.14,152.13h5.44l3.67-11.91s-6.61-7.35-6.76-6.32c-.15,1.03-3.38,10-3.38,10l1.03,8.23Z"/>
      <polygon class="cls-17" points="251.71 376.57 246.03 380.38 211.38 347.5 218.46 346.02 251.71 376.57"/>
      <polygon class="cls-17" points="246.03 380.38 287.05 369.97 282.48 364.88 245.24 375.16 246.03 380.38"/>
      <g>
        <polygon class="cls-4" points="500 450 500 500.01 0 500.01 0 450 187.81 450 247.62 450 500 450"/>
        <polygon class="cls-12" points="500 350.01 500 450 247.62 450 247.62 449.42 287.06 432.47 286.74 424.53 350.37 424.53 492.43 424.53 472.5 350.01 500 350.01"/>
        <polygon class="cls-6" points="500 249.99 500 350.01 472.5 350.01 471.16 344.98 463.7 317.09 445.76 249.99 500 249.99"/>
        <polygon class="cls-5" points="500 150 500 249.99 445.76 249.99 441.14 232.69 422.91 232.69 421.05 183.6 429.16 180.25 432.49 157.32 424.5 153.31 419.81 150.95 419.78 150 500 150"/>
        <polygon class="cls-12" points="500 50 500 150 419.78 150 418.59 118.9 424.86 116.71 381.06 55.98 352.04 50 500 50"/>
        <polygon class="cls-4" points="500 0 500 50 352.04 50 341.18 47.76 330.66 50 282.65 50 251.41 26.58 226.47 39.4 228.5 50 118.26 50 108.24 39.44 97.09 50 0 50 0 0 500 0"/>
        <polygon class="cls-12" points="472.5 350.01 492.43 424.53 350.37 424.53 282.93 350.01 337.28 350.01 365.66 376.57 454.36 350.01 472.5 350.01"/>
        <polygon class="cls-12" points="471.16 344.98 472.5 350.01 454.36 350.01 471.16 344.98"/>
        <polygon class="cls-10" points="463.7 317.09 471.16 344.98 454.36 350.01 337.28 350.01 288.24 304.13 285.61 274.86 291.82 276.35 312.35 281.25 320.57 283.21 318.62 302.95 369.15 342.62 463.7 317.09"/>
        <polygon class="cls-12" points="391.92 278.96 423.8 256.33 423.8 256.04 423.8 256.03 423.57 249.99 445.76 249.99 463.7 317.09 369.15 342.62 318.62 302.95 320.57 283.21 327.52 284.87 328.83 284.76 390.67 279.84 391.92 278.96"/>
        <polygon class="cls-10" points="454.36 350.01 365.66 376.57 337.28 350.01 454.36 350.01"/>
        <polygon class="cls-12" points="441.14 232.69 445.76 249.99 423.57 249.99 422.91 232.69 441.14 232.69"/>
        <polygon class="cls-4" points="432.49 157.32 429.16 180.25 421.05 183.6 420.22 161.71 432.49 157.32"/>
        <polygon class="cls-3" points="432.49 157.32 420.22 161.71 420.06 157.28 422.88 156.54 424.5 153.31 432.49 157.32"/>
        <polygon class="cls-7" points="390.55 127.16 389.3 127.53 328.78 130.84 328.78 130.21 334.3 71.88 373.58 67.47 381.06 55.98 424.86 116.71 418.59 118.9 418.56 118.92 390.55 127.16"/>
        <polygon class="cls-3" points="422.88 156.54 420.06 157.28 419.81 150.95 424.5 153.31 422.88 156.54"/>
        <polygon class="cls-6" points="423.8 256.04 423.8 256.33 391.92 278.96 391.66 249.99 423.57 249.99 423.8 256.03 423.8 256.04"/>
        <polygon class="cls-6" points="422.91 232.69 423.57 249.99 391.66 249.99 391.5 232.69 422.91 232.69"/>
        <polygon class="cls-6" points="421.05 183.6 422.91 232.69 391.5 232.69 391.15 193.78 397.6 193.32 421.05 183.6"/>
        <polygon class="cls-4" points="420.22 161.71 421.05 183.6 397.6 193.32 398.57 169.47 420.22 161.71"/>
        <polygon class="cls-3" points="420.06 157.28 420.22 161.71 398.57 169.47 390.94 170.09 390.88 163.83 396.03 163.49 420.06 157.28"/>
        <polygon class="cls-6" points="419.81 150.95 420.06 157.28 396.03 163.49 390.88 163.83 390.76 150 419.78 150 419.81 150.95"/>
        <polygon class="cls-6" points="418.56 118.92 418.59 118.9 419.78 150 390.76 150 390.55 127.16 418.56 118.92"/>
        <polygon class="cls-5" points="398.57 169.47 397.6 193.32 391.15 193.78 390.94 170.09 398.57 169.47"/>
        <polygon class="cls-8" points="391.66 249.99 391.92 278.96 390.67 279.84 328.83 284.76 328.78 284.16 328.78 249.99 391.66 249.99"/>
        <polygon class="cls-8" points="391.5 232.69 391.66 249.99 328.78 249.99 328.78 232.69 391.5 232.69"/>
        <polygon class="cls-8" points="391.15 193.78 391.5 232.69 328.78 232.69 328.78 196.55 339.78 197.36 391.15 193.78"/>
        <polygon class="cls-5" points="390.94 170.09 391.15 193.78 339.78 197.36 340.36 174.18 390.94 170.09"/>
        <polygon class="cls-3" points="390.88 163.83 390.94 170.09 340.36 174.18 328.78 174.22 328.78 167.09 337.4 167.23 390.88 163.83"/>
        <polygon class="cls-8" points="390.76 150 390.88 163.83 337.4 167.23 328.78 167.09 328.78 161.04 335.13 161.13 328.78 156.37 328.78 150 390.76 150"/>
        <polygon class="cls-8" points="390.55 127.16 390.76 150 328.78 150 328.78 130.84 389.3 127.53 390.55 127.16"/>
        <polygon class="cls-16" points="381.06 55.98 373.58 67.47 334.3 71.88 305.4 67.08 302.6 55.98 330.66 50 352.04 50 381.06 55.98"/>
        <polygon class="cls-16" points="352.04 50 330.66 50 341.18 47.76 352.04 50"/>
        <polygon class="cls-10" points="282.93 350.01 350.37 424.53 286.74 424.53 284.52 367.63 283.97 367.77 266.74 350.01 282.93 350.01"/>
        <polygon class="cls-8" points="340.36 174.18 339.78 197.36 328.78 196.55 328.78 174.22 340.36 174.18"/>
        <polygon class="cls-12" points="337.28 350.01 282.93 350.01 257.07 321.41 257.51 306.6 233.93 293.12 226.31 266.15 236.56 249.99 251.75 249.99 278.15 273.08 279.16 273.33 285.61 274.86 288.24 304.13 337.28 350.01"/>
        <polygon class="cls-8" points="335.13 161.13 328.78 161.04 328.78 156.37 335.13 161.13"/>
        <polygon class="cls-17" points="334.3 71.88 328.78 130.21 328.78 130.84 327.52 130.91 281.64 121 279.48 119.36 291.82 95.58 309 104.07 323.34 94.61 317.19 75.92 305.4 67.08 334.3 71.88"/>
        <polygon class="cls-12" points="330.66 50 302.6 55.98 297.34 61.05 282.65 50 330.66 50"/>
        <polygon class="cls-20" points="328.78 284.16 328.83 284.76 327.52 284.87 320.57 283.21 320.19 249.99 328.78 249.99 328.78 284.16"/>
        <polygon class="cls-20" points="328.78 232.69 328.78 249.99 320.19 249.99 319.97 232.69 328.78 232.69"/>
        <polygon class="cls-20" points="328.78 196.55 328.78 232.69 319.97 232.69 319.8 217.89 302.6 200.06 285.61 214.36 285.61 232.69 279.39 232.69 279.39 190.59 284.52 193.32 328.78 196.55"/>
        <polygon class="cls-8" points="328.78 174.22 328.78 196.55 284.52 193.32 284.52 174.38 328.78 174.22"/>
        <polygon class="cls-3" points="328.78 167.09 328.78 174.22 284.52 174.38 279.39 171.85 279.39 163.9 285.61 166.35 328.78 167.09"/>
        <polygon class="cls-20" points="328.78 161.04 328.78 167.09 285.61 166.35 279.39 163.9 279.39 160.35 328.78 161.04"/>
        <polygon class="cls-20" points="328.78 156.37 328.78 161.04 279.39 160.35 279.39 150 320.29 150 328.78 156.37"/>
        <polygon class="cls-20" points="328.78 150 328.78 156.37 320.29 150 328.78 150"/>
        <polygon class="cls-20" points="328.78 130.84 328.78 150 320.29 150 281.64 121 327.52 130.91 328.78 130.84"/>
        <polygon class="cls-3" points="317.19 75.92 323.34 94.61 283.46 74.42 297.34 61.05 305.4 67.08 317.19 75.92"/>
        <polygon class="cls-9" points="291.82 95.58 271.77 85.67 283.46 74.42 323.34 94.61 309 104.07 291.82 95.58"/>
        <polygon class="cls-3" points="320.19 249.99 320.57 283.21 312.35 281.25 312.35 281.23 312.35 270.21 312.35 249.99 320.19 249.99"/>
        <polygon class="cls-20" points="320.29 150 279.39 150 279.39 120.51 281.64 121 320.29 150"/>
        <polygon class="cls-3" points="319.97 232.69 320.19 249.99 312.35 249.99 312.35 232.69 319.97 232.69"/>
        <polygon class="cls-3" points="319.8 217.89 319.97 232.69 312.35 232.69 312.35 222.99 302.6 212.21 294.12 220.24 293.6 232.69 285.61 232.69 285.61 214.36 302.6 200.06 319.8 217.89"/>
        <polygon class="cls-17" points="312.35 281.23 312.35 281.25 291.82 276.35 312.35 270.21 312.35 281.23"/>
        <polygon class="cls-7" points="312.35 249.99 312.35 270.21 291.82 276.35 292.9 249.99 312.35 249.99"/>
        <polygon class="cls-7" points="312.35 232.69 312.35 249.99 292.9 249.99 293.6 232.69 312.35 232.69"/>
        <polygon class="cls-7" points="312.35 222.99 312.35 232.69 293.6 232.69 294.12 220.24 302.6 212.21 312.35 222.99"/>
        <polygon class="cls-7" points="302.6 55.98 305.4 67.08 297.34 61.05 302.6 55.98"/>
        <polygon class="cls-3" points="282.65 50 297.34 61.05 283.46 74.42 253.33 59.16 252.79 50 282.65 50"/>
        <polygon class="cls-3" points="293.6 232.69 292.9 249.99 285.61 249.99 285.61 232.69 293.6 232.69"/>
        <polygon class="cls-3" points="292.9 249.99 291.82 276.35 285.61 274.86 285.61 249.99 292.9 249.99"/>
        <polygon class="cls-7" points="291.82 95.58 279.48 119.36 255.49 101.37 271.77 85.67 291.82 95.58"/>
        <polygon class="cls-6" points="286.74 424.53 287.06 432.47 247.62 449.42 258.96 424.53 274.91 424.53 286.74 424.53"/>
        <polygon class="cls-6" points="284.52 367.63 286.74 424.53 274.91 424.53 267.02 406.8 284.54 368.35 283.97 367.77 284.52 367.63"/>
        <polygon class="cls-20" points="285.61 249.99 285.61 274.86 279.16 273.33 279.39 272.38 279.39 249.99 285.61 249.99"/>
        <rect class="cls-20" x="279.39" y="232.69" width="6.23" height="17.3"/>
        <polygon class="cls-6" points="283.97 367.77 284.54 368.35 267.02 406.8 255.29 380.38 255.47 374.66 283.97 367.77"/>
        <polygon class="cls-5" points="284.52 174.38 284.52 193.32 279.39 190.59 279.39 171.85 284.52 174.38"/>
        <polygon class="cls-7" points="266.74 350.01 283.97 367.77 255.47 374.66 256.21 350.01 266.74 350.01"/>
        <polygon class="cls-9" points="283.46 74.42 271.77 85.67 231.52 65.79 253.33 59.16 283.46 74.42"/>
        <polygon class="cls-10" points="257.07 321.41 282.93 350.01 266.74 350.01 256.84 339.79 256.51 339.85 257.07 321.41"/>
        <polygon class="cls-3" points="282.65 50 252.79 50 251.41 26.58 282.65 50"/>
        <polygon class="cls-17" points="279.48 119.36 281.64 121 279.39 120.51 279.39 119.54 279.48 119.36"/>
        <polygon class="cls-7" points="279.48 119.36 279.39 119.54 279.39 120.51 278.15 120.24 255.36 110.59 249.67 106.96 255.49 101.37 279.48 119.36"/>
        <polygon class="cls-8" points="279.39 249.99 279.39 272.38 279.16 273.33 278.15 273.08 251.75 249.99 279.39 249.99"/>
        <polygon class="cls-8" points="279.39 232.69 279.39 249.99 251.75 249.99 251.01 249.34 251.32 232.69 279.39 232.69"/>
        <polygon class="cls-8" points="279.39 190.59 279.39 232.69 251.32 232.69 252.36 176.17 279.39 190.59"/>
        <polygon class="cls-5" points="279.39 171.85 279.39 190.59 252.36 176.17 252.66 159.96 255.36 160 279.39 171.85"/>
        <polygon class="cls-3" points="279.39 163.9 279.39 171.85 255.36 160 270.02 160.21 279.39 163.9"/>
        <polygon class="cls-8" points="279.39 160.35 279.39 163.9 270.02 160.21 279.39 160.35"/>
        <polygon class="cls-8" points="279.39 150 279.39 160.35 270.02 160.21 256.49 154.88 253.25 150 279.39 150"/>
        <polygon class="cls-8" points="279.39 120.51 279.39 150 253.25 150 252.86 149.42 253.6 109.85 255.36 110.59 278.15 120.24 279.39 120.51"/>
        <polygon class="cls-6" points="267.02 406.8 274.91 424.53 258.96 424.53 267.02 406.8"/>
        <polygon class="cls-12" points="271.77 85.67 255.49 101.37 248.2 95.9 204.69 95.18 159.46 114.16 159.55 106.2 168.99 103.52 118.26 50 228.5 50 231.52 65.79 271.77 85.67"/>
        <polygon class="cls-3" points="270.02 160.21 255.36 160 252.7 158.69 252.86 150 253.25 150 256.49 154.88 270.02 160.21"/>
        <polygon class="cls-6" points="255.29 380.38 267.02 406.8 258.96 424.53 247.62 424.53 247.62 423.56 254.08 420.77 255.29 380.38"/>
        <polygon class="cls-7" points="256.84 339.79 266.74 350.01 256.21 350.01 256.51 339.85 256.84 339.79"/>
        <polygon class="cls-6" points="258.96 424.53 247.62 449.42 247.62 424.53 258.96 424.53"/>
        <polygon class="cls-6" points="214.55 346.65 214.55 350.01 188.35 350.01 188.49 325.73 192.76 319.01 257.51 306.6 257.07 321.41 256.51 339.85 214.55 346.65"/>
        <polygon class="cls-7" points="257.51 306.6 192.76 319.01 215.78 282.75 233.93 293.12 257.51 306.6"/>
        <polygon class="cls-7" points="256.51 339.85 256.21 350.01 218.25 350.01 214.55 346.65 256.51 339.85"/>
        <polygon class="cls-7" points="256.21 350.01 255.47 374.66 247.62 376.57 218.25 350.01 256.21 350.01"/>
        <polygon class="cls-5" points="255.49 101.37 249.67 106.96 255.36 110.59 253.6 109.85 252.86 149.42 251.73 150 159.07 150 159.18 140.79 159.57 140.67 159.18 140.56 159.46 114.16 204.69 95.18 248.2 95.9 255.49 101.37"/>
        <polygon class="cls-6" points="255.47 374.66 255.29 380.38 254.08 420.77 247.62 423.56 247.62 376.57 255.47 374.66"/>
        <polygon class="cls-5" points="255.36 160 252.66 159.96 252.7 158.69 255.36 160"/>
        <path class="cls-8" d="m252.79,50l.55,9.15-21.82,6.63,4.48-8.82.6,1.18s5.59-.97,5.68-1.38c.07-.26-2.12-3.37-3.49-5.31l.74-1.46h7.32l.78,3.35,4.07-1.18-.25-2.17h1.34Z"/>
        <polygon class="cls-20" points="252.86 149.42 253.25 150 252.86 150 252.86 149.42"/>
        <polygon class="cls-20" points="252.86 149.42 252.86 150 251.73 150 252.86 149.42"/>
        <polygon class="cls-3" points="252.86 150 252.7 158.69 243.56 154.2 251.73 150 252.86 150"/>
        <polygon class="cls-8" points="251.41 26.58 252.79 50 251.45 50 249.67 34.73 247.02 35.24 251.41 26.58"/>
        <polygon class="cls-5" points="252.7 158.69 252.66 159.96 244.11 159.84 243.56 154.2 252.7 158.69"/>
        <polygon class="cls-5" points="252.66 159.96 252.36 176.17 245.33 172.42 244.11 159.84 252.66 159.96"/>
        <polygon class="cls-5" points="252.36 176.17 251.32 232.69 247.55 232.69 236.56 249.99 158 249.99 158.98 158.64 244.11 159.84 245.33 172.42 252.36 176.17"/>
        <polygon class="cls-12" points="251.01 249.34 251.75 249.99 236.56 249.99 247.55 232.69 251.32 232.69 251.01 249.34"/>
        <polygon class="cls-5" points="251.73 150 243.56 154.2 244.11 159.84 158.98 158.64 159.07 150 251.73 150"/>
        <polygon class="cls-2" points="251.45 50 251.69 52.17 247.62 53.35 246.84 50 251.45 50"/>
        <polygon class="cls-2" points="249.67 34.73 251.45 50 246.84 50 244.53 40.13 247.02 35.24 249.67 34.73"/>
        <path class="cls-8" d="m251.41,26.58l-4.39,8.66-3.46.67.97,4.22-5.01,9.88h-1.8c-.04-.05-.05-.07-.05-.07l-.11.07h-9.07l-2.03-10.6,24.94-12.82Z"/>
        <polygon class="cls-12" points="247.62 449.42 247.62 450 187.81 450 187.81 449.35 213.95 438.08 247.62 449.42"/>
        <polygon class="cls-3" points="247.62 424.53 247.62 449.42 213.95 438.08 245.36 424.53 247.62 424.53"/>
        <polygon class="cls-3" points="247.62 423.56 247.62 424.53 245.36 424.53 247.62 423.56"/>
        <polygon class="cls-3" points="247.62 376.57 247.62 423.56 245.36 424.53 214.07 424.53 214.55 369.97 247.62 376.57"/>
        <polygon class="cls-3" points="247.62 376.57 214.55 369.97 214.55 350.01 218.25 350.01 247.62 376.57"/>
        <polygon class="cls-2" points="247.02 35.24 244.53 40.13 243.56 35.91 247.02 35.24"/>
        <polygon class="cls-8" points="244.53 40.13 246.84 50 239.52 50 244.53 40.13"/>
        <polygon class="cls-3" points="245.36 424.53 213.95 438.08 214.07 424.53 245.36 424.53"/>
        <path class="cls-2" d="m238.78,51.47c1.38,1.94,3.56,5.04,3.49,5.31-.09.41-5.68,1.38-5.68,1.38l-.6-1.18,2.79-5.5Z"/>
        <path class="cls-8" d="m239.52,50l-.74,1.46c-.51-.72-.92-1.27-1.06-1.46h1.8Z"/>
        <path class="cls-2" d="m238.78,51.47l-2.79,5.5-2.24-4.39,3.81-2.58h.16c.14.19.55.74,1.06,1.46Z"/>
        <path class="cls-2" d="m237.72,50h-.16l.11-.07s.02.02.05.07Z"/>
        <polygon class="cls-8" points="237.57 50 233.76 52.58 236 56.97 231.52 65.79 228.5 50 237.57 50"/>
        <polygon class="cls-6" points="236.56 249.99 226.31 266.15 215.78 282.75 187.98 266.87 157.84 264.49 157.84 264.47 158 249.99 236.56 249.99"/>
        <polygon class="cls-10" points="226.31 266.15 233.93 293.12 215.78 282.75 226.31 266.15"/>
        <polygon class="cls-5" points="214.55 346.65 218.25 350.01 214.55 350.01 214.55 346.65"/>
        <polygon class="cls-7" points="215.78 282.75 192.76 319.01 188.53 319.83 187.98 266.87 215.78 282.75"/>
        <polygon class="cls-6" points="214.55 350.01 214.55 369.97 214.07 424.53 187.95 424.53 188.35 350.01 214.55 350.01"/>
        <polygon class="cls-6" points="214.07 424.53 213.95 438.08 187.81 449.35 187.95 424.53 214.07 424.53"/>
        <polygon class="cls-6" points="192.76 319.01 188.49 325.73 188.53 319.83 192.76 319.01"/>
        <polygon class="cls-12" points="117.23 272.01 133.2 262.53 157.84 264.49 187.98 266.87 188.53 319.83 69.36 300.42 117.23 272.01"/>
        <polygon class="cls-5" points="188.53 319.83 188.49 325.73 173.1 350.01 69.43 350.01 69.38 316.28 69.36 300.42 188.53 319.83"/>
        <polygon class="cls-5" points="173.1 350.01 188.49 325.73 188.35 350.01 173.1 350.01"/>
        <polygon class="cls-5" points="188.35 350.01 187.95 424.53 125.81 424.53 173.1 350.01 188.35 350.01"/>
        <polygon class="cls-5" points="187.95 424.53 187.81 449.35 69.54 417.17 69.43 350.01 173.1 350.01 125.81 424.53 187.95 424.53"/>
        <polygon class="cls-12" points="187.81 449.35 187.81 450 0 450 0 350.01 69.43 350.01 69.54 417.17 187.81 449.35"/>
        <polygon class="cls-17" points="118.26 50 168.99 103.52 159.55 106.2 159.57 104.98 149.42 103.08 111.69 95.99 108.89 50 118.26 50"/>
        <polygon class="cls-17" points="159.57 104.98 159.55 106.2 150.54 108.78 150.54 107.58 159.57 104.98"/>
        <polygon class="cls-17" points="159.57 104.98 150.54 107.58 140.64 105.53 149.42 103.08 159.57 104.98"/>
        <polygon class="cls-5" points="159.57 140.67 159.18 140.79 159.18 140.56 159.57 140.67"/>
        <polygon class="cls-7" points="159.55 106.2 159.46 114.16 150.54 117.9 150.54 108.78 159.55 106.2"/>
        <polygon class="cls-7" points="159.46 114.16 159.18 140.56 150.54 138.36 150.54 117.9 159.46 114.16"/>
        <polygon class="cls-7" points="159.18 140.56 159.18 140.79 150.54 143.54 150.54 138.36 159.18 140.56"/>
        <polygon class="cls-7" points="159.18 140.79 159.07 150 130.37 150 150.52 143.56 150.54 143.56 150.54 143.54 159.18 140.79"/>
        <polygon class="cls-7" points="159.07 150 158.98 158.64 117.23 158.06 117.23 154.2 125.45 151.57 130.37 150 159.07 150"/>
        <polygon class="cls-7" points="158.98 158.64 158 249.99 117.23 249.99 117.23 158.06 158.98 158.64"/>
        <polygon class="cls-7" points="158 249.99 157.84 264.47 157.84 264.49 133.2 262.53 117.23 272.01 117.23 249.99 158 249.99"/>
        <polygon class="cls-15" points="150.54 143.54 150.54 143.56 150.52 143.56 140.62 141.09 140.62 135.82 150.54 138.36 150.54 143.54"/>
        <polygon class="cls-15" points="150.54 117.9 150.54 138.36 140.62 135.82 140.62 122.06 150.54 117.9"/>
        <polygon class="cls-15" points="150.54 108.78 150.54 117.9 140.62 122.06 140.62 111.58 150.54 108.78"/>
        <polygon class="cls-17" points="150.54 107.58 150.54 108.78 140.62 111.58 140.62 110.43 150.54 107.58"/>
        <polygon class="cls-17" points="150.54 107.58 140.62 110.43 140.62 105.53 140.64 105.53 150.54 107.58"/>
        <polygon class="cls-6" points="150.52 143.56 130.37 150 125.49 150 125.56 145.66 126.09 145.68 126.09 145.66 140.6 141.09 140.62 141.09 150.52 143.56"/>
        <polygon class="cls-17" points="149.42 103.08 140.64 105.53 140.62 105.53 111.91 99.59 111.69 95.99 149.42 103.08"/>
        <polygon class="cls-6" points="140.62 135.82 140.62 141.09 140.6 141.09 125.7 137.39 125.79 132.02 140.62 135.82"/>
        <polygon class="cls-5" points="140.62 122.06 140.62 135.82 125.79 132.02 125.86 128.25 140.62 122.06"/>
        <polygon class="cls-12" points="140.62 111.58 140.62 122.06 125.86 128.25 126.07 115.73 140.62 111.58"/>
        <polygon class="cls-17" points="140.62 110.43 140.62 111.58 126.07 115.73 126.09 114.61 140.62 110.43"/>
        <polygon class="cls-17" points="140.62 105.53 140.62 110.43 126.09 114.61 126.09 114.6 115.96 112.41 140.62 105.53"/>
        <polygon class="cls-17" points="140.62 105.53 115.96 112.41 112.65 111.7 111.91 99.59 140.62 105.53"/>
        <polygon class="cls-17" points="140.6 141.09 126.09 145.66 126.09 145.68 125.56 145.66 125.7 137.39 140.6 141.09"/>
        <polygon class="cls-6" points="130.37 150 125.45 151.57 125.49 150 130.37 150"/>
        <polygon class="cls-17" points="126.09 114.6 126.09 114.61 117.23 117.15 112.93 116.24 112.75 113.31 115.96 112.41 126.09 114.6"/>
        <polygon class="cls-17" points="126.09 114.61 126.07 115.73 117.23 118.25 117.23 117.15 126.09 114.61"/>
        <polygon class="cls-7" points="126.07 115.73 125.86 128.25 120.23 130.61 117.23 129.84 117.23 118.25 126.07 115.73"/>
        <polygon class="cls-7" points="125.86 128.25 125.79 132.02 120.23 130.61 125.86 128.25"/>
        <polygon class="cls-7" points="125.79 132.02 125.7 137.39 117.23 135.29 117.23 131.87 120.23 130.61 125.79 132.02"/>
        <polygon class="cls-7" points="125.7 137.39 125.56 145.66 125.49 150 117.23 150 117.23 135.29 125.7 137.39"/>
        <polygon class="cls-7" points="125.49 150 125.45 151.57 117.23 154.2 117.23 150 125.49 150"/>
        <polygon class="cls-7" points="120.23 130.61 117.23 131.87 117.23 129.84 120.23 130.61"/>
        <polygon class="cls-17" points="118.26 50 108.89 50 108.24 39.44 118.26 50"/>
        <polygon class="cls-9" points="117.23 249.99 117.23 272.01 69.36 300.42 69.38 316.28 69.36 316.28 50.8 309.42 51.14 249.99 87.65 249.99 101.6 253.66 101.96 249.99 117.23 249.99"/>
        <polygon class="cls-9" points="117.23 158.06 117.23 249.99 101.96 249.99 103.12 237.82 97.62 237.29 99.01 220.04 84.02 207.55 69.77 219.16 69.77 234.63 64.76 234.15 64.32 243.85 87.65 249.99 51.14 249.99 51.7 150 74.02 150 56.82 157.21 81.27 157.57 69.54 164.34 69.54 182.01 63.88 181.24 63.12 190.06 103.12 203.18 103.12 186.67 96.72 185.79 96.72 169.03 85.31 157.62 117.23 158.06"/>
        <polygon class="cls-9" points="117.23 154.2 117.23 158.06 85.31 157.62 83.79 156.1 81.27 157.57 56.82 157.21 74.02 150 101.92 150 106.88 151.36 117.23 154.2"/>
        <polygon class="cls-5" points="117.23 150 117.23 154.2 106.88 151.36 106.88 150 117.23 150"/>
        <polygon class="cls-5" points="117.23 135.29 117.23 150 106.88 150 106.88 145.66 106.88 136.2 112.1 134.02 117.23 135.29"/>
        <polygon class="cls-5" points="117.23 131.87 117.23 135.29 112.1 134.02 117.23 131.87"/>
        <polygon class="cls-5" points="117.23 129.84 117.23 131.87 112.1 134.02 106.88 132.73 106.88 128.13 106.88 127.19 117.23 129.84"/>
        <polygon class="cls-5" points="117.23 118.25 117.23 129.84 106.88 127.19 106.88 117.86 113.12 119.41 117.23 118.25"/>
        <polygon class="cls-17" points="117.23 117.15 117.23 118.25 113.12 119.41 112.93 116.24 117.23 117.15"/>
        <polygon class="cls-17" points="115.96 112.41 112.75 113.31 112.65 111.7 115.96 112.41"/>
        <polygon class="cls-9" points="112.93 116.24 113.12 119.41 106.88 117.86 106.88 114.97 112.93 116.24"/>
        <polygon class="cls-9" points="112.75 113.31 112.93 116.24 106.88 114.97 106.88 114.95 112.75 113.31"/>
        <polygon class="cls-9" points="112.65 111.7 112.75 113.31 106.88 114.95 107.11 110.5 112.65 111.7"/>
        <polygon class="cls-9" points="111.91 99.59 112.65 111.7 107.11 110.5 107.71 98.72 111.91 99.59"/>
        <polygon class="cls-5" points="112.1 134.02 106.88 136.2 106.88 132.73 112.1 134.02"/>
        <polygon class="cls-9" points="111.69 95.99 111.91 99.59 107.71 98.72 107.88 95.28 111.69 95.99"/>
        <polygon class="cls-9" points="108.89 50 111.69 95.99 107.88 95.28 107.88 95.26 107.87 95.26 99.01 93.61 90.99 95.26 90.97 95.26 63.12 101.03 51.97 103.33 51.97 104.24 42.37 101.86 97.09 50 108.89 50"/>
        <polygon class="cls-9" points="108.24 39.44 108.89 50 97.09 50 108.24 39.44"/>
        <polygon class="cls-9" points="107.88 95.26 107.88 95.28 107.71 98.72 99.68 97.06 107.87 95.26 107.88 95.26"/>
        <polygon class="cls-9" points="107.87 95.26 99.68 97.06 99.01 96.92 99.01 93.61 107.87 95.26"/>
        <polygon class="cls-9" points="107.71 98.72 107.11 110.5 99.01 108.76 99.01 97.21 99.68 97.06 107.71 98.72"/>
        <polygon class="cls-9" points="107.11 110.5 106.88 114.95 106.88 114.97 99.01 113.29 99.01 108.76 107.11 110.5"/>
        <polygon class="cls-6" points="106.88 150 106.88 151.36 101.92 150 106.88 150"/>
        <polygon class="cls-6" points="106.88 145.66 106.88 150 101.92 150 85.04 145.38 92.82 142.11 106.88 145.66"/>
        <polygon class="cls-17" points="106.88 136.2 106.88 145.66 92.82 142.11 106.88 136.2"/>
        <polygon class="cls-17" points="99.01 130.77 106.88 132.73 106.88 136.2 92.82 142.11 71.74 136.79 71.74 136.77 99.01 130.77"/>
        <polygon class="cls-6" points="106.88 128.13 106.88 132.73 99.01 130.77 106.88 128.13"/>
        <polygon class="cls-7" points="106.88 127.19 106.88 128.13 99.01 130.77 99.01 125.18 106.88 127.19"/>
        <polygon class="cls-7" points="106.88 117.86 106.88 127.19 99.01 125.18 99.01 115.92 106.88 117.86"/>
        <polygon class="cls-9" points="106.88 114.97 106.88 117.86 99.01 115.92 99.01 113.29 106.88 114.97"/>
        <polygon class="cls-6" points="103.12 186.67 103.12 203.18 63.12 190.06 63.88 181.24 69.54 182.01 69.54 186.09 96.72 193.32 96.72 185.79 103.12 186.67"/>
        <polygon class="cls-6" points="103.12 237.82 101.96 249.99 87.65 249.99 64.32 243.85 64.76 234.15 69.77 234.63 69.77 237.54 97.07 244.05 97.62 237.29 103.12 237.82"/>
        <polygon class="cls-6" points="101.96 249.99 101.6 253.66 87.65 249.99 101.96 249.99"/>
        <polygon class="cls-9" points="101.92 150 74.02 150 85.04 145.38 101.92 150"/>
        <polygon class="cls-9" points="99.68 97.06 99.01 97.21 99.01 96.92 99.68 97.06"/>
        <polygon class="cls-15" points="99.01 125.18 99.01 130.77 90.37 127.21 99.01 125.18"/>
        <polygon class="cls-15" points="99.01 115.92 99.01 125.18 90.37 127.21 90.62 113.84 99.01 115.92"/>
        <polygon class="cls-9" points="99.01 113.29 99.01 115.92 90.62 113.84 90.67 111.53 99.01 113.29"/>
        <polygon class="cls-9" points="99.01 108.76 99.01 113.29 90.67 111.53 90.76 106.98 99.01 108.76"/>
        <polygon class="cls-9" points="99.01 97.21 99.01 108.76 90.76 106.98 90.9 98.99 99.01 97.21"/>
        <polygon class="cls-9" points="99.01 96.92 99.01 97.21 90.9 98.99 90.97 95.26 90.99 95.26 99.01 96.92"/>
        <polygon class="cls-9" points="99.01 93.61 99.01 96.92 90.99 95.26 99.01 93.61"/>
        <polygon class="cls-17" points="99.01 220.04 97.62 237.29 69.77 234.63 69.77 219.16 84.02 207.55 99.01 220.04"/>
        <polygon class="cls-6" points="99.01 130.77 71.74 136.77 71.74 131.58 90.37 127.21 99.01 130.77"/>
        <polygon class="cls-17" points="97.62 237.29 97.07 244.05 69.77 237.54 69.77 234.63 97.62 237.29"/>
        <polygon class="cls-12" points="97.09 50 42.37 101.86 51.97 104.24 51.77 136.26 51.7 150 0 150 0 50 97.09 50"/>
        <polygon class="cls-17" points="96.72 185.79 96.72 193.32 69.54 186.09 69.54 182.01 96.72 185.79"/>
        <polygon class="cls-17" points="96.72 169.03 96.72 185.79 69.54 182.01 69.54 164.34 81.27 157.57 85.31 157.62 96.72 169.03"/>
        <polygon class="cls-6" points="92.82 142.11 85.04 145.38 61.74 138.97 71.74 136.77 71.74 136.79 92.82 142.11"/>
        <polygon class="cls-9" points="90.97 95.26 90.9 98.99 72.47 103.04 72.34 103.01 63.12 101.03 90.97 95.26"/>
        <polygon class="cls-9" points="90.9 98.99 90.76 106.98 72.47 103.04 90.9 98.99"/>
        <polygon class="cls-9" points="90.76 106.98 90.67 111.53 71.74 107.52 71.74 103.2 72.47 103.04 90.76 106.98"/>
        <polygon class="cls-9" points="90.67 111.53 90.62 113.84 71.74 109.15 71.74 107.52 90.67 111.53"/>
        <polygon class="cls-12" points="71.74 109.15 90.62 113.84 90.37 127.21 71.74 131.58 71.74 109.15"/>
        <polygon class="cls-17" points="85.31 157.62 81.27 157.57 83.79 156.1 85.31 157.62"/>
        <polygon class="cls-9" points="85.04 145.38 74.02 150 51.7 150 51.77 136.26 51.79 136.26 61.74 138.97 85.04 145.38"/>
        <polygon class="cls-9" points="71.74 103.2 71.14 103.33 61.74 105.39 51.97 103.33 63.12 101.03 72.34 103.01 72.47 103.04 71.74 103.2"/>
        <polygon class="cls-7" points="71.74 131.58 71.74 136.77 61.74 138.97 61.74 133.93 71.74 131.58"/>
        <polygon class="cls-7" points="71.74 109.15 71.74 131.58 61.74 133.93 61.74 106.66 71.74 109.15"/>
        <polygon class="cls-9" points="71.74 107.52 71.74 109.15 61.74 106.66 61.74 105.39 71.74 107.52"/>
        <polygon class="cls-9" points="71.74 103.2 71.74 107.52 61.74 105.39 71.14 103.33 71.74 103.2"/>
        <polygon class="cls-6" points="69.38 316.28 69.43 350.01 0 350.01 0 249.99 51.14 249.99 50.8 309.42 69.36 316.28 69.38 316.28"/>
        <polygon class="cls-5" points="61.74 133.93 61.74 138.97 51.79 136.26 61.74 133.93"/>
        <polygon class="cls-5" points="61.74 106.66 61.74 133.93 51.79 136.26 51.77 136.26 51.97 104.24 61.74 106.66"/>
        <polygon class="cls-9" points="61.74 105.39 61.74 106.66 51.97 104.24 51.97 103.33 61.74 105.39"/>
        <polygon class="cls-5" points="51.7 150 51.14 249.99 0 249.99 0 150 51.7 150"/>
      </g>
      <polygon class="cls-17" points="64.32 304.02 188.48 328.61 263.47 310.88 261.51 304.86 187.99 318.92 64.32 297.55 64.32 304.02"/>
      <polygon class="cls-17" points="88.85 338.96 87.5 373.91 112.36 380.7 112.72 336.44 88.85 338.96"/>
      <polygon class="cls-20" points="141.23 339.37 136.41 386.76 159.72 393.73 164.99 350.52 141.23 339.37"/>
      <g>
        <path class="cls-17" d="m458.67,311.81l7.11,15.1-8.43.58v-3.02h-10.34s-6.37.93-6.37,3.44c0,.21.02.46.07.72l-4.8.34,2.36-15.13,20.39-2.03Z"/>
        <path class="cls-19" d="m457.35,327.49v9.03h-13.51s-2.66-5.12-3.12-7.88l16.63-1.15Z"/>
        <path class="cls-17" d="m457.35,324.48v3.02l-16.63,1.15c-.05-.26-.07-.51-.07-.72,0-2.5,6.37-3.44,6.37-3.44h10.34Z"/>
        <polygon class="cls-17" points="450.7 342.2 448.64 373.55 418.49 380.13 418.49 372.68 442.73 369.4 444.49 344.5 450.7 342.2"/>
        <path class="cls-17" d="m425.28,321.23l8.57,19.47h-11.85l-.86-3.12-5.91-3.79c-.37.93-1.85,3.85-3.46,6.91h-11.02l12.12-19.47h12.42Z"/>
        <path class="cls-11" d="m422,340.7l2.98,10.67-9.75,3.85-7.97-5.93s2.36-4.43,4.52-8.59h10.23Z"/>
        <path class="cls-17" d="m421.14,337.58l.86,3.12h-10.23c1.61-3.07,3.09-5.98,3.46-6.91l5.91,3.79Z"/>
        <polygon class="cls-17" points="418.49 380.13 418.49 468.71 407.26 468.71 411.75 378.86 416.13 380.64 418.49 380.13"/>
        <polygon class="cls-17" points="418.49 372.68 418.49 380.13 416.13 380.64 411.75 378.86 412.07 372.52 414.35 373.25 418.49 372.68"/>
        <polygon class="cls-17" points="418.49 362.61 418.49 372.68 414.35 373.25 412.07 372.52 412.57 362.61 418.49 362.61"/>
        <polygon class="cls-17" points="412.07 372.52 411.75 378.86 384.2 367.62 384.2 342.2 389.81 342.2 389.81 365.49 412.07 372.52"/>
        <path class="cls-17" d="m400.75,326.61c0,.37-2.66.37-6.31.18l-.19-4.27-12.72-.95-1.5,4.15c-3.58-.32-6.17-.58-6.17-.58l7.39-14.48,13.3,1.18s6.21,13.6,6.21,14.78Z"/>
        <path class="cls-13" d="m394.43,326.79l.41,8.52-9.12,4.15-9.47-3.26,3.77-10.48c4.3.37,10.05.85,14.41,1.08Z"/>
        <path class="cls-17" d="m394.24,322.52l.19,4.27c-4.36-.23-10.11-.71-14.41-1.08l1.5-4.15,12.72.95Z"/>
      </g>
    </g>
  </g>
</svg>