<?xml version="1.0" encoding="UTF-8"?><svg id="Layer_2" xmlns="http://www.w3.org/2000/svg" viewBox="0 0 482 482"><defs><style>.cls-1{fill:#fff;}</style></defs><path class="cls-1" d="m482,228.76v25.18c-.14.4-.38.78-.42,1.19-.6,6.12-.98,12.27-1.78,18.37-1.98,15.19-5.44,30.06-10.4,44.56-14.73,43.07-39.61,79.2-74.52,108.38-21.4,17.89-45.28,31.54-71.49,41.11-14.17,5.17-28.69,9.06-43.6,11.3-8.01,1.21-16.12,1.81-24.18,2.71-.33.04-.64.29-.97.44h-26.83c-.35-.15-.69-.38-1.05-.42-8.22-.91-16.48-1.5-24.64-2.75-14.98-2.28-29.58-6.19-43.81-11.4-24.64-9.02-47.2-21.74-67.69-38.12-20.85-16.67-38.47-36.26-52.86-58.75-13.12-20.51-22.88-42.52-29.29-66.01-2.57-9.42-4.68-18.94-5.91-28.63-.88-6.96-1.44-13.95-2.17-20.93-.03-.28-.27-.54-.41-.81,0-9.18,0-18.36,0-27.54.16-.31.44-.62.46-.94.57-8.85,1.59-17.64,3.12-26.37,2.91-16.6,7.47-32.74,13.81-48.37,14.12-34.81,35.22-64.7,63.18-89.77,12.71-11.4,26.51-21.29,41.34-29.74,15.54-8.86,31.87-15.88,48.99-21.08,10.25-3.11,20.63-5.66,31.22-7.2,8.21-1.19,16.5-1.84,24.76-2.75.32-.04.62-.27.94-.42,8.79,0,17.57,0,26.36,0,.35.15.69.4,1.04.42,9.25.51,18.43,1.58,27.55,3.18,17.39,3.05,34.25,7.91,50.55,14.72,34.55,14.43,64.18,35.75,88.91,63.85,15.25,17.33,27.72,36.48,37.45,57.42,7.91,17.02,13.76,34.72,17.46,53.11,2.35,11.66,4.02,23.4,4.42,35.31,0,.26.29.51.45.76Zm-87.05,152.77v-1.96c0-24.08.03-48.16-.01-72.25-.03-18.85-.15-37.71-.27-56.56-.02-2.61-.21-5.23-.51-7.82-1.01-8.68-2.99-17.11-6.51-25.15-6.56-14.97-17.14-25.96-32.2-32.49-8.92-3.87-18.3-5.57-27.95-5.99-4.98-.22-9.94-.05-14.87.7-19.14,2.92-34.34,12.34-45.84,27.83-.81,1.09-1.53,2.23-2.3,3.35-.07-.01-.15-.03-.22-.04v-25.84h-58.22v196.16h58.23v-1.73c0-33.34-.01-66.68.02-100.02,0-3.46.05-6.96.55-10.37.57-3.93,1.36-7.89,2.59-11.67,2.72-8.39,7.72-15.1,15.72-19.24,6.52-3.37,13.53-4.31,20.77-3.93,4.87.25,9.54,1.34,13.82,3.76,7.1,4,11.16,10.33,13.64,17.87,2.32,7.06,3.03,14.37,3.04,21.74.04,34.01.02,68.01.02,102.02,0,.53,0,1.06,0,1.63h60.5ZM106.37,185.27v196.22h60.65v-196.22h-60.65Zm-5.91-62.3c-.23,18.88,14.12,35.63,34.23,36.5,21.97.95,37.4-16.59,37.62-35.67.24-20.43-15.94-36.48-35.4-36.74-20.39-.27-36.46,16.39-36.45,35.91Z"/></svg>